<?xml version="1.0" encoding="UTF-8"?>
<svg xmlns="http://www.w3.org/2000/svg" width="320" height="360" viewBox="0 0 320 360" fill="none">
  <defs>
    <linearGradient id="dog-bg" x1="0" y1="0" x2="0" y2="1">
      <stop offset="0%" stop-color="#1a2018"/>
      <stop offset="100%" stop-color="#0a100c"/>
    </linearGradient>
  </defs>
  <rect width="320" height="360" fill="url(#dog-bg)"/>
  <ellipse cx="160" cy="292" rx="88" ry="20" fill="#162014"/>

  <ellipse cx="118" cy="278" rx="16" ry="7" fill="#2a2010"/>
  <ellipse cx="152" cy="280" rx="14" ry="6" fill="#2a2010"/>
  <ellipse cx="178" cy="280" rx="14" ry="6" fill="#2a2010"/>
  <ellipse cx="208" cy="278" rx="16" ry="7" fill="#2a2010"/>
  <rect x="108" y="242" width="18" height="38" rx="6" fill="#6a5010" stroke="#0a0e14" stroke-width="3"/>
  <rect x="142" y="248" width="18" height="36" rx="6" fill="#6a5010" stroke="#0a0e14" stroke-width="3"/>
  <rect x="168" y="248" width="18" height="36" rx="6" fill="#6a5010" stroke="#0a0e14" stroke-width="3"/>
  <rect x="198" y="242" width="18" height="38" rx="6" fill="#6a5010" stroke="#0a0e14" stroke-width="3"/>
  <ellipse cx="160" cy="208" rx="74" ry="48" fill="#8b6914" stroke="#0a0e14" stroke-width="4"/>
  <ellipse cx="160" cy="202" rx="52" ry="34" fill="#a07828"/>
  <ellipse cx="160" cy="120" rx="50" ry="44" fill="#8b6914" stroke="#0a0e14" stroke-width="4"/>
  <ellipse cx="160" cy="132" rx="32" ry="24" fill="#c4a060"/>
  <path d="M118 110 L95 52 L145 100Z" fill="#6a5010" stroke="#0a0e14" stroke-width="3"/>
  <path d="M202 110 L225 52 L175 100Z" fill="#6a5010" stroke="#0a0e14" stroke-width="3"/>
  <circle cx="142" cy="114" r="7" fill="#0a0e14"/>
  <circle cx="178" cy="114" r="7" fill="#0a0e14"/>
  <circle cx="144" cy="112" r="2.2" fill="#f4efe4"/>
  <circle cx="180" cy="112" r="2.2" fill="#f4efe4"/>
  <ellipse cx="160" cy="140" rx="11" ry="7" fill="#0a0e14"/>
  <path d="M228 190 Q282 155 265 225" fill="none" stroke="#8b6914" stroke-width="13" stroke-linecap="round"/>
  <circle cx="130" cy="138" r="4" fill="#e85d4c" opacity="0.35"/>
  <circle cx="190" cy="138" r="4" fill="#e85d4c" opacity="0.35"/>

  <!-- comic frame -->
  <rect x="10" y="10" width="300" height="340" fill="none" stroke="#0a0e14" stroke-width="10"/>
  <rect x="18" y="18" width="284" height="324" fill="none" stroke="#c47a3d" stroke-width="3.5"/>
  <rect x="16" y="16" width="18" height="18" fill="#f4efe4" stroke="#0a0e14" stroke-width="2"/>
  <rect x="286" y="16" width="18" height="18" fill="#f4efe4" stroke="#0a0e14" stroke-width="2"/>
  <rect x="16" y="326" width="18" height="18" fill="#c47a3d" stroke="#0a0e14" stroke-width="2"/>
  <rect x="286" y="326" width="18" height="18" fill="#c47a3d" stroke="#0a0e14" stroke-width="2"/>
  <text x="160" y="340" text-anchor="middle" font-family="Impact, Arial Black, sans-serif" font-size="20"
    fill="#f4efe4" stroke="#0a0e14" stroke-width="4" paint-order="stroke">COMPANION</text>
</svg>
