<?xml version="1.0" encoding="UTF-8"?>
<svg xmlns="http://www.w3.org/2000/svg" width="240" height="280" viewBox="0 0 240 280" fill="none">
  <defs>
    <linearGradient id="bg" x1="0" y1="0" x2="0" y2="1">
      <stop offset="0%" stop-color="#1a2018"/>
      <stop offset="100%" stop-color="#0a1010"/>
    </linearGradient>
  </defs>
  <rect width="240" height="280" fill="url(#bg)"/>
  <ellipse cx="120" cy="232" rx="68" ry="16" fill="#0a1410" opacity="0.45"/>

  <!-- body -->
  <ellipse cx="120" cy="165" rx="58" ry="38" fill="#8b6914" stroke="#0a0e14" stroke-width="3"/>
  <ellipse cx="120" cy="160" rx="42" ry="28" fill="#a07828"/>
  <!-- head -->
  <ellipse cx="120" cy="105" rx="36" ry="32" fill="#8b6914" stroke="#0a0e14" stroke-width="3"/>
  <ellipse cx="120" cy="112" rx="24" ry="18" fill="#c4a060"/>
  <!-- ears -->
  <path d="M90 95 L78 55 L108 88Z" fill="#6a5010" stroke="#0a0e14" stroke-width="2"/>
  <path d="M150 95 L162 55 L132 88Z" fill="#6a5010" stroke="#0a0e14" stroke-width="2"/>
  <!-- eyes -->
  <circle cx="108" cy="100" r="5" fill="#0a0e14"/>
  <circle cx="132" cy="100" r="5" fill="#0a0e14"/>
  <circle cx="109" cy="99" r="1.5" fill="#f4efe4"/>
  <circle cx="133" cy="99" r="1.5" fill="#f4efe4"/>
  <!-- nose -->
  <ellipse cx="120" cy="118" rx="8" ry="5" fill="#0a0e14"/>
  <!-- legs -->
  <rect x="78" y="185" width="14" height="28" rx="4" fill="#6a5010" stroke="#0a0e14" stroke-width="2"/>
  <rect x="108" y="188" width="14" height="28" rx="4" fill="#6a5010" stroke="#0a0e14" stroke-width="2"/>
  <rect x="118" y="188" width="14" height="28" rx="4" fill="#6a5010" stroke="#0a0e14" stroke-width="2"/>
  <rect x="148" y="185" width="14" height="28" rx="4" fill="#6a5010" stroke="#0a0e14" stroke-width="2"/>
  <!-- tail -->
  <path d="M175 155 Q210 130 200 175" fill="none" stroke="#8b6914" stroke-width="10" stroke-linecap="round"/>

  <rect x="8" y="8" width="224" height="264" fill="none" stroke="#0a0e14" stroke-width="8"/>
  <rect x="14" y="14" width="212" height="252" fill="none" stroke="#c47a3d" stroke-width="3"/>
  <text x="120" y="258" text-anchor="middle" font-family="Impact, Arial Black, sans-serif" font-size="15"
    fill="#f4efe4" stroke="#0a0e14" stroke-width="3" paint-order="stroke">COMPANION</text>
</svg>
