<?xml version="1.0" encoding="UTF-8"?>
<svg xmlns="http://www.w3.org/2000/svg" width="320" height="360" viewBox="0 0 320 360" fill="none">
  <defs>
    <linearGradient id="bg" x1="0" y1="0" x2="0" y2="1">
      <stop offset="0%" stop-color="#1a2018"/>
      <stop offset="100%" stop-color="#0a100c"/>
    </linearGradient>
    <filter id="ink" x="-20%" y="-20%" width="140%" height="140%">
      <feDropShadow dx="0" dy="2" stdDeviation="0" flood-color="#0a0e14" flood-opacity="0.9"/>
    </filter>
  </defs>
  <rect width="320" height="360" fill="url(#bg)"/>
  <ellipse cx="160" cy="300" rx="90" ry="22" fill="#000" opacity="0.35"/>
  <g filter="url(#ink)">

  <!-- legs -->
  <rect x="95" y="245" width="18" height="40" rx="6" fill="#6a5010" stroke="#0a0e14" stroke-width="3"/>
  <rect x="130" y="250" width="18" height="40" rx="6" fill="#6a5010" stroke="#0a0e14" stroke-width="3"/>
  <rect x="165" y="250" width="18" height="40" rx="6" fill="#6a5010" stroke="#0a0e14" stroke-width="3"/>
  <rect x="200" y="245" width="18" height="40" rx="6" fill="#6a5010" stroke="#0a0e14" stroke-width="3"/>
  <!-- body -->
  <ellipse cx="160" cy="210" rx="78" ry="50" fill="#8b6914" stroke="#0a0e14" stroke-width="4"/>
  <ellipse cx="160" cy="205" rx="55" ry="35" fill="#a07828"/>
  <!-- head -->
  <ellipse cx="160" cy="125" rx="52" ry="46" fill="#8b6914" stroke="#0a0e14" stroke-width="4"/>
  <ellipse cx="160" cy="138" rx="34" ry="26" fill="#c4a060"/>
  <path d="M118 115 L95 55 L145 105 Z" fill="#6a5010" stroke="#0a0e14" stroke-width="3"/>
  <path d="M202 115 L225 55 L175 105 Z" fill="#6a5010" stroke="#0a0e14" stroke-width="3"/>
  <circle cx="142" cy="118" r="8" fill="#0a0e14"/>
  <circle cx="178" cy="118" r="8" fill="#0a0e14"/>
  <circle cx="144" cy="116" r="2.5" fill="#f4efe4"/>
  <circle cx="180" cy="116" r="2.5" fill="#f4efe4"/>
  <ellipse cx="160" cy="145" rx="12" ry="8" fill="#0a0e14"/>
  <path d="M230 195 Q285 160 270 230" fill="none" stroke="#8b6914" stroke-width="14" stroke-linecap="round"/>

  </g>
  <rect x="10" y="10" width="300" height="340" fill="none" stroke="#0a0e14" stroke-width="10"/>
  <rect x="18" y="18" width="284" height="324" fill="none" stroke="#c47a3d" stroke-width="4"/>
  <rect x="26" y="26" width="268" height="308" fill="none" stroke="#f4efe4" stroke-width="1.5" opacity="0.55"/>
  <text x="160" y="338" text-anchor="middle" font-family="Impact, Arial Black, sans-serif" font-size="22"
    fill="#f4efe4" stroke="#0a0e14" stroke-width="4" paint-order="stroke">COMPANION</text>
</svg>
