<?xml version="1.0" encoding="UTF-8"?>
<svg xmlns="http://www.w3.org/2000/svg" width="640" height="360" viewBox="0 0 640 360" fill="none">
  <defs>
    <linearGradient id="sky" x1="0" y1="0" x2="0" y2="1">
      <stop offset="0%" stop-color="#2a1810"/>
      <stop offset="100%" stop-color="#120808"/>
    </linearGradient>
  </defs>
  <rect width="640" height="360" fill="url(#sky)"/>
  
  <rect x="80" y="60" width="480" height="240" fill="#3a2218" stroke="#0a0e14" stroke-width="6"/>
  <rect x="100" y="80" width="440" height="200" fill="#2a1810"/>
  <!-- columns -->
  <rect x="140" y="90" width="24" height="180" fill="#5a3a28" stroke="#0a0e14" stroke-width="2"/>
  <rect x="476" y="90" width="24" height="180" fill="#5a3a28" stroke="#0a0e14" stroke-width="2"/>
  <!-- hearth -->
  <rect x="260" y="200" width="120" height="60" fill="#1a1008" stroke="#c47a3d" stroke-width="3"/>
  <path d="M280 200 L320 150 L360 200Z" fill="#e85d4c"/>
  <path d="M300 200 L320 165 L340 200Z" fill="#f5d547"/>
  <!-- mural of three crowns -->
  <g stroke="#c4a35a" stroke-width="2" fill="none" opacity="0.7">
    <path d="M200 120 L210 100 L220 120 M210 100 L210 130"/>
    <path d="M310 115 L320 95 L330 115 M320 95 L320 125"/>
    <path d="M420 120 L430 100 L440 120 M430 100 L430 130"/>
  </g>
  <!-- bear bulk silhouette -->
  <ellipse cx="180" cy="250" rx="40" ry="25" fill="#3a2a20"/>
  <circle cx="150" cy="230" r="18" fill="#3a2a20"/>
  <!-- comic frame -->
  <rect x="8" y="8" width="624" height="344" fill="none" stroke="#0a0e14" stroke-width="10"/>
  <rect x="16" y="16" width="608" height="328" fill="none" stroke="#e8c96a" stroke-width="3"/>
  <rect x="12" y="12" width="14" height="14" fill="#e8c96a"/>
  <rect x="614" y="12" width="14" height="14" fill="#e8c96a"/>
  <rect x="12" y="334" width="14" height="14" fill="#5ecf9a"/>
  <rect x="614" y="334" width="14" height="14" fill="#5ecf9a"/>
  <text x="28" y="44" font-family="Impact, Arial Black, sans-serif" font-size="22"
    fill="#f4efe4" stroke="#0a0e14" stroke-width="4" paint-order="stroke">EMBER HOLD</text>
</svg>
