<?xml version="1.0" encoding="UTF-8"?>
<svg xmlns="http://www.w3.org/2000/svg" width="640" height="360" viewBox="0 0 640 360" fill="none">
  <defs>
    <linearGradient id="sky" x1="0" y1="0" x2="0" y2="1">
      <stop offset="0%" stop-color="#1a2a3a"/>
      <stop offset="100%" stop-color="#0d1520"/>
    </linearGradient>
  </defs>
  <rect width="640" height="360" fill="url(#sky)"/>
  
  <!-- snow hills -->
  <path d="M0 260 Q80 220 160 250 T320 240 T480 255 T640 230 L640 360 L0 360Z" fill="#2a3a48"/>
  <path d="M0 290 Q120 270 240 295 T480 280 T640 300 L640 360 L0 360Z" fill="#1e2c38"/>
  <!-- timber gate -->
  <rect x="250" y="120" width="28" height="160" fill="#5a3a22" stroke="#0a0e14" stroke-width="3"/>
  <rect x="362" y="120" width="28" height="160" fill="#5a3a22" stroke="#0a0e14" stroke-width="3"/>
  <rect x="250" y="120" width="140" height="24" fill="#6a4428" stroke="#0a0e14" stroke-width="3"/>
  <path d="M248 145 Q320 100 392 145" fill="none" stroke="#4a2e18" stroke-width="10"/>
  <circle cx="320" cy="200" r="18" fill="#1a1010" stroke="#c4a35a" stroke-width="3"/>
  <!-- pines -->
  <path d="M80 300 L110 160 L140 300Z" fill="#1a4030"/><path d="M95 300 L120 200 L145 300Z" fill="#24503c"/>
  <path d="M500 310 L540 150 L580 310Z" fill="#1a4030"/><path d="M520 310 L550 190 L580 310Z" fill="#24503c"/>
  <path d="M160 320 L185 210 L210 320Z" fill="#163828"/>
  <!-- party silhouettes -->
  <ellipse cx="180" cy="305" rx="14" ry="8" fill="#0a0e14" opacity="0.5"/>
  <path d="M170 305 L175 250 L185 250 L190 305Z" fill="#0a1018"/>
  <circle cx="180" cy="242" r="10" fill="#0a1018"/>
  <path d="M200 305 L205 255 L215 255 L220 305Z" fill="#121820"/>
  <circle cx="210" cy="247" r="9" fill="#121820"/>
  <path d="M230 305 L233 260 L242 260 L245 305Z" fill="#0e141c"/>
  <circle cx="238" cy="252" r="8" fill="#0e141c"/>
  <!-- hound -->
  <ellipse cx="155" cy="310" rx="16" ry="8" fill="#1a1210"/>
  <path d="M145 310 Q150 290 165 295 Q170 308 155 312Z" fill="#2a1a14"/>
  <!-- snow flakes -->
  <g fill="#e8eef2" opacity="0.55">
    <circle cx="60" cy="80" r="2"/><circle cx="200" cy="50" r="1.5"/><circle cx="400" cy="90" r="2"/>
    <circle cx="520" cy="40" r="1.5"/><circle cx="300" cy="70" r="1"/><circle cx="100" cy="120" r="1.5"/>
  </g>
  <!-- comic frame -->
  <rect x="8" y="8" width="624" height="344" fill="none" stroke="#0a0e14" stroke-width="10"/>
  <rect x="16" y="16" width="608" height="328" fill="none" stroke="#e8c96a" stroke-width="3"/>
  <rect x="12" y="12" width="14" height="14" fill="#e8c96a"/>
  <rect x="614" y="12" width="14" height="14" fill="#e8c96a"/>
  <rect x="12" y="334" width="14" height="14" fill="#5ecf9a"/>
  <rect x="614" y="334" width="14" height="14" fill="#5ecf9a"/>
  <text x="28" y="44" font-family="Impact, Arial Black, sans-serif" font-size="22"
    fill="#f4efe4" stroke="#0a0e14" stroke-width="4" paint-order="stroke">FROSTFORD</text>
</svg>
