<?xml version="1.0" encoding="UTF-8"?>
<svg xmlns="http://www.w3.org/2000/svg" width="640" height="360" viewBox="0 0 640 360" fill="none">
  <defs>
    <linearGradient id="sky" x1="0" y1="0" x2="0" y2="1">
      <stop offset="0%" stop-color="#2a1810"/>
      <stop offset="100%" stop-color="#120c08"/>
    </linearGradient>
  </defs>
  <rect width="640" height="360" fill="url(#sky)"/>
  
  <path d="M0 280 Q160 250 320 275 T640 260 L640 360 L0 360Z" fill="#3a2818"/>
  <path d="M0 300 L640 290 L640 360 L0 360Z" fill="#2a1c10"/>
  <!-- cart ruts -->
  <path d="M0 310 Q200 300 400 315 T640 305" fill="none" stroke="#1a1008" stroke-width="6" opacity="0.5"/>
  <path d="M0 325 Q220 315 420 330 T640 320" fill="none" stroke="#1a1008" stroke-width="5" opacity="0.4"/>
  <!-- campfire -->
  <ellipse cx="320" cy="300" rx="40" ry="12" fill="#0a0e14" opacity="0.4"/>
  <path d="M300 295 L320 240 L340 295Z" fill="#e85d4c"/>
  <path d="M310 295 L320 255 L330 295Z" fill="#f5d547"/>
  <circle cx="320" cy="250" r="8" fill="#f5d547" opacity="0.8"/>
  <!-- tents / sticks -->
  <path d="M120 300 L160 220 L200 300Z" fill="#4a3020" stroke="#0a0e14" stroke-width="2"/>
  <path d="M440 300 L490 210 L540 300Z" fill="#3a2818" stroke="#0a0e14" stroke-width="2"/>
  <!-- goblin silhouettes -->
  <g fill="#2a4a28">
    <ellipse cx="260" cy="295" rx="12" ry="6"/><path d="M252 295 L255 260 L268 260 L270 295Z"/><circle cx="261" cy="252" r="9"/>
    <path d="M252 248 L248 235"/><path d="M270 248 L275 232"/>
    <ellipse cx="380" cy="298" rx="11" ry="5"/><path d="M372 298 L376 265 L386 265 L388 298Z"/><circle cx="381" cy="258" r="8"/>
  </g>
  <!-- moon -->
  <circle cx="540" cy="70" r="28" fill="#e8eef2" opacity="0.25"/>
  <circle cx="548" cy="65" r="28" fill="#2a1810"/>
  <!-- comic frame -->
  <rect x="8" y="8" width="624" height="344" fill="none" stroke="#0a0e14" stroke-width="10"/>
  <rect x="16" y="16" width="608" height="328" fill="none" stroke="#e8c96a" stroke-width="3"/>
  <rect x="12" y="12" width="14" height="14" fill="#e8c96a"/>
  <rect x="614" y="12" width="14" height="14" fill="#e8c96a"/>
  <rect x="12" y="334" width="14" height="14" fill="#5ecf9a"/>
  <rect x="614" y="334" width="14" height="14" fill="#5ecf9a"/>
  <text x="28" y="44" font-family="Impact, Arial Black, sans-serif" font-size="22"
    fill="#f4efe4" stroke="#0a0e14" stroke-width="4" paint-order="stroke">GOBLIN ROAD</text>
</svg>
