<?xml version="1.0" encoding="UTF-8"?>
<svg xmlns="http://www.w3.org/2000/svg" width="640" height="360" viewBox="0 0 640 360" fill="none">
  <defs>
    <linearGradient id="sky" x1="0" y1="0" x2="0" y2="1">
      <stop offset="0%" stop-color="#1a2430"/>
      <stop offset="100%" stop-color="#0e1620"/>
    </linearGradient>
  </defs>
  <rect width="640" height="360" fill="url(#sky)"/>
  
  <path d="M0 280 L640 280 L640 360 L0 360Z" fill="#2a3038"/>
  <!-- plaza stones -->
  <rect x="160" y="200" width="320" height="100" fill="#3a4450" stroke="#c4a35a" stroke-width="3"/>
  <!-- throne hearth -->
  <rect x="280" y="160" width="80" height="100" fill="#4a3a30" stroke="#0a0e14" stroke-width="3"/>
  <path d="M290 160 L320 120 L350 160Z" fill="#e85d4c"/>
  <path d="M305 160 L320 135 L335 160Z" fill="#f5d547"/>
  <!-- banners -->
  <rect x="180" y="140" width="16" height="80" fill="#5a3a22"/>
  <path d="M196 140 L230 160 L196 180Z" fill="#c47a3d"/>
  <rect x="444" y="140" width="16" height="80" fill="#5a3a22"/>
  <path d="M444 140 L410 160 L444 180Z" fill="#c47a3d"/>
  <!-- crowd dots -->
  <g fill="#0a1018"><circle cx="200" cy="290" r="4"/><circle cx="220" cy="295" r="4"/><circle cx="420" cy="290" r="4"/><circle cx="440" cy="295" r="4"/></g>
  <!-- comic frame -->
  <rect x="8" y="8" width="624" height="344" fill="none" stroke="#0a0e14" stroke-width="10"/>
  <rect x="16" y="16" width="608" height="328" fill="none" stroke="#e8c96a" stroke-width="3"/>
  <rect x="12" y="12" width="14" height="14" fill="#e8c96a"/>
  <rect x="614" y="12" width="14" height="14" fill="#e8c96a"/>
  <rect x="12" y="334" width="14" height="14" fill="#5ecf9a"/>
  <rect x="614" y="334" width="14" height="14" fill="#5ecf9a"/>
  <text x="28" y="44" font-family="Impact, Arial Black, sans-serif" font-size="22"
    fill="#f4efe4" stroke="#0a0e14" stroke-width="4" paint-order="stroke">HEARTH CROWN</text>
</svg>
