<?xml version="1.0" encoding="UTF-8"?>
<svg xmlns="http://www.w3.org/2000/svg" width="640" height="360" viewBox="0 0 640 360" fill="none">
  <defs>
    <pattern id="ht" width="8" height="8" patternUnits="userSpaceOnUse">
      <circle cx="2" cy="2" r="1.1" fill="#2ec4d4" fill-opacity="0.18"/>
    </pattern>
    <radialGradient id="g" cx="50%" cy="40%" r="60%">
      <stop offset="0%" stop-color="#2ec4d4" stop-opacity="0.35"/>
      <stop offset="100%" stop-color="#1a2836" stop-opacity="0"/>
    </radialGradient>
    <radialGradient id="burst" cx="50%" cy="45%" r="55%">
      <stop offset="0%" stop-color="#f5d547" stop-opacity="0.4"/>
      <stop offset="45%" stop-color="#2ec4d4" stop-opacity="0.14"/>
      <stop offset="100%" stop-color="#0d1520" stop-opacity="0"/>
    </radialGradient>
  </defs>
  <rect width="640" height="360" fill="#1a2836"/>
  <rect width="640" height="360" fill="url(#ht)"/>
  <rect width="640" height="360" fill="url(#g)"/>
  <rect width="640" height="360" fill="url(#burst)"/>
  <g stroke="#f5d547" stroke-width="2" opacity="0.28">
    <line x1="320" y1="180" x2="40" y2="40"/>
    <line x1="320" y1="180" x2="120" y2="20"/>
    <line x1="320" y1="180" x2="520" y2="30"/>
    <line x1="320" y1="180" x2="600" y2="60"/>
    <line x1="320" y1="180" x2="40" y2="300"/>
    <line x1="320" y1="180" x2="600" y2="310"/>
  </g>
  <rect x="10" y="10" width="620" height="340" fill="none" stroke="#0a0e14" stroke-width="8"/>
  <rect x="18" y="18" width="604" height="324" fill="none" stroke="#f5d547" stroke-width="3"/>
  <rect x="24" y="24" width="592" height="312" fill="none" stroke="#2ec4d4" stroke-width="1.5" opacity="0.7"/>
  <rect x="14" y="14" width="16" height="16" fill="#f5d547" stroke="#0a0e14" stroke-width="2"/>
  <rect x="610" y="14" width="16" height="16" fill="#f5d547" stroke="#0a0e14" stroke-width="2"/>
  <rect x="14" y="330" width="16" height="16" fill="#2ec4d4" stroke="#0a0e14" stroke-width="2"/>
  <rect x="610" y="330" width="16" height="16" fill="#2ec4d4" stroke="#0a0e14" stroke-width="2"/>
</svg>
