<?xml version="1.0" encoding="UTF-8"?>
<svg xmlns="http://www.w3.org/2000/svg" width="640" height="360" viewBox="0 0 640 360" fill="none">
  <defs>
    <linearGradient id="sky" x1="0" y1="0" x2="0" y2="1">
      <stop offset="0%" stop-color="#122418"/>
      <stop offset="100%" stop-color="#0a1410"/>
    </linearGradient>
  </defs>
  <rect width="640" height="360" fill="url(#sky)"/>
  
  <ellipse cx="320" cy="300" rx="280" ry="50" fill="#1a3326" opacity="0.8"/>
  <!-- dense pines -->
  <g fill="#0f2818">
    <path d="M40 320 L90 80 L140 320Z"/><path d="M120 330 L180 60 L240 330Z"/>
    <path d="M220 320 L290 40 L360 320Z"/><path d="M340 330 L410 70 L480 330Z"/>
    <path d="M460 320 L530 90 L600 320Z"/>
  </g>
  <g fill="#1a4030">
    <path d="M70 330 L120 140 L170 330Z"/><path d="M280 330 L340 100 L400 330Z"/>
    <path d="M480 330 L540 130 L600 330Z"/>
  </g>
  <!-- light shaft -->
  <path d="M300 0 L360 0 L320 320 L260 320Z" fill="#c8e6c0" opacity="0.08"/>
  <!-- fox Pip -->
  <ellipse cx="320" cy="290" rx="28" ry="12" fill="#0a0e14" opacity="0.35"/>
  <ellipse cx="320" cy="275" rx="26" ry="16" fill="#c47a3d"/>
  <ellipse cx="320" cy="268" rx="18" ry="12" fill="#e8a05a"/>
  <path d="M300 255 L295 230 L312 250Z" fill="#c47a3d"/>
  <path d="M340 255 L345 230 L328 250Z" fill="#c47a3d"/>
  <circle cx="312" cy="265" r="3" fill="#0a0e14"/>
  <circle cx="328" cy="265" r="3" fill="#0a0e14"/>
  <path d="M345 275 Q380 250 370 290 Q350 285 345 275Z" fill="#c47a3d"/>
  <ellipse cx="355" cy="255" rx="8" ry="5" fill="#e8d4a8" opacity="0.7"/>
  <!-- crumbs -->
  <circle cx="290" cy="295" r="2" fill="#e8d4a8"/><circle cx="298" cy="298" r="1.5" fill="#e8d4a8"/>
  <!-- comic frame -->
  <rect x="8" y="8" width="624" height="344" fill="none" stroke="#0a0e14" stroke-width="10"/>
  <rect x="16" y="16" width="608" height="328" fill="none" stroke="#e8c96a" stroke-width="3"/>
  <rect x="12" y="12" width="14" height="14" fill="#e8c96a"/>
  <rect x="614" y="12" width="14" height="14" fill="#e8c96a"/>
  <rect x="12" y="334" width="14" height="14" fill="#5ecf9a"/>
  <rect x="614" y="334" width="14" height="14" fill="#5ecf9a"/>
  <text x="28" y="44" font-family="Impact, Arial Black, sans-serif" font-size="22"
    fill="#f4efe4" stroke="#0a0e14" stroke-width="4" paint-order="stroke">PINE HOLLOW</text>
</svg>
