<?xml version="1.0" encoding="UTF-8"?>
<svg xmlns="http://www.w3.org/2000/svg" width="640" height="360" viewBox="0 0 640 360" fill="none">
  <defs>
    <linearGradient id="sky" x1="0" y1="0" x2="0" y2="1">
      <stop offset="0%" stop-color="#1a2030"/>
      <stop offset="100%" stop-color="#0a1018"/>
    </linearGradient>
  </defs>
  <rect width="640" height="360" fill="url(#sky)"/>
  
  <path d="M0 300 L640 290 L640 360 L0 360Z" fill="#2a3038"/>
  <!-- tower -->
  <rect x="280" y="80" width="80" height="220" fill="#3a4048" stroke="#0a0e14" stroke-width="4"/>
  <path d="M270 80 L320 40 L370 80Z" fill="#4a5058" stroke="#0a0e14" stroke-width="3"/>
  <rect x="300" y="140" width="20" height="30" fill="#0a1018"/>
  <rect x="320" y="200" width="20" height="30" fill="#0a1018"/>
  <!-- raven -->
  <ellipse cx="400" cy="100" rx="30" ry="12" fill="#1a1018"/>
  <path d="M420 100 L460 85 L455 105 L430 108Z" fill="#0a0e14"/>
  <circle cx="385" cy="96" r="8" fill="#1a1018"/>
  <path d="M378 96 L365 94" stroke="#c47a3d" stroke-width="3"/>
  <circle cx="382" cy="94" r="2" fill="#f5d547"/>
  <!-- perch beam -->
  <rect x="360" y="108" width="80" height="6" fill="#5a3a22"/>
  <!-- comic frame -->
  <rect x="8" y="8" width="624" height="344" fill="none" stroke="#0a0e14" stroke-width="10"/>
  <rect x="16" y="16" width="608" height="328" fill="none" stroke="#e8c96a" stroke-width="3"/>
  <rect x="12" y="12" width="14" height="14" fill="#e8c96a"/>
  <rect x="614" y="12" width="14" height="14" fill="#e8c96a"/>
  <rect x="12" y="334" width="14" height="14" fill="#5ecf9a"/>
  <rect x="614" y="334" width="14" height="14" fill="#5ecf9a"/>
  <text x="28" y="44" font-family="Impact, Arial Black, sans-serif" font-size="22"
    fill="#f4efe4" stroke="#0a0e14" stroke-width="4" paint-order="stroke">RAVEN TOWER</text>
</svg>
