<?xml version="1.0" encoding="UTF-8"?>
<svg xmlns="http://www.w3.org/2000/svg" width="640" height="360" viewBox="0 0 640 360" fill="none">
  <defs>
    <linearGradient id="sky" x1="0" y1="0" x2="0" y2="1">
      <stop offset="0%" stop-color="#1a3020"/>
      <stop offset="100%" stop-color="#0c1810"/>
    </linearGradient>
  </defs>
  <rect width="640" height="360" fill="url(#sky)"/>
  
  <ellipse cx="320" cy="300" rx="260" ry="40" fill="#2a4a34"/>
  <g fill="#163828">
    <path d="M40 300 L80 120 L120 300Z"/><path d="M520 300 L570 100 L620 300Z"/>
    <path d="M140 310 L180 160 L220 310Z"/><path d="M420 310 L460 150 L500 310Z"/>
  </g>
  <!-- stag -->
  <ellipse cx="320" cy="260" rx="40" ry="22" fill="#8a6a40"/>
  <circle cx="360" cy="240" r="16" fill="#8a6a40"/>
  <path d="M355 225 L340 180 L350 225"/><path d="M365 225 L380 175 L370 225"/>
  <path d="M340 185 L325 170 M340 185 L345 160"/><path d="M380 180 L395 165 M380 180 L385 155"/>
  <circle cx="365" cy="238" r="2.5" fill="#0a0e14"/>
  <path d="M280 270 L270 300 M300 275 L295 305 M340 275 L345 305 M360 270 L370 300" stroke="#6a4a28" stroke-width="5"/>
  <!-- sunbeams -->
  <path d="M200 0 L240 0 L200 300 L140 300Z" fill="#e8d4a8" opacity="0.07"/>
  <!-- comic frame -->
  <rect x="8" y="8" width="624" height="344" fill="none" stroke="#0a0e14" stroke-width="10"/>
  <rect x="16" y="16" width="608" height="328" fill="none" stroke="#e8c96a" stroke-width="3"/>
  <rect x="12" y="12" width="14" height="14" fill="#e8c96a"/>
  <rect x="614" y="12" width="14" height="14" fill="#e8c96a"/>
  <rect x="12" y="334" width="14" height="14" fill="#5ecf9a"/>
  <rect x="614" y="334" width="14" height="14" fill="#5ecf9a"/>
  <text x="28" y="44" font-family="Impact, Arial Black, sans-serif" font-size="22"
    fill="#f4efe4" stroke="#0a0e14" stroke-width="4" paint-order="stroke">STAG GLADE</text>
</svg>
