<?xml version="1.0" encoding="UTF-8"?>
<svg xmlns="http://www.w3.org/2000/svg" width="640" height="360" viewBox="0 0 640 360" fill="none">
  <defs>
    <linearGradient id="sky" x1="0" y1="0" x2="0" y2="1">
      <stop offset="0%" stop-color="#0c1a14"/>
      <stop offset="100%" stop-color="#06100c"/>
    </linearGradient>
  </defs>
  <rect width="640" height="360" fill="url(#sky)"/>
  
  <path d="M0 260 Q320 200 640 260 L640 360 L0 360Z" fill="#1a4030"/>
  <g fill="#0f2818">
    <path d="M40 280 L100 80 L160 280Z"/><path d="M200 280 L280 40 L360 280Z"/>
    <path d="M400 280 L480 60 L560 280Z"/>
  </g>
  <!-- living antler crown -->
  <path d="M280 180 Q320 120 360 180" fill="none" stroke="#5ecf9a" stroke-width="8"/>
  <path d="M290 160 L270 100 M310 140 L300 80 M330 140 L340 80 M350 160 L370 100" stroke="#3d9a7a" stroke-width="4"/>
  <ellipse cx="320" cy="200" rx="40" ry="14" fill="#2a5a40"/>
  <!-- howling wolves -->
  <g fill="#2a3038" opacity="0.7">
    <ellipse cx="160" cy="300" rx="30" ry="12"/><ellipse cx="480" cy="300" rx="30" ry="12"/>
  </g>
  <!-- comic frame -->
  <rect x="8" y="8" width="624" height="344" fill="none" stroke="#0a0e14" stroke-width="10"/>
  <rect x="16" y="16" width="608" height="328" fill="none" stroke="#e8c96a" stroke-width="3"/>
  <rect x="12" y="12" width="14" height="14" fill="#e8c96a"/>
  <rect x="614" y="12" width="14" height="14" fill="#e8c96a"/>
  <rect x="12" y="334" width="14" height="14" fill="#5ecf9a"/>
  <rect x="614" y="334" width="14" height="14" fill="#5ecf9a"/>
  <text x="28" y="44" font-family="Impact, Arial Black, sans-serif" font-size="22"
    fill="#f4efe4" stroke="#0a0e14" stroke-width="4" paint-order="stroke">WILD CROWN</text>
</svg>
