<?xml version="1.0" encoding="UTF-8"?>
<svg xmlns="http://www.w3.org/2000/svg" width="640" height="360" viewBox="0 0 640 360" fill="none">
  <defs>
    <linearGradient id="sky" x1="0" y1="0" x2="0" y2="1">
      <stop offset="0%" stop-color="#101828"/>
      <stop offset="100%" stop-color="#080c14"/>
    </linearGradient>
  </defs>
  <rect width="640" height="360" fill="url(#sky)"/>
  
  <path d="M0 200 L120 120 L240 180 L360 90 L480 160 L640 100 L640 360 L0 360Z" fill="#1a2430"/>
  <path d="M0 260 L200 220 L400 250 L640 210 L640 360 L0 360Z" fill="#121c28"/>
  <circle cx="500" cy="70" r="32" fill="#e8eef2" opacity="0.2"/>
  <!-- wolf pack -->
  <g fill="#2a3038">
    <ellipse cx="280" cy="250" rx="35" ry="16"/><circle cx="250" cy="240" r="14"/><path d="M240 232 L230 215"/><path d="M255 230 L260 212"/>
    <ellipse cx="360" cy="260" rx="28" ry="12"/><circle cx="335" cy="252" r="11"/>
    <ellipse cx="200" cy="265" rx="22" ry="10"/><circle cx="182" cy="258" r="9"/>
  </g>
  <g fill="#f5d547" opacity="0.8"><circle cx="245" cy="238" r="2"/><circle cx="330" cy="250" r="2"/></g>
  <!-- comic frame -->
  <rect x="8" y="8" width="624" height="344" fill="none" stroke="#0a0e14" stroke-width="10"/>
  <rect x="16" y="16" width="608" height="328" fill="none" stroke="#e8c96a" stroke-width="3"/>
  <rect x="12" y="12" width="14" height="14" fill="#e8c96a"/>
  <rect x="614" y="12" width="14" height="14" fill="#e8c96a"/>
  <rect x="12" y="334" width="14" height="14" fill="#5ecf9a"/>
  <rect x="614" y="334" width="14" height="14" fill="#5ecf9a"/>
  <text x="28" y="44" font-family="Impact, Arial Black, sans-serif" font-size="22"
    fill="#f4efe4" stroke="#0a0e14" stroke-width="4" paint-order="stroke">WOLF RIDGE</text>
</svg>
