<?xml version="1.0" encoding="UTF-8"?>
<svg xmlns="http://www.w3.org/2000/svg" width="640" height="360" viewBox="0 0 640 360" fill="none">
  <defs>
    <linearGradient id="sky" x1="0" y1="0" x2="0" y2="1">
      <stop offset="0%" stop-color="#100818"/>
      <stop offset="100%" stop-color="#06040a"/>
    </linearGradient>
  </defs>
  <rect width="640" height="360" fill="url(#sky)"/>
  
  <!-- massive gate maw -->
  <ellipse cx="320" cy="200" rx="160" ry="140" fill="#1a0810" stroke="#e85d4c" stroke-width="6"/>
  <ellipse cx="320" cy="200" rx="110" ry="100" fill="#0a0408"/>
  <path d="M220 200 Q320 120 420 200 Q320 280 220 200" fill="#12060c"/>
  <!-- teeth -->
  <g fill="#e8eef2" opacity="0.7">
    <path d="M240 140 L250 170 L260 140Z"/><path d="M300 120 L310 155 L320 120Z"/>
    <path d="M360 125 L370 158 L380 125Z"/><path d="M250 260 L260 230 L270 260Z"/>
    <path d="M350 265 L360 235 L370 265Z"/>
  </g>
  <!-- party tiny before it -->
  <g fill="#f4efe4">
    <path d="M300 320 L303 300 L310 300 L313 320Z"/><circle cx="306" cy="295" r="5"/>
    <path d="M320 320 L323 302 L329 302 L332 320Z"/><circle cx="326" cy="297" r="5"/>
    <path d="M340 320 L342 304 L348 304 L350 320Z"/><circle cx="345" cy="299" r="4"/>
  </g>
  <!-- comic frame -->
  <rect x="8" y="8" width="624" height="344" fill="none" stroke="#0a0e14" stroke-width="10"/>
  <rect x="16" y="16" width="608" height="328" fill="none" stroke="#e8c96a" stroke-width="3"/>
  <rect x="12" y="12" width="14" height="14" fill="#e8c96a"/>
  <rect x="614" y="12" width="14" height="14" fill="#e8c96a"/>
  <rect x="12" y="334" width="14" height="14" fill="#5ecf9a"/>
  <rect x="614" y="334" width="14" height="14" fill="#5ecf9a"/>
  <text x="28" y="44" font-family="Impact, Arial Black, sans-serif" font-size="22"
    fill="#f4efe4" stroke="#0a0e14" stroke-width="4" paint-order="stroke">WORLD-EATER</text>
</svg>
