<?xml version="1.0" encoding="UTF-8"?>
<svg xmlns="http://www.w3.org/2000/svg" width="640" height="360" viewBox="0 0 640 360" fill="none">
  <defs>
    <linearGradient id="bg-ash" x1="0" y1="0" x2="0" y2="1">
      <stop offset="0%" stop-color="#4a3a3a"/>
      <stop offset="100%" stop-color="#1a1010"/>
    </linearGradient>
  </defs>
  <rect width="640" height="360" fill="url(#bg-ash)"/>
  <circle cx="480" cy="70" r="40" fill="#e8c4a0" opacity="0.25"/><path d="M0 200 Q160 180 320 210 T640 190" fill="none" stroke="#8a7a70" stroke-width="3" opacity="0.4"/><path d="M120 280 L160 160 L200 280Z" fill="#4a4040" opacity="0.7"/><path d="M440 280 L490 150 L540 280Z" fill="#4a4040" opacity="0.7"/>
  <path d="M0 270 Q160 240 320 265 T640 250 L640 360 L0 360Z" fill="#5a4a40"/>
  <path d="M0 300 L640 290 L640 360 L0 360Z" fill="#2a1c10" opacity="0.85"/>
  <path d="M0 315 Q200 305 400 320 T640 310" fill="none" stroke="#1a1008" stroke-width="5" opacity="0.45"/>
  
  <rect x="8" y="8" width="624" height="344" fill="none" stroke="#1a120c" stroke-width="10"/>
  <rect x="16" y="16" width="608" height="328" fill="none" stroke="#c4a35a" stroke-width="3"/>
  <rect x="12" y="12" width="14" height="14" fill="#c4a35a"/>
  <rect x="614" y="12" width="14" height="14" fill="#c4a35a"/>
  <rect x="12" y="334" width="14" height="14" fill="#8b3a2a"/>
  <rect x="614" y="334" width="14" height="14" fill="#8b3a2a"/>
  <text x="28" y="44" font-family="Impact, Arial Black, sans-serif" font-size="20"
    fill="#f4efe4" stroke="#1a120c" stroke-width="4" paint-order="stroke">ASH PASS</text>
</svg>
