<?xml version="1.0" encoding="UTF-8"?>
<svg xmlns="http://www.w3.org/2000/svg" width="640" height="360" viewBox="0 0 640 360" fill="none">
  <defs>
    <linearGradient id="bg-citadel" x1="0" y1="0" x2="0" y2="1">
      <stop offset="0%" stop-color="#2a1820"/>
      <stop offset="100%" stop-color="#0c080c"/>
    </linearGradient>
  </defs>
  <rect width="640" height="360" fill="url(#bg-citadel)"/>
  <rect x="180" y="100" width="280" height="180" fill="#3a2a30" stroke="#1a120c" stroke-width="4"/><path d="M180 100 L240 50 L400 50 L460 100Z" fill="#4a3840"/><rect x="300" y="200" width="40" height="80" fill="#0a0808"/><path d="M200 160 H280 M360 160 H440" stroke="#8a8a8a" stroke-width="4"/><circle cx="100" cy="60" r="18" fill="#e85d4c" opacity="0.3"/>
  <path d="M0 270 Q160 240 320 265 T640 250 L640 360 L0 360Z" fill="#3a2828"/>
  <path d="M0 300 L640 290 L640 360 L0 360Z" fill="#2a1c10" opacity="0.85"/>
  <path d="M0 315 Q200 305 400 320 T640 310" fill="none" stroke="#1a1008" stroke-width="5" opacity="0.45"/>
  
  <rect x="8" y="8" width="624" height="344" fill="none" stroke="#1a120c" stroke-width="10"/>
  <rect x="16" y="16" width="608" height="328" fill="none" stroke="#c4a35a" stroke-width="3"/>
  <rect x="12" y="12" width="14" height="14" fill="#c4a35a"/>
  <rect x="614" y="12" width="14" height="14" fill="#c4a35a"/>
  <rect x="12" y="334" width="14" height="14" fill="#8b3a2a"/>
  <rect x="614" y="334" width="14" height="14" fill="#8b3a2a"/>
  <text x="28" y="44" font-family="Impact, Arial Black, sans-serif" font-size="20"
    fill="#f4efe4" stroke="#1a120c" stroke-width="4" paint-order="stroke">CHAIN CITADEL</text>
</svg>
