<?xml version="1.0" encoding="UTF-8"?>
<svg xmlns="http://www.w3.org/2000/svg" width="640" height="360" viewBox="0 0 640 360" fill="none">
  <defs>
    <linearGradient id="bg-moon" x1="0" y1="0" x2="0" y2="1">
      <stop offset="0%" stop-color="#1a2030"/>
      <stop offset="100%" stop-color="#080c14"/>
    </linearGradient>
  </defs>
  <rect width="640" height="360" fill="url(#bg-moon)"/>
  <circle cx="520" cy="70" r="40" fill="#e8eef2" opacity="0.35"/><path d="M0 220 Q200 160 400 200 T640 170 L640 280 L0 280Z" fill="#3a3848" opacity="0.6"/><g fill="#2a4a40" opacity="0.8"><ellipse cx="200" cy="290" rx="14" ry="6"/><circle cx="200" cy="270" r="10"/><ellipse cx="260" cy="292" rx="12" ry="5"/><circle cx="260" cy="275" r="8"/></g>
  <path d="M0 270 Q160 240 320 265 T640 250 L640 360 L0 360Z" fill="#2a2830"/>
  <path d="M0 300 L640 290 L640 360 L0 360Z" fill="#2a1c10" opacity="0.85"/>
  <path d="M0 315 Q200 305 400 320 T640 310" fill="none" stroke="#1a1008" stroke-width="5" opacity="0.45"/>
  
  <rect x="8" y="8" width="624" height="344" fill="none" stroke="#1a120c" stroke-width="10"/>
  <rect x="16" y="16" width="608" height="328" fill="none" stroke="#c4a35a" stroke-width="3"/>
  <rect x="12" y="12" width="14" height="14" fill="#c4a35a"/>
  <rect x="614" y="12" width="14" height="14" fill="#c4a35a"/>
  <rect x="12" y="334" width="14" height="14" fill="#8b3a2a"/>
  <rect x="614" y="334" width="14" height="14" fill="#8b3a2a"/>
  <text x="28" y="44" font-family="Impact, Arial Black, sans-serif" font-size="20"
    fill="#f4efe4" stroke="#1a120c" stroke-width="4" paint-order="stroke">MOONLIT RIDGE</text>
</svg>
