<?xml version="1.0" encoding="UTF-8"?>
<svg xmlns="http://www.w3.org/2000/svg" width="640" height="360" viewBox="0 0 640 360" fill="none">
  <defs>
    <linearGradient id="bg-orc" x1="0" y1="0" x2="0" y2="1">
      <stop offset="0%" stop-color="#3a1810"/>
      <stop offset="100%" stop-color="#120808"/>
    </linearGradient>
  </defs>
  <rect width="640" height="360" fill="url(#bg-orc)"/>
  <path d="M100 290 L150 200 L200 290Z" fill="#4a3020"/><path d="M420 290 L480 190 L540 290Z" fill="#3a2818"/><path d="M300 285 L320 235 L340 285Z" fill="#e85d4c"/><circle cx="500" cy="80" r="24" fill="#e8eef2" opacity="0.2"/><g fill="#2a4a28"><ellipse cx="250" cy="295" rx="10" ry="5"/><circle cx="250" cy="270" r="8"/><ellipse cx="370" cy="295" rx="10" ry="5"/><circle cx="370" cy="270" r="8"/></g>
  <path d="M0 270 Q160 240 320 265 T640 250 L640 360 L0 360Z" fill="#3a2818"/>
  <path d="M0 300 L640 290 L640 360 L0 360Z" fill="#2a1c10" opacity="0.85"/>
  <path d="M0 315 Q200 305 400 320 T640 310" fill="none" stroke="#1a1008" stroke-width="5" opacity="0.45"/>
  
  <rect x="8" y="8" width="624" height="344" fill="none" stroke="#1a120c" stroke-width="10"/>
  <rect x="16" y="16" width="608" height="328" fill="none" stroke="#c4a35a" stroke-width="3"/>
  <rect x="12" y="12" width="14" height="14" fill="#c4a35a"/>
  <rect x="614" y="12" width="14" height="14" fill="#c4a35a"/>
  <rect x="12" y="334" width="14" height="14" fill="#8b3a2a"/>
  <rect x="614" y="334" width="14" height="14" fill="#8b3a2a"/>
  <text x="28" y="44" font-family="Impact, Arial Black, sans-serif" font-size="20"
    fill="#f4efe4" stroke="#1a120c" stroke-width="4" paint-order="stroke">ORC WARCAMP</text>
</svg>
