<?xml version="1.0" encoding="UTF-8"?>
<svg xmlns="http://www.w3.org/2000/svg" width="240" height="280" viewBox="0 0 240 280" fill="none">
  <defs>
    <linearGradient id="bg" x1="0" y1="0" x2="0" y2="1">
      <stop offset="0%" stop-color="#1a1814"/>
      <stop offset="100%" stop-color="#0a1010"/>
    </linearGradient>
  </defs>
  <rect width="240" height="280" fill="url(#bg)"/>
  <ellipse cx="120" cy="232" rx="68" ry="16" fill="#0a1410" opacity="0.45"/>

  <path d="M80 125 L120 95 L160 125 L155 200 L85 200Z" fill="#6a5040" stroke="#0a0e14" stroke-width="3"/>
  <path d="M95 135 L120 110 L145 135 L140 175 L100 175Z" fill="#8a6a50"/>
  <circle cx="120" cy="80" r="28" fill="#c49060" stroke="#0a0e14" stroke-width="3"/>
  <path d="M92 72 Q120 48 148 72 L145 88 Q120 80 95 88Z" fill="#3a3028" stroke="#0a0e14" stroke-width="2"/>
  <circle cx="110" cy="80" r="3.5" fill="#0a0e14"/>
  <circle cx="130" cy="80" r="3.5" fill="#0a0e14"/>
  <path d="M108 92 Q120 100 132 92" stroke="#0a0e14" stroke-width="2" fill="none"/>
  <!-- axe -->
  <rect x="172" y="90" width="8" height="100" fill="#5a3a20" stroke="#0a0e14" stroke-width="2"/>
  <path d="M160 95 L200 85 L200 120 L160 115Z" fill="#8a9aaa" stroke="#0a0e14" stroke-width="2"/>
  <!-- shoulder pauldron glow -->
  <circle cx="88" cy="130" r="12" fill="#e85d4c" opacity="0.7" stroke="#0a0e14" stroke-width="2"/>

  <rect x="8" y="8" width="224" height="264" fill="none" stroke="#0a0e14" stroke-width="8"/>
  <rect x="14" y="14" width="212" height="252" fill="none" stroke="#f5d547" stroke-width="3"/>
  <text x="120" y="258" text-anchor="middle" font-family="Impact, Arial Black, sans-serif" font-size="15"
    fill="#f4efe4" stroke="#0a0e14" stroke-width="3" paint-order="stroke">WARLORD</text>
</svg>
