<svg xmlns="http://www.w3.org/2000/svg" width="256" height="256" viewBox="0 0 256 256" fill="none">
  <defs>
    <radialGradient id="body" cx="0.45" cy="0.4" r="0.7">
      <stop stop-color="#8a5a38"/>
      <stop offset="1" stop-color="#3a2418"/>
    </radialGradient>
    <radialGradient id="ember" cx="0.5" cy="0.5" r="0.5">
      <stop stop-color="#ffcc66"/>
      <stop offset="1" stop-color="#ff5522" stop-opacity="0"/>
    </radialGradient>
  </defs>
  <ellipse cx="128" cy="228" rx="58" ry="12" fill="#000" opacity="0.25"/>
  <ellipse cx="70" cy="170" rx="22" ry="14" fill="#4a2c1c" stroke="#1a100c" stroke-width="2"/>
  <ellipse cx="190" cy="175" rx="24" ry="14" fill="#4a2c1c" stroke="#1a100c" stroke-width="2"/>
  <ellipse cx="128" cy="168" rx="62" ry="40" fill="url(#body)" stroke="#1a100c" stroke-width="3"/>
  <ellipse cx="168" cy="120" rx="42" ry="36" fill="url(#body)" stroke="#1a100c" stroke-width="3"/>
  <path d="M150 86 L142 54 L162 74 Z" fill="#5a3420" stroke="#1a100c" stroke-width="2"/>
  <path d="M178 84 L196 48 L198 80 Z" fill="#5a3420" stroke="#1a100c" stroke-width="2"/>
  <ellipse cx="158" cy="118" rx="5" ry="6" fill="#ffcc66"/>
  <ellipse cx="180" cy="118" rx="5" ry="6" fill="#ffcc66"/>
  <circle cx="158" cy="118" r="2" fill="#1a100c"/>
  <circle cx="180" cy="118" r="2" fill="#1a100c"/>
  <path d="M198 128 Q214 132 220 124" stroke="#2a1810" stroke-width="3" fill="none"/>
  <ellipse cx="206" cy="136" rx="10" ry="6" fill="#ff8844" opacity="0.85"/>
  <path d="M70 160 Q40 120 56 96" fill="none" stroke="#6a3c24" stroke-width="10" stroke-linecap="round"/>
  <circle cx="56" cy="96" r="16" fill="url(#ember)" opacity="0.9"/>
  <path d="M96 188 Q110 210 100 230" fill="none" stroke="#5a3420" stroke-width="8" stroke-linecap="round"/>
  <path d="M150 192 Q168 214 162 232" fill="none" stroke="#5a3420" stroke-width="8" stroke-linecap="round"/>
</svg>
