<svg xmlns="http://www.w3.org/2000/svg" width="300" height="320" viewBox="0 0 300 320" fill="none">
  <defs>
    <linearGradient id="ash" x1="60" y1="50" x2="240" y2="280" gradientUnits="userSpaceOnUse">
      <stop stop-color="#5a2018"/>
      <stop offset="0.5" stop-color="#1a0c0c"/>
      <stop offset="1" stop-color="#0a0606"/>
    </linearGradient>
    <radialGradient id="crownfire" cx="0.5" cy="0.5" r="0.55">
      <stop stop-color="#ffe08a"/>
      <stop offset="0.45" stop-color="#ff4400"/>
      <stop offset="1" stop-color="#ff2200" stop-opacity="0"/>
    </radialGradient>
    <radialGradient id="lordEye" cx="0.5" cy="0.5" r="0.5">
      <stop stop-color="#fff0c0"/>
      <stop offset="1" stop-color="#ff2200"/>
    </radialGradient>
  </defs>
  <ellipse cx="150" cy="296" rx="86" ry="14" fill="#000" opacity="0.35"/>
  <circle cx="150" cy="70" r="48" fill="url(#crownfire)" opacity="0.85"/>
  <path d="M110 78 L100 36 L130 66 Z" fill="#ff6622"/>
  <path d="M150 70 L146 24 L160 70 Z" fill="#ffcc66"/>
  <path d="M190 78 L204 34 L174 68 Z" fill="#ff6622"/>
  <ellipse cx="150" cy="180" rx="96" ry="64" fill="url(#ash)" stroke="#100606" stroke-width="4"/>
  <ellipse cx="150" cy="180" rx="34" ry="28" fill="#ff3300" opacity="0.55"/>
  <ellipse cx="196" cy="114" rx="54" ry="46" fill="url(#ash)" stroke="#100606" stroke-width="4"/>
  <path d="M170 70 L158 28 L188 58 Z" fill="#2a1010"/>
  <path d="M214 68 L236 20 L238 66 Z" fill="#2a1010"/>
  <ellipse cx="184" cy="110" rx="9" ry="11" fill="url(#lordEye)"/>
  <ellipse cx="214" cy="110" rx="9" ry="11" fill="url(#lordEye)"/>
  <circle cx="184" cy="110" r="3.5" fill="#1a0400"/>
  <circle cx="214" cy="110" r="3.5" fill="#1a0400"/>
  <path d="M230 128 Q260 138 268 118" stroke="#100606" stroke-width="5" fill="none"/>
  <path d="M232 142 L276 156 L230 160 Z" fill="#ff3300"/>
  <path d="M84 200 Q70 250 84 280" fill="none" stroke="#1a0c0c" stroke-width="16" stroke-linecap="round"/>
  <path d="M140 210 Q136 255 148 282" fill="none" stroke="#1a0c0c" stroke-width="16" stroke-linecap="round"/>
  <path d="M198 204 Q214 250 204 280" fill="none" stroke="#1a0c0c" stroke-width="16" stroke-linecap="round"/>
  <path d="M54 140 C20 110 40 60 90 90" fill="none" stroke="#3a1410" stroke-width="18" stroke-linecap="round"/>
  <circle cx="48" cy="78" r="22" fill="url(#crownfire)"/>
</svg>
