<svg xmlns="http://www.w3.org/2000/svg" width="256" height="320" viewBox="0 0 256 320" fill="none">
  <defs>
    <linearGradient id="cloak" x1="40" y1="80" x2="180" y2="280" gradientUnits="userSpaceOnUse">
      <stop stop-color="#c4452a"/>
      <stop offset="1" stop-color="#6b1c12"/>
    </linearGradient>
    <linearGradient id="tunic" x1="90" y1="110" x2="160" y2="220" gradientUnits="userSpaceOnUse">
      <stop stop-color="#3d5a78"/>
      <stop offset="1" stop-color="#243848"/>
    </linearGradient>
    <linearGradient id="blade" x1="190" y1="60" x2="210" y2="210" gradientUnits="userSpaceOnUse">
      <stop stop-color="#f2f5f8"/>
      <stop offset="1" stop-color="#8a97a8"/>
    </linearGradient>
    <radialGradient id="faceG" cx="0.45" cy="0.4" r="0.7">
      <stop stop-color="#efc39a"/>
      <stop offset="1" stop-color="#c48962"/>
    </radialGradient>
  </defs>
  <ellipse cx="128" cy="300" rx="54" ry="12" fill="#000" opacity="0.28"/>
  <!-- cloak -->
  <path d="M78 118 C52 150 48 210 62 268 L118 250 L148 268 C168 220 178 160 156 118 Z" fill="url(#cloak)" stroke="#2a100c" stroke-width="3"/>
  <path d="M92 140 C78 170 76 210 84 248" stroke="#e8a070" stroke-width="2" opacity="0.35"/>
  <!-- legs -->
  <path d="M104 210 L96 278 L118 278 L122 214 Z" fill="#2a3340" stroke="#141820" stroke-width="2"/>
  <path d="M138 214 L142 278 L164 278 L154 210 Z" fill="#2a3340" stroke="#141820" stroke-width="2"/>
  <path d="M94 274 L120 274 L118 286 L96 286 Z" fill="#1a1410"/>
  <path d="M140 274 L166 274 L164 286 L142 286 Z" fill="#1a1410"/>
  <!-- torso -->
  <path d="M98 120 C98 168 100 205 112 220 L148 220 C160 200 162 160 160 120 C148 108 110 108 98 120 Z" fill="url(#tunic)" stroke="#152028" stroke-width="3"/>
  <path d="M118 130 L142 130 L138 160 L122 160 Z" fill="#e8c27a" opacity="0.55"/>
  <!-- arm + sword -->
  <path d="M156 128 C176 138 186 160 184 188" stroke="#c48962" stroke-width="14" stroke-linecap="round"/>
  <path d="M156 128 C176 138 186 160 184 188" stroke="#efc39a" stroke-width="8" stroke-linecap="round"/>
  <rect x="176" y="70" width="14" height="120" rx="3" fill="url(#blade)" stroke="#2a3038" stroke-width="2" transform="rotate(8 183 130)"/>
  <rect x="170" y="178" width="28" height="10" rx="2" fill="#6b4a2a" stroke="#2a1a10" stroke-width="2"/>
  <circle cx="184" cy="198" r="6" fill="#d4a24a"/>
  <!-- left arm -->
  <path d="M102 132 C78 148 70 176 78 198" stroke="#c48962" stroke-width="13" stroke-linecap="round"/>
  <path d="M102 132 C78 148 70 176 78 198" stroke="#efc39a" stroke-width="7" stroke-linecap="round"/>
  <!-- head -->
  <circle cx="128" cy="88" r="34" fill="url(#faceG)" stroke="#6b3e28" stroke-width="3"/>
  <path d="M96 78 C104 52 152 50 160 78" fill="#2a1c14"/>
  <path d="M100 74 C112 58 148 58 156 76" fill="#3d291c"/>
  <ellipse cx="116" cy="90" rx="4.5" ry="5" fill="#1a1410"/>
  <ellipse cx="140" cy="90" rx="4.5" ry="5" fill="#1a1410"/>
  <path d="M118 104 Q128 112 138 104" stroke="#8a4e34" stroke-width="2.5" fill="none" stroke-linecap="round"/>
  <!-- hood rim -->
  <path d="M90 92 C96 58 160 56 166 94" fill="none" stroke="#8b2e1a" stroke-width="8" stroke-linecap="round" opacity="0.85"/>
</svg>
