<svg xmlns="http://www.w3.org/2000/svg" width="288" height="256" viewBox="0 0 288 256" fill="none">
  <defs>
    <linearGradient id="fur" x1="60" y1="80" x2="220" y2="210" gradientUnits="userSpaceOnUse">
      <stop stop-color="#5a3428"/>
      <stop offset="1" stop-color="#1a100c"/>
    </linearGradient>
    <radialGradient id="eye" cx="0.5" cy="0.5" r="0.5">
      <stop stop-color="#ffe08a"/>
      <stop offset="1" stop-color="#ff4400"/>
    </radialGradient>
  </defs>
  <ellipse cx="144" cy="232" rx="70" ry="12" fill="#000" opacity="0.28"/>
  <path d="M48 150 C40 120 70 100 96 110" fill="none" stroke="#2a1810" stroke-width="12" stroke-linecap="round"/>
  <path d="M40 118 C28 90 54 70 78 84" fill="#ff6622" opacity="0.55"/>
  <ellipse cx="150" cy="158" rx="78" ry="48" fill="url(#fur)" stroke="#0e0a08" stroke-width="3"/>
  <ellipse cx="214" cy="118" rx="48" ry="40" fill="url(#fur)" stroke="#0e0a08" stroke-width="3"/>
  <path d="M196 78 L188 40 L214 66 Z" fill="#2a1810" stroke="#0e0a08" stroke-width="2"/>
  <path d="M230 76 L250 34 L252 72 Z" fill="#2a1810" stroke="#0e0a08" stroke-width="2"/>
  <ellipse cx="206" cy="114" rx="7" ry="8" fill="url(#eye)"/>
  <ellipse cx="232" cy="114" rx="7" ry="8" fill="url(#eye)"/>
  <circle cx="206" cy="114" r="2.5" fill="#1a0800"/>
  <circle cx="232" cy="114" r="2.5" fill="#1a0800"/>
  <path d="M248 128 Q268 136 274 122" stroke="#0e0a08" stroke-width="4" fill="none"/>
  <path d="M250 138 L278 146 L250 150 Z" fill="#ff5522" opacity="0.8"/>
  <path d="M100 176 Q88 210 96 230" fill="none" stroke="#2a1810" stroke-width="12" stroke-linecap="round"/>
  <path d="M150 180 Q148 214 158 232" fill="none" stroke="#2a1810" stroke-width="12" stroke-linecap="round"/>
  <path d="M190 176 Q204 210 198 230" fill="none" stroke="#2a1810" stroke-width="12" stroke-linecap="round"/>
  <circle cx="170" cy="150" r="18" fill="#ff5522" opacity="0.25"/>
</svg>
