<?xml version="1.0" encoding="UTF-8"?>
<svg xmlns="http://www.w3.org/2000/svg" width="240" height="280" viewBox="0 0 240 280" fill="none">
  <defs>
    <linearGradient id="bg" x1="0" y1="0" x2="0" y2="1">
      <stop offset="0%" stop-color="#140810"/>
      <stop offset="100%" stop-color="#0a1010"/>
    </linearGradient>
  </defs>
  <rect width="240" height="280" fill="url(#bg)"/>
  <ellipse cx="120" cy="232" rx="68" ry="16" fill="#0a1410" opacity="0.45"/>

  <path d="M85 125 L120 100 L155 125 L160 205 L80 205Z" fill="#4a1020" stroke="#0a0e14" stroke-width="3"/>
  <path d="M98 135 L120 115 L142 135 L140 185 L100 185Z" fill="#6a1830"/>
  <circle cx="120" cy="85" r="30" fill="#5a1528" stroke="#0a0e14" stroke-width="3"/>
  <!-- horns -->
  <path d="M95 75 L75 35 L110 70Z" fill="#2a0810" stroke="#0a0e14" stroke-width="2"/>
  <path d="M145 75 L165 35 L130 70Z" fill="#2a0810" stroke="#0a0e14" stroke-width="2"/>
  <ellipse cx="108" cy="85" rx="6" ry="8" fill="#e85d4c"/>
  <ellipse cx="132" cy="85" rx="6" ry="8" fill="#e85d4c"/>
  <circle cx="108" cy="86" r="2.5" fill="#0a0e14"/>
  <circle cx="132" cy="86" r="2.5" fill="#0a0e14"/>
  <path d="M108 100 Q120 112 132 100" stroke="#0a0e14" stroke-width="2" fill="none"/>
  <!-- flame -->
  <path d="M175 100 Q195 70 185 120 Q205 90 190 140 Q170 160 175 100Z" fill="#e85d4c" stroke="#0a0e14" stroke-width="2"/>
  <path d="M180 110 Q188 90 185 125" fill="#f5d547"/>

  <rect x="8" y="8" width="224" height="264" fill="none" stroke="#0a0e14" stroke-width="8"/>
  <rect x="14" y="14" width="212" height="252" fill="none" stroke="#e85d4c" stroke-width="3"/>
  <text x="120" y="258" text-anchor="middle" font-family="Impact, Arial Black, sans-serif" font-size="15"
    fill="#f4efe4" stroke="#0a0e14" stroke-width="3" paint-order="stroke">DEMON</text>
</svg>
