<?xml version="1.0" encoding="UTF-8"?>
<svg xmlns="http://www.w3.org/2000/svg" width="320" height="360" viewBox="0 0 320 360" fill="none">
  <defs>
    <linearGradient id="bg" x1="0" y1="0" x2="0" y2="1">
      <stop offset="0%" stop-color="#200810"/>
      <stop offset="100%" stop-color="#0a0608"/>
    </linearGradient>
    <filter id="ink" x="-20%" y="-20%" width="140%" height="140%">
      <feDropShadow dx="0" dy="2" stdDeviation="0" flood-color="#0a0e14" flood-opacity="0.9"/>
    </filter>
  </defs>
  <rect width="320" height="360" fill="url(#bg)"/>
  <ellipse cx="160" cy="300" rx="90" ry="22" fill="#000" opacity="0.35"/>
  <g filter="url(#ink)">

  <path d="M110 170 L160 140 L210 170 L220 280 L100 280 Z" fill="#5a1428" stroke="#0a0e14" stroke-width="4"/>
  <path d="M125 185 L160 160 L195 185 L190 250 L130 250 Z" fill="#7a1c38"/>
  <!-- horns -->
  <path d="M120 95 L90 30 L145 90 Z" fill="#2a0810" stroke="#0a0e14" stroke-width="3"/>
  <path d="M200 95 L230 30 L175 90 Z" fill="#2a0810" stroke="#0a0e14" stroke-width="3"/>
  <circle cx="160" cy="110" r="48" fill="#6a1830" stroke="#0a0e14" stroke-width="4"/>
  <ellipse cx="140" cy="108" rx="10" ry="14" fill="#e85d4c" stroke="#0a0e14" stroke-width="2"/>
  <ellipse cx="180" cy="108" rx="10" ry="14" fill="#e85d4c" stroke="#0a0e14" stroke-width="2"/>
  <circle cx="140" cy="112" r="4" fill="#0a0e14"/>
  <circle cx="180" cy="112" r="4" fill="#0a0e14"/>
  <path d="M140 135 Q160 155 180 135" stroke="#0a0e14" stroke-width="4" fill="none"/>
  <path d="M148 145 L152 138 L156 145" fill="#f4efe4"/>
  <path d="M164 145 L168 138 L172 145" fill="#f4efe4"/>
  <!-- flame -->
  <path d="M245 120 Q280 70 265 140 Q295 100 270 170 Q245 200 245 120Z" fill="#e85d4c" stroke="#0a0e14" stroke-width="3"/>
  <path d="M255 130 Q268 100 262 150" fill="#f5d547"/>

  </g>
  <rect x="10" y="10" width="300" height="340" fill="none" stroke="#0a0e14" stroke-width="10"/>
  <rect x="18" y="18" width="284" height="324" fill="none" stroke="#e85d4c" stroke-width="4"/>
  <rect x="26" y="26" width="268" height="308" fill="none" stroke="#f4efe4" stroke-width="1.5" opacity="0.55"/>
  <text x="160" y="338" text-anchor="middle" font-family="Impact, Arial Black, sans-serif" font-size="22"
    fill="#f4efe4" stroke="#0a0e14" stroke-width="4" paint-order="stroke">DEMON</text>
</svg>
