<?xml version="1.0" encoding="UTF-8"?>
<svg xmlns="http://www.w3.org/2000/svg" width="320" height="360" viewBox="0 0 320 360" fill="none">
  <defs>
    <linearGradient id="dem-bg" x1="0" y1="0" x2="0" y2="1">
      <stop offset="0%" stop-color="#200810"/>
      <stop offset="100%" stop-color="#0a0608"/>
    </linearGradient>
  </defs>
  <rect width="320" height="360" fill="url(#dem-bg)"/>
  <ellipse cx="160" cy="292" rx="88" ry="20" fill="#180810"/>

  <path d="M108 168 L160 138 L212 168 L222 278 L98 278Z" fill="#5a1428" stroke="#0a0e14" stroke-width="4"/>
  <path d="M125 182 L160 158 L195 182 L190 248 L130 248Z" fill="#7a1c38"/>
  <path d="M118 95 L88 28 L148 88Z" fill="#2a0810" stroke="#0a0e14" stroke-width="3"/>
  <path d="M202 95 L232 28 L172 88Z" fill="#2a0810" stroke="#0a0e14" stroke-width="3"/>
  <circle cx="160" cy="108" r="46" fill="#6a1830" stroke="#0a0e14" stroke-width="4"/>
  <ellipse cx="140" cy="106" rx="10" ry="13" fill="#e85d4c" stroke="#0a0e14" stroke-width="2"/>
  <ellipse cx="180" cy="106" rx="10" ry="13" fill="#e85d4c" stroke="#0a0e14" stroke-width="2"/>
  <circle cx="140" cy="110" r="4" fill="#0a0e14"/>
  <circle cx="180" cy="110" r="4" fill="#0a0e14"/>
  <path d="M138 132 Q160 152 182 132" stroke="#0a0e14" stroke-width="4" fill="none"/>
  <path d="M148 142 L152 134 L156 142" fill="#f4efe4"/>
  <path d="M164 142 L168 134 L172 142" fill="#f4efe4"/>
  <path d="M248 115 Q285 65 268 140 Q298 105 272 175 Q248 205 248 115Z" fill="#e85d4c" stroke="#0a0e14" stroke-width="3"/>
  <path d="M258 125 Q272 95 265 148" fill="#f5d547"/>

  <!-- comic frame -->
  <rect x="10" y="10" width="300" height="340" fill="none" stroke="#0a0e14" stroke-width="10"/>
  <rect x="18" y="18" width="284" height="324" fill="none" stroke="#e85d4c" stroke-width="3.5"/>
  <rect x="16" y="16" width="18" height="18" fill="#f4efe4" stroke="#0a0e14" stroke-width="2"/>
  <rect x="286" y="16" width="18" height="18" fill="#f4efe4" stroke="#0a0e14" stroke-width="2"/>
  <rect x="16" y="326" width="18" height="18" fill="#e85d4c" stroke="#0a0e14" stroke-width="2"/>
  <rect x="286" y="326" width="18" height="18" fill="#e85d4c" stroke="#0a0e14" stroke-width="2"/>
  <text x="160" y="340" text-anchor="middle" font-family="Impact, Arial Black, sans-serif" font-size="20"
    fill="#f4efe4" stroke="#0a0e14" stroke-width="4" paint-order="stroke">DEMON</text>
</svg>
