<?xml version="1.0" encoding="UTF-8"?>
<svg xmlns="http://www.w3.org/2000/svg" width="320" height="360" viewBox="0 0 320 360" fill="none">
  <defs>
    <linearGradient id="bg" x1="0" y1="0" x2="0" y2="1">
      <stop offset="0%" stop-color="#2a1018"/>
      <stop offset="100%" stop-color="#0c080c"/>
    </linearGradient>
    <filter id="ink" x="-20%" y="-20%" width="140%" height="140%">
      <feDropShadow dx="0" dy="2" stdDeviation="0" flood-color="#0a0e14" flood-opacity="0.9"/>
    </filter>
  </defs>
  <rect width="320" height="360" fill="url(#bg)"/>
  <ellipse cx="160" cy="300" rx="90" ry="22" fill="#000" opacity="0.35"/>
  <g filter="url(#ink)">

  <!-- wings -->
  <path d="M160 170 L40 90 L55 180 L120 175 Z" fill="#7a2438" stroke="#0a0e14" stroke-width="4"/>
  <path d="M160 170 L280 90 L265 180 L200 175 Z" fill="#7a2438" stroke="#0a0e14" stroke-width="4"/>
  <path d="M55 110 L85 155 L120 168" fill="#a83850" opacity="0.85"/>
  <path d="M265 110 L235 155 L200 168" fill="#a83850" opacity="0.85"/>
  <!-- body -->
  <ellipse cx="160" cy="200" rx="58" ry="62" fill="#a83850" stroke="#0a0e14" stroke-width="4"/>
  <ellipse cx="160" cy="195" rx="38" ry="42" fill="#c45068"/>
  <!-- head -->
  <ellipse cx="160" cy="110" rx="48" ry="42" fill="#a83850" stroke="#0a0e14" stroke-width="4"/>
  <path d="M125 95 L115 45 L150 88 Z" fill="#6a1830" stroke="#0a0e14" stroke-width="3"/>
  <path d="M195 95 L205 45 L170 88 Z" fill="#6a1830" stroke="#0a0e14" stroke-width="3"/>
  <ellipse cx="142" cy="108" rx="9" ry="11" fill="#f5d547" stroke="#0a0e14" stroke-width="2"/>
  <ellipse cx="178" cy="108" rx="9" ry="11" fill="#f5d547" stroke="#0a0e14" stroke-width="2"/>
  <circle cx="142" cy="110" r="4" fill="#0a0e14"/>
  <circle cx="178" cy="110" r="4" fill="#0a0e14"/>
  <ellipse cx="160" cy="138" rx="28" ry="14" fill="#c45068" stroke="#0a0e14" stroke-width="3"/>
  <path d="M145 142 L130 155 M175 142 L190 155" stroke="#e85d4c" stroke-width="5" stroke-linecap="round"/>
  <!-- tail -->
  <path d="M210 230 Q280 250 260 300" fill="none" stroke="#a83850" stroke-width="18" stroke-linecap="round"/>
  <path d="M255 295 L275 320 L240 310 Z" fill="#7a2438" stroke="#0a0e14" stroke-width="3"/>

  </g>
  <rect x="10" y="10" width="300" height="340" fill="none" stroke="#0a0e14" stroke-width="10"/>
  <rect x="18" y="18" width="284" height="324" fill="none" stroke="#e85d4c" stroke-width="4"/>
  <rect x="26" y="26" width="268" height="308" fill="none" stroke="#f4efe4" stroke-width="1.5" opacity="0.55"/>
  <text x="160" y="338" text-anchor="middle" font-family="Impact, Arial Black, sans-serif" font-size="22"
    fill="#f4efe4" stroke="#0a0e14" stroke-width="4" paint-order="stroke">DRAGON</text>
</svg>
