<?xml version="1.0" encoding="UTF-8"?>
<svg xmlns="http://www.w3.org/2000/svg" width="240" height="280" viewBox="0 0 240 280" fill="none">
  <defs>
    <linearGradient id="bg" x1="0" y1="0" x2="0" y2="1">
      <stop offset="0%" stop-color="#1a1014"/>
      <stop offset="100%" stop-color="#0a1010"/>
    </linearGradient>
  </defs>
  <rect width="240" height="280" fill="url(#bg)"/>
  <ellipse cx="120" cy="232" rx="68" ry="16" fill="#0a1410" opacity="0.45"/>

  <!-- wings -->
  <path d="M120 140 L40 80 L55 150 L90 145Z" fill="#6a2030" stroke="#0a0e14" stroke-width="3"/>
  <path d="M120 140 L200 80 L185 150 L150 145Z" fill="#6a2030" stroke="#0a0e14" stroke-width="3"/>
  <path d="M50 95 L70 130 L95 140" fill="#8a3040" opacity="0.8"/>
  <path d="M190 95 L170 130 L145 140" fill="#8a3040" opacity="0.8"/>
  <!-- body -->
  <ellipse cx="120" cy="160" rx="45" ry="50" fill="#8a3040" stroke="#0a0e14" stroke-width="3"/>
  <ellipse cx="120" cy="155" rx="30" ry="35" fill="#a84050"/>
  <!-- head -->
  <ellipse cx="120" cy="95" rx="32" ry="28" fill="#8a3040" stroke="#0a0e14" stroke-width="3"/>
  <path d="M100 85 L95 55 L115 80Z" fill="#6a2030" stroke="#0a0e14" stroke-width="2"/>
  <path d="M140 85 L145 55 L125 80Z" fill="#6a2030" stroke="#0a0e14" stroke-width="2"/>
  <ellipse cx="108" cy="95" rx="5" ry="6" fill="#f5d547"/>
  <ellipse cx="132" cy="95" rx="5" ry="6" fill="#f5d547"/>
  <circle cx="108" cy="96" r="2.5" fill="#0a0e14"/>
  <circle cx="132" cy="96" r="2.5" fill="#0a0e14"/>
  <!-- snout -->
  <ellipse cx="120" cy="115" rx="18" ry="10" fill="#a84050" stroke="#0a0e14" stroke-width="2"/>
  <path d="M110 118 L100 125 M130 118 L140 125" stroke="#e85d4c" stroke-width="3" stroke-linecap="round"/>
  <!-- tail -->
  <path d="M150 185 Q200 200 190 230" fill="none" stroke="#8a3040" stroke-width="14" stroke-linecap="round"/>

  <rect x="8" y="8" width="224" height="264" fill="none" stroke="#0a0e14" stroke-width="8"/>
  <rect x="14" y="14" width="212" height="252" fill="none" stroke="#e85d4c" stroke-width="3"/>
  <text x="120" y="258" text-anchor="middle" font-family="Impact, Arial Black, sans-serif" font-size="15"
    fill="#f4efe4" stroke="#0a0e14" stroke-width="3" paint-order="stroke">DRAGON</text>
</svg>
