<?xml version="1.0" encoding="UTF-8"?>
<svg xmlns="http://www.w3.org/2000/svg" width="320" height="360" viewBox="0 0 320 360" fill="none">
  <defs>
    <linearGradient id="drg-bg" x1="0" y1="0" x2="0" y2="1">
      <stop offset="0%" stop-color="#2a1018"/>
      <stop offset="100%" stop-color="#0c080c"/>
    </linearGradient>
  </defs>
  <rect width="320" height="360" fill="url(#drg-bg)"/>
  <ellipse cx="160" cy="292" rx="88" ry="20" fill="#201018"/>

  <path d="M160 175 L45 95 L60 185 L125 178Z" fill="#6a2030" stroke="#0a0e14" stroke-width="4"/>
  <path d="M160 175 L275 95 L260 185 L195 178Z" fill="#6a2030" stroke="#0a0e14" stroke-width="4"/>
  <path d="M60 115 L90 160 L125 172" fill="#8a3040" opacity="0.9"/>
  <path d="M260 115 L230 160 L195 172" fill="#8a3040" opacity="0.9"/>
  <ellipse cx="160" cy="205" rx="55" ry="58" fill="#a83850" stroke="#0a0e14" stroke-width="4"/>
  <ellipse cx="160" cy="200" rx="36" ry="40" fill="#c45068"/>
  <ellipse cx="160" cy="108" rx="46" ry="40" fill="#a83850" stroke="#0a0e14" stroke-width="4"/>
  <path d="M125 95 L112 42 L152 88Z" fill="#6a1830" stroke="#0a0e14" stroke-width="3"/>
  <path d="M195 95 L208 42 L168 88Z" fill="#6a1830" stroke="#0a0e14" stroke-width="3"/>
  <ellipse cx="142" cy="108" rx="9" ry="11" fill="#f5d547" stroke="#0a0e14" stroke-width="2"/>
  <ellipse cx="178" cy="108" rx="9" ry="11" fill="#f5d547" stroke="#0a0e14" stroke-width="2"/>
  <circle cx="142" cy="110" r="4" fill="#0a0e14"/>
  <circle cx="178" cy="110" r="4" fill="#0a0e14"/>
  <ellipse cx="160" cy="135" rx="26" ry="12" fill="#c45068" stroke="#0a0e14" stroke-width="3"/>
  <path d="M142 138 L128 152 M178 138 L192 152" stroke="#e85d4c" stroke-width="5" stroke-linecap="round"/>
  <path d="M205 235 Q275 255 255 305" fill="none" stroke="#a83850" stroke-width="16" stroke-linecap="round"/>
  <path d="M248 298 L272 325 L235 315Z" fill="#6a2030" stroke="#0a0e14" stroke-width="3"/>

  <!-- comic frame -->
  <rect x="10" y="10" width="300" height="340" fill="none" stroke="#0a0e14" stroke-width="10"/>
  <rect x="18" y="18" width="284" height="324" fill="none" stroke="#e85d4c" stroke-width="3.5"/>
  <rect x="16" y="16" width="18" height="18" fill="#f4efe4" stroke="#0a0e14" stroke-width="2"/>
  <rect x="286" y="16" width="18" height="18" fill="#f4efe4" stroke="#0a0e14" stroke-width="2"/>
  <rect x="16" y="326" width="18" height="18" fill="#e85d4c" stroke="#0a0e14" stroke-width="2"/>
  <rect x="286" y="326" width="18" height="18" fill="#e85d4c" stroke="#0a0e14" stroke-width="2"/>
  <text x="160" y="340" text-anchor="middle" font-family="Impact, Arial Black, sans-serif" font-size="20"
    fill="#f4efe4" stroke="#0a0e14" stroke-width="4" paint-order="stroke">DRAGON</text>
</svg>
