<?xml version="1.0" encoding="UTF-8"?>
<svg xmlns="http://www.w3.org/2000/svg" width="240" height="280" viewBox="0 0 240 280" fill="none">
  <defs>
    <linearGradient id="bg" x1="0" y1="0" x2="0" y2="1">
      <stop offset="0%" stop-color="#1a1410"/>
      <stop offset="100%" stop-color="#0a1010"/>
    </linearGradient>
  </defs>
  <rect width="240" height="280" fill="url(#bg)"/>
  <ellipse cx="120" cy="232" rx="68" ry="16" fill="#0a1410" opacity="0.45"/>

  <ellipse cx="120" cy="175" rx="48" ry="40" fill="#4a7a3a" stroke="#0a0e14" stroke-width="3"/>
  <ellipse cx="120" cy="165" rx="34" ry="28" fill="#5a9a48"/>
  <circle cx="120" cy="105" r="36" fill="#4a7a3a" stroke="#0a0e14" stroke-width="3"/>
  <!-- ears -->
  <path d="M88 95 L70 45 L105 88Z" fill="#3a6030" stroke="#0a0e14" stroke-width="2"/>
  <path d="M152 95 L170 45 L135 88Z" fill="#3a6030" stroke="#0a0e14" stroke-width="2"/>
  <path d="M90 92 L78 60 L102 88Z" fill="#6aab58"/>
  <path d="M150 92 L162 60 L138 88Z" fill="#6aab58"/>
  <!-- eyes -->
  <ellipse cx="105" cy="100" rx="8" ry="10" fill="#f5d547" stroke="#0a0e14" stroke-width="2"/>
  <ellipse cx="135" cy="100" rx="8" ry="10" fill="#f5d547" stroke="#0a0e14" stroke-width="2"/>
  <circle cx="105" cy="102" r="3" fill="#0a0e14"/>
  <circle cx="135" cy="102" r="3" fill="#0a0e14"/>
  <!-- nose/mouth -->
  <ellipse cx="120" cy="120" rx="10" ry="7" fill="#2a4020"/>
  <path d="M108 132 Q120 142 132 132" stroke="#0a0e14" stroke-width="2" fill="none"/>
  <!-- dagger -->
  <rect x="165" y="130" width="8" height="55" fill="#c0c8d0" stroke="#0a0e14" stroke-width="2"/>
  <rect x="160" y="175" width="18" height="8" fill="#5a3a20" stroke="#0a0e14" stroke-width="2"/>

  <rect x="8" y="8" width="224" height="264" fill="none" stroke="#0a0e14" stroke-width="8"/>
  <rect x="14" y="14" width="212" height="252" fill="none" stroke="#e85d4c" stroke-width="3"/>
  <text x="120" y="258" text-anchor="middle" font-family="Impact, Arial Black, sans-serif" font-size="15"
    fill="#f4efe4" stroke="#0a0e14" stroke-width="3" paint-order="stroke">GOBLIN</text>
</svg>
