<?xml version="1.0" encoding="UTF-8"?>
<svg xmlns="http://www.w3.org/2000/svg" width="320" height="360" viewBox="0 0 320 360" fill="none">
  <defs>
    <linearGradient id="gob-bg" x1="0" y1="0" x2="0" y2="1">
      <stop offset="0%" stop-color="#2a1c14"/>
      <stop offset="100%" stop-color="#0c1210"/>
    </linearGradient>
  </defs>
  <rect width="320" height="360" fill="url(#gob-bg)"/>
  <ellipse cx="160" cy="292" rx="88" ry="20" fill="#1a2818"/>

  <!-- feet -->
  <ellipse cx="125" cy="278" rx="18" ry="8" fill="#2a4020" stroke="#0a0e14" stroke-width="2"/>
  <ellipse cx="195" cy="278" rx="18" ry="8" fill="#2a4020" stroke="#0a0e14" stroke-width="2"/>
  <path d="M112 220 L118 275 L138 275 L132 220Z" fill="#3a6030" stroke="#0a0e14" stroke-width="3"/>
  <path d="M188 220 L182 275 L208 275 L202 220Z" fill="#3a6030" stroke="#0a0e14" stroke-width="3"/>
  <!-- belly body -->
  <ellipse cx="160" cy="200" rx="58" ry="52" fill="#4f8a3c" stroke="#0a0e14" stroke-width="4"/>
  <ellipse cx="160" cy="198" rx="40" ry="36" fill="#7bc45a"/>
  <!-- arms + club -->
  <path d="M108 175 Q78 195 88 235" fill="none" stroke="#4f8a3c" stroke-width="16" stroke-linecap="round"/>
  <path d="M212 175 Q248 198 238 238" fill="none" stroke="#4f8a3c" stroke-width="16" stroke-linecap="round"/>
  <circle cx="88" cy="238" r="11" fill="#6bb04a" stroke="#0a0e14" stroke-width="3"/>
  <g transform="rotate(22 245 200)">
    <rect x="238" y="150" width="13" height="100" rx="4" fill="#8b5a2b" stroke="#0a0e14" stroke-width="3"/>
    <ellipse cx="244" cy="145" rx="24" ry="17" fill="#6a4420" stroke="#0a0e14" stroke-width="3"/>
  </g>
  <!-- head -->
  <circle cx="160" cy="112" r="50" fill="#4f8a3c" stroke="#0a0e14" stroke-width="4"/>
  <ellipse cx="160" cy="122" rx="36" ry="30" fill="#6bb04a"/>
  <path d="M112 100 L82 38 L138 92Z" fill="#3a6030" stroke="#0a0e14" stroke-width="3"/>
  <path d="M208 100 L238 38 L182 92Z" fill="#3a6030" stroke="#0a0e14" stroke-width="3"/>
  <path d="M116 96 L92 52 L134 90Z" fill="#6bb04a"/>
  <path d="M204 96 L228 52 L186 90Z" fill="#6bb04a"/>
  <ellipse cx="140" cy="108" rx="13" ry="15" fill="#f5d547" stroke="#0a0e14" stroke-width="3"/>
  <ellipse cx="180" cy="108" rx="13" ry="15" fill="#f5d547" stroke="#0a0e14" stroke-width="3"/>
  <circle cx="142" cy="112" r="5.5" fill="#0a0e14"/>
  <circle cx="182" cy="112" r="5.5" fill="#0a0e14"/>
  <circle cx="144" cy="110" r="1.8" fill="#f4efe4"/>
  <circle cx="184" cy="110" r="1.8" fill="#f4efe4"/>
  <ellipse cx="160" cy="132" rx="12" ry="8" fill="#2a4020" stroke="#0a0e14" stroke-width="2"/>
  <path d="M142 145 Q160 162 178 145" fill="#3a6030" stroke="#0a0e14" stroke-width="3"/>
  <path d="M148 148 L151 140 L154 148" fill="#f4efe4"/>
  <path d="M166 148 L169 140 L172 148" fill="#f4efe4"/>
  <circle cx="128" cy="128" r="5" fill="#e85d4c" opacity="0.45"/>
  <circle cx="192" cy="128" r="5" fill="#e85d4c" opacity="0.45"/>

  <!-- comic frame -->
  <rect x="10" y="10" width="300" height="340" fill="none" stroke="#0a0e14" stroke-width="10"/>
  <rect x="18" y="18" width="284" height="324" fill="none" stroke="#e85d4c" stroke-width="3.5"/>
  <rect x="16" y="16" width="18" height="18" fill="#f4efe4" stroke="#0a0e14" stroke-width="2"/>
  <rect x="286" y="16" width="18" height="18" fill="#f4efe4" stroke="#0a0e14" stroke-width="2"/>
  <rect x="16" y="326" width="18" height="18" fill="#e85d4c" stroke="#0a0e14" stroke-width="2"/>
  <rect x="286" y="326" width="18" height="18" fill="#e85d4c" stroke="#0a0e14" stroke-width="2"/>
  <text x="160" y="340" text-anchor="middle" font-family="Impact, Arial Black, sans-serif" font-size="20"
    fill="#f4efe4" stroke="#0a0e14" stroke-width="4" paint-order="stroke">GOBLIN</text>
</svg>
