<?xml version="1.0" encoding="UTF-8"?>
<svg xmlns="http://www.w3.org/2000/svg" width="320" height="360" viewBox="0 0 320 360" fill="none">
  <defs>
    <linearGradient id="war-bg" x1="0" y1="0" x2="0" y2="1">
      <stop offset="0%" stop-color="#1a2838"/>
      <stop offset="100%" stop-color="#0a1218"/>
    </linearGradient>
  </defs>
  <rect width="320" height="360" fill="url(#war-bg)"/>
  <ellipse cx="160" cy="292" rx="88" ry="20" fill="#142028"/>

  <ellipse cx="128" cy="278" rx="16" ry="7" fill="#2a3038"/>
  <ellipse cx="192" cy="278" rx="16" ry="7" fill="#2a3038"/>
  <path d="M118 230 L122 275 L140 275 L136 230Z" fill="#4a5560" stroke="#0a0e14" stroke-width="3"/>
  <path d="M182 230 L180 275 L202 275 L198 230Z" fill="#4a5560" stroke="#0a0e14" stroke-width="3"/>
  <path d="M112 155 L160 122 L208 155 L198 240 L122 240Z" fill="#6a7a8a" stroke="#0a0e14" stroke-width="4"/>
  <path d="M130 170 L160 148 L190 170 L184 225 L136 225Z" fill="#8a9aaa"/>
  <circle cx="160" cy="98" r="40" fill="#d4a574" stroke="#0a0e14" stroke-width="4"/>
  <path d="M122 90 Q160 48 198 90 L198 110 Q160 122 122 110Z" fill="#4a5560" stroke="#0a0e14" stroke-width="3"/>
  <circle cx="146" cy="98" r="5" fill="#0a0e14"/>
  <circle cx="174" cy="98" r="5" fill="#0a0e14"/>
  <path d="M146 116 Q160 126 174 116" stroke="#0a0e14" stroke-width="3" fill="none"/>
  <circle cx="132" cy="112" r="4.5" fill="#e85d4c" opacity="0.4"/>
  <circle cx="188" cy="112" r="4.5" fill="#e85d4c" opacity="0.4"/>
  <rect x="232" y="88" width="13" height="145" rx="3" fill="#c0c8d0" stroke="#0a0e14" stroke-width="3"/>
  <rect x="222" y="215" width="33" height="13" fill="#8b5a2b" stroke="#0a0e14" stroke-width="3"/>
  <path d="M238 68 L246 88 L232 88Z" fill="#e8eef4" stroke="#0a0e14" stroke-width="3"/>
  <path d="M78 160 Q68 205 98 250 Q128 220 128 180 Q108 150 78 160Z" fill="#e85d4c" stroke="#0a0e14" stroke-width="4"/>
  <path d="M92 188 Q86 212 104 235" stroke="#f4efe4" stroke-width="3" fill="none"/>

  <!-- comic frame -->
  <rect x="10" y="10" width="300" height="340" fill="none" stroke="#0a0e14" stroke-width="10"/>
  <rect x="18" y="18" width="284" height="324" fill="none" stroke="#e85d4c" stroke-width="3.5"/>
  <rect x="16" y="16" width="18" height="18" fill="#f4efe4" stroke="#0a0e14" stroke-width="2"/>
  <rect x="286" y="16" width="18" height="18" fill="#f4efe4" stroke="#0a0e14" stroke-width="2"/>
  <rect x="16" y="326" width="18" height="18" fill="#e85d4c" stroke="#0a0e14" stroke-width="2"/>
  <rect x="286" y="326" width="18" height="18" fill="#e85d4c" stroke="#0a0e14" stroke-width="2"/>
  <text x="160" y="340" text-anchor="middle" font-family="Impact, Arial Black, sans-serif" font-size="20"
    fill="#f4efe4" stroke="#0a0e14" stroke-width="4" paint-order="stroke">WARRIOR</text>
</svg>
