<?xml version="1.0" encoding="UTF-8"?>
<svg xmlns="http://www.w3.org/2000/svg" width="320" height="360" viewBox="0 0 320 360" fill="none">
  <defs>
    <linearGradient id="rng-bg" x1="0" y1="0" x2="0" y2="1">
      <stop offset="0%" stop-color="#142418"/>
      <stop offset="100%" stop-color="#0a140c"/>
    </linearGradient>
  </defs>
  <rect width="320" height="360" fill="url(#rng-bg)"/>
  <ellipse cx="160" cy="292" rx="88" ry="20" fill="#142018"/>

  <ellipse cx="130" cy="278" rx="15" ry="7" fill="#142018"/>
  <ellipse cx="190" cy="278" rx="15" ry="7" fill="#142018"/>
  <path d="M120 235 L124 275 L140 275 L136 235Z" fill="#2a4a30" stroke="#0a0e14" stroke-width="3"/>
  <path d="M184 235 L180 275 L200 275 L196 235Z" fill="#2a4a30" stroke="#0a0e14" stroke-width="3"/>
  <path d="M118 152 L160 126 L202 152 L196 245 L124 245Z" fill="#3d6b45" stroke="#0a0e14" stroke-width="4"/>
  <path d="M132 168 L160 146 L188 168 L182 225 L138 225Z" fill="#5a8a55"/>
  <circle cx="160" cy="98" r="38" fill="#d4a574" stroke="#0a0e14" stroke-width="4"/>
  <path d="M124 88 Q160 52 196 88 L188 106 Q160 94 132 106Z" fill="#2a4a30" stroke="#0a0e14" stroke-width="3"/>
  <circle cx="146" cy="98" r="5" fill="#0a0e14"/>
  <circle cx="174" cy="98" r="5" fill="#0a0e14"/>
  <path d="M236 68 Q282 165 236 265" fill="none" stroke="#8b5a2b" stroke-width="8" stroke-linecap="round"/>
  <path d="M236 68 L236 265" stroke="#c8b090" stroke-width="3"/>
  <line x1="236" y1="165" x2="78" y2="165" stroke="#c0c8d0" stroke-width="3"/>
  <path d="M78 165 L96 156 L96 174Z" fill="#c0c8d0"/>

  <!-- comic frame -->
  <rect x="10" y="10" width="300" height="340" fill="none" stroke="#0a0e14" stroke-width="10"/>
  <rect x="18" y="18" width="284" height="324" fill="none" stroke="#5a8a55" stroke-width="3.5"/>
  <rect x="16" y="16" width="18" height="18" fill="#f4efe4" stroke="#0a0e14" stroke-width="2"/>
  <rect x="286" y="16" width="18" height="18" fill="#f4efe4" stroke="#0a0e14" stroke-width="2"/>
  <rect x="16" y="326" width="18" height="18" fill="#5a8a55" stroke="#0a0e14" stroke-width="2"/>
  <rect x="286" y="326" width="18" height="18" fill="#5a8a55" stroke="#0a0e14" stroke-width="2"/>
  <text x="160" y="340" text-anchor="middle" font-family="Impact, Arial Black, sans-serif" font-size="20"
    fill="#f4efe4" stroke="#0a0e14" stroke-width="4" paint-order="stroke">RANGER</text>
</svg>
