<?xml version="1.0" encoding="UTF-8"?>
<svg xmlns="http://www.w3.org/2000/svg" width="240" height="280" viewBox="0 0 240 280" fill="none">
  <defs>
    <linearGradient id="bg" x1="0" y1="0" x2="0" y2="1">
      <stop offset="0%" stop-color="#1a2420"/>
      <stop offset="100%" stop-color="#0a1010"/>
    </linearGradient>
  </defs>
  <rect width="240" height="280" fill="url(#bg)"/>
  <ellipse cx="120" cy="232" rx="68" ry="16" fill="#0a1410" opacity="0.45"/>

  <path d="M90 118 L120 100 L150 118 L148 200 L92 200Z" fill="#f4efe4" stroke="#0a0e14" stroke-width="3"/>
  <path d="M102 128 L120 114 L138 128 L136 175 L104 175Z" fill="#e8e0d0"/>
  <circle cx="120" cy="80" r="26" fill="#d4a574" stroke="#0a0e14" stroke-width="3"/>
  <path d="M95 70 Q120 50 145 70 L140 82 Q120 74 100 82Z" fill="#f4efe4" stroke="#0a0e14" stroke-width="2"/>
  <circle cx="110" cy="80" r="3.5" fill="#0a0e14"/>
  <circle cx="130" cy="80" r="3.5" fill="#0a0e14"/>
  <!-- staff + aura -->
  <rect x="172" y="70" width="8" height="135" rx="2" fill="#c8b090" stroke="#0a0e14" stroke-width="2"/>
  <circle cx="176" cy="58" r="16" fill="none" stroke="#f5d547" stroke-width="3"/>
  <path d="M176 48 L176 68 M166 58 L186 58" stroke="#f5d547" stroke-width="3"/>
  <circle cx="120" cy="150" r="22" fill="none" stroke="#7ec8ff" stroke-width="2" opacity="0.7"/>

  <rect x="8" y="8" width="224" height="264" fill="none" stroke="#0a0e14" stroke-width="8"/>
  <rect x="14" y="14" width="212" height="252" fill="none" stroke="#f5d547" stroke-width="3"/>
  <text x="120" y="258" text-anchor="middle" font-family="Impact, Arial Black, sans-serif" font-size="15"
    fill="#f4efe4" stroke="#0a0e14" stroke-width="3" paint-order="stroke">HEALER</text>
</svg>
