<?xml version="1.0" encoding="UTF-8"?>
<svg xmlns="http://www.w3.org/2000/svg" width="320" height="360" viewBox="0 0 320 360" fill="none">
  <defs>
    <linearGradient id="bg" x1="0" y1="0" x2="0" y2="1">
      <stop offset="0%" stop-color="#141828"/>
      <stop offset="100%" stop-color="#080c18"/>
    </linearGradient>
    <filter id="ink" x="-20%" y="-20%" width="140%" height="140%">
      <feDropShadow dx="0" dy="2" stdDeviation="0" flood-color="#0a0e14" flood-opacity="0.9"/>
    </filter>
  </defs>
  <rect width="320" height="360" fill="url(#bg)"/>
  <ellipse cx="160" cy="300" rx="90" ry="22" fill="#000" opacity="0.35"/>
  <g filter="url(#ink)">

  <path d="M115 155 L160 130 L205 155 L215 275 L105 275 Z" fill="#3d4a8a" stroke="#0a0e14" stroke-width="4"/>
  <path d="M130 170 L160 150 L190 170 L185 240 L135 240 Z" fill="#5a6ab0"/>
  <circle cx="160" cy="105" r="40" fill="#d4a574" stroke="#0a0e14" stroke-width="4"/>
  <path d="M110 100 L160 35 L210 100 Z" fill="#2a3568" stroke="#0a0e14" stroke-width="4"/>
  <ellipse cx="160" cy="100" rx="52" ry="14" fill="#3d4a8a" stroke="#0a0e14" stroke-width="3"/>
  <circle cx="160" cy="55" r="9" fill="#f5d547" stroke="#0a0e14" stroke-width="2"/>
  <circle cx="146" cy="105" r="5" fill="#0a0e14"/>
  <circle cx="174" cy="105" r="5" fill="#0a0e14"/>
  <rect x="240" y="70" width="12" height="190" rx="3" fill="#8b5a2b" stroke="#0a0e14" stroke-width="3"/>
  <circle cx="246" cy="58" r="20" fill="#7ec8ff" stroke="#0a0e14" stroke-width="3"/>
  <circle cx="246" cy="58" r="8" fill="#f4efe4" opacity="0.85"/>

  </g>
  <rect x="10" y="10" width="300" height="340" fill="none" stroke="#0a0e14" stroke-width="10"/>
  <rect x="18" y="18" width="284" height="324" fill="none" stroke="#7ec8ff" stroke-width="4"/>
  <rect x="26" y="26" width="268" height="308" fill="none" stroke="#f4efe4" stroke-width="1.5" opacity="0.55"/>
  <text x="160" y="338" text-anchor="middle" font-family="Impact, Arial Black, sans-serif" font-size="22"
    fill="#f4efe4" stroke="#0a0e14" stroke-width="4" paint-order="stroke">MAGE</text>
</svg>
