<?xml version="1.0" encoding="UTF-8"?>
<svg xmlns="http://www.w3.org/2000/svg" width="240" height="280" viewBox="0 0 240 280" fill="none">
  <defs>
    <linearGradient id="bg" x1="0" y1="0" x2="0" y2="1">
      <stop offset="0%" stop-color="#181420"/>
      <stop offset="100%" stop-color="#0a1010"/>
    </linearGradient>
  </defs>
  <rect width="240" height="280" fill="url(#bg)"/>
  <ellipse cx="120" cy="232" rx="68" ry="16" fill="#0a1410" opacity="0.45"/>

  <path d="M92 118 L120 100 L148 118 L145 198 L95 198Z" fill="#3a3548" stroke="#0a0e14" stroke-width="3"/>
  <path d="M102 128 L120 114 L138 128 L135 172 L105 172Z" fill="#55506a"/>
  <circle cx="120" cy="80" r="25" fill="#d4a574" stroke="#0a0e14" stroke-width="3"/>
  <!-- hood -->
  <path d="M90 85 Q120 35 150 85 L145 100 Q120 88 95 100Z" fill="#2a2538" stroke="#0a0e14" stroke-width="3"/>
  <path d="M100 78 Q120 70 140 78" stroke="#0a0e14" stroke-width="8" stroke-linecap="round"/>
  <circle cx="110" cy="82" r="3" fill="#f4efe4"/>
  <circle cx="130" cy="82" r="3" fill="#f4efe4"/>
  <!-- daggers -->
  <path d="M55 140 L85 155 L55 170 L62 155Z" fill="#c0c8d0" stroke="#0a0e14" stroke-width="2"/>
  <path d="M185 140 L155 155 L185 170 L178 155Z" fill="#c0c8d0" stroke="#0a0e14" stroke-width="2"/>

  <rect x="8" y="8" width="224" height="264" fill="none" stroke="#0a0e14" stroke-width="8"/>
  <rect x="14" y="14" width="212" height="252" fill="none" stroke="#a78bfa" stroke-width="3"/>
  <text x="120" y="258" text-anchor="middle" font-family="Impact, Arial Black, sans-serif" font-size="15"
    fill="#f4efe4" stroke="#0a0e14" stroke-width="3" paint-order="stroke">ROGUE</text>
</svg>
