<?xml version="1.0" encoding="UTF-8"?>
<svg xmlns="http://www.w3.org/2000/svg" width="320" height="360" viewBox="0 0 320 360" fill="none">
  <defs>
    <linearGradient id="bg" x1="0" y1="0" x2="0" y2="1">
      <stop offset="0%" stop-color="#181420"/>
      <stop offset="100%" stop-color="#0a0810"/>
    </linearGradient>
    <filter id="ink" x="-20%" y="-20%" width="140%" height="140%">
      <feDropShadow dx="0" dy="2" stdDeviation="0" flood-color="#0a0e14" flood-opacity="0.9"/>
    </filter>
  </defs>
  <rect width="320" height="360" fill="url(#bg)"/>
  <ellipse cx="160" cy="300" rx="90" ry="22" fill="#000" opacity="0.35"/>
  <g filter="url(#ink)">

  <path d="M118 155 L160 130 L202 155 L195 275 L125 275 Z" fill="#3a3548" stroke="#0a0e14" stroke-width="4"/>
  <path d="M132 170 L160 150 L188 170 L182 235 L138 235 Z" fill="#55506a"/>
  <circle cx="160" cy="105" r="38" fill="#d4a574" stroke="#0a0e14" stroke-width="4"/>
  <path d="M115 110 Q160 40 205 110 L195 130 Q160 112 125 130Z" fill="#2a2538" stroke="#0a0e14" stroke-width="4"/>
  <path d="M130 100 Q160 88 190 100" stroke="#0a0e14" stroke-width="10" stroke-linecap="round"/>
  <circle cx="146" cy="108" r="4" fill="#f4efe4"/>
  <circle cx="174" cy="108" r="4" fill="#f4efe4"/>
  <path d="M70 175 L115 195 L70 215 L82 195Z" fill="#c0c8d0" stroke="#0a0e14" stroke-width="3"/>
  <path d="M250 175 L205 195 L250 215 L238 195Z" fill="#c0c8d0" stroke="#0a0e14" stroke-width="3"/>

  </g>
  <rect x="10" y="10" width="300" height="340" fill="none" stroke="#0a0e14" stroke-width="10"/>
  <rect x="18" y="18" width="284" height="324" fill="none" stroke="#a78bfa" stroke-width="4"/>
  <rect x="26" y="26" width="268" height="308" fill="none" stroke="#f4efe4" stroke-width="1.5" opacity="0.55"/>
  <text x="160" y="338" text-anchor="middle" font-family="Impact, Arial Black, sans-serif" font-size="22"
    fill="#f4efe4" stroke="#0a0e14" stroke-width="4" paint-order="stroke">ROGUE</text>
</svg>
