<?xml version="1.0" encoding="UTF-8"?>
<svg xmlns="http://www.w3.org/2000/svg" width="320" height="360" viewBox="0 0 320 360" fill="none">
  <defs>
    <linearGradient id="bg" x1="0" y1="0" x2="0" y2="1">
      <stop offset="0%" stop-color="#1a2030"/>
      <stop offset="100%" stop-color="#0a1018"/>
    </linearGradient>
    <filter id="ink" x="-20%" y="-20%" width="140%" height="140%">
      <feDropShadow dx="0" dy="2" stdDeviation="0" flood-color="#0a0e14" flood-opacity="0.9"/>
    </filter>
  </defs>
  <rect width="320" height="360" fill="url(#bg)"/>
  <ellipse cx="160" cy="300" rx="90" ry="22" fill="#000" opacity="0.35"/>
  <g filter="url(#ink)">

  <path d="M110 160 L160 125 L210 160 L200 275 L120 275 Z" fill="#c8c0a0" stroke="#0a0e14" stroke-width="4"/>
  <path d="M128 175 L160 150 L192 175 L185 240 L135 240 Z" fill="#e8e0c0"/>
  <circle cx="160" cy="100" r="42" fill="#d4a574" stroke="#0a0e14" stroke-width="4"/>
  <path d="M120 92 Q160 50 200 92 L200 112 Q160 125 120 112Z" fill="#f5d547" stroke="#0a0e14" stroke-width="3"/>
  <circle cx="146" cy="100" r="5" fill="#0a0e14"/>
  <circle cx="174" cy="100" r="5" fill="#0a0e14"/>
  <rect x="230" y="90" width="14" height="150" rx="3" fill="#e8eef4" stroke="#0a0e14" stroke-width="3"/>
  <path d="M237 70 L244 90 L230 90Z" fill="#f5d547" stroke="#0a0e14" stroke-width="3"/>
  <path d="M75 165 Q65 210 95 255 Q125 225 125 185 Q105 155 75 165Z" fill="#f5d547" stroke="#0a0e14" stroke-width="4"/>
  <path d="M95 195 L95 225 M80 210 L110 210" stroke="#0a0e14" stroke-width="4"/>

  </g>
  <rect x="10" y="10" width="300" height="340" fill="none" stroke="#0a0e14" stroke-width="10"/>
  <rect x="18" y="18" width="284" height="324" fill="none" stroke="#f5d547" stroke-width="4"/>
  <rect x="26" y="26" width="268" height="308" fill="none" stroke="#f4efe4" stroke-width="1.5" opacity="0.55"/>
  <text x="160" y="338" text-anchor="middle" font-family="Impact, Arial Black, sans-serif" font-size="22"
    fill="#f4efe4" stroke="#0a0e14" stroke-width="4" paint-order="stroke">PALADIN</text>
</svg>
