<?xml version="1.0" encoding="UTF-8"?>
<svg xmlns="http://www.w3.org/2000/svg" width="320" height="360" viewBox="0 0 320 360" fill="none">
  <defs>
    <linearGradient id="bg" x1="0" y1="0" x2="0" y2="1">
      <stop offset="0%" stop-color="#142418"/>
      <stop offset="100%" stop-color="#0a140c"/>
    </linearGradient>
    <filter id="ink" x="-20%" y="-20%" width="140%" height="140%">
      <feDropShadow dx="0" dy="2" stdDeviation="0" flood-color="#0a0e14" flood-opacity="0.9"/>
    </filter>
  </defs>
  <rect width="320" height="360" fill="url(#bg)"/>
  <ellipse cx="160" cy="300" rx="90" ry="22" fill="#000" opacity="0.35"/>
  <g filter="url(#ink)">

  <path d="M115 155 L160 128 L205 155 L198 275 L122 275 Z" fill="#3d6b45" stroke="#0a0e14" stroke-width="4"/>
  <path d="M130 170 L160 148 L190 170 L184 240 L136 240 Z" fill="#5a8a55"/>
  <circle cx="160" cy="102" r="40" fill="#d4a574" stroke="#0a0e14" stroke-width="4"/>
  <path d="M122 90 Q160 55 198 90 L190 108 Q160 95 130 108Z" fill="#2a4a30" stroke="#0a0e14" stroke-width="3"/>
  <circle cx="146" cy="102" r="5" fill="#0a0e14"/>
  <circle cx="174" cy="102" r="5" fill="#0a0e14"/>
  <path d="M235 70 Q285 170 235 270" fill="none" stroke="#8b5a2b" stroke-width="8" stroke-linecap="round"/>
  <path d="M235 70 L235 270" stroke="#c8b090" stroke-width="3"/>
  <line x1="235" y1="170" x2="70" y2="170" stroke="#c0c8d0" stroke-width="3"/>
  <path d="M70 170 L90 160 L90 180Z" fill="#c0c8d0"/>

  </g>
  <rect x="10" y="10" width="300" height="340" fill="none" stroke="#0a0e14" stroke-width="10"/>
  <rect x="18" y="18" width="284" height="324" fill="none" stroke="#5a8a55" stroke-width="4"/>
  <rect x="26" y="26" width="268" height="308" fill="none" stroke="#f4efe4" stroke-width="1.5" opacity="0.55"/>
  <text x="160" y="338" text-anchor="middle" font-family="Impact, Arial Black, sans-serif" font-size="22"
    fill="#f4efe4" stroke="#0a0e14" stroke-width="4" paint-order="stroke">RANGER</text>
</svg>
