<?xml version="1.0" encoding="UTF-8"?>
<svg xmlns="http://www.w3.org/2000/svg" width="320" height="360" viewBox="0 0 320 360" fill="none">
  <defs>
    <linearGradient id="brd-bg" x1="0" y1="0" x2="0" y2="1">
      <stop offset="0%" stop-color="#241820"/>
      <stop offset="100%" stop-color="#100c10"/>
    </linearGradient>
  </defs>
  <rect width="320" height="360" fill="url(#brd-bg)"/>
  <ellipse cx="160" cy="292" rx="88" ry="20" fill="#181018"/>

  <ellipse cx="130" cy="278" rx="15" ry="7" fill="#181018"/>
  <ellipse cx="190" cy="278" rx="15" ry="7" fill="#181018"/>
  <path d="M120 235 L124 275 L140 275 L136 235Z" fill="#4a2840" stroke="#0a0e14" stroke-width="3"/>
  <path d="M184 235 L180 275 L200 275 L196 235Z" fill="#4a2840" stroke="#0a0e14" stroke-width="3"/>
  <path d="M120 152 L160 130 L200 152 L194 245 L126 245Z" fill="#6b3a5a" stroke="#0a0e14" stroke-width="4"/>
  <path d="M134 168 L160 148 L186 168 L180 222 L140 222Z" fill="#8a5070"/>
  <circle cx="160" cy="100" r="38" fill="#d4a574" stroke="#0a0e14" stroke-width="4"/>
  <path d="M124 92 Q160 55 196 92 L190 112 Q160 98 130 112Z" fill="#f5d547" stroke="#0a0e14" stroke-width="3"/>
  <circle cx="146" cy="100" r="5" fill="#0a0e14"/>
  <circle cx="174" cy="100" r="5" fill="#0a0e14"/>
  <ellipse cx="242" cy="205" rx="36" ry="44" fill="#c47a3d" stroke="#0a0e14" stroke-width="4"/>
  <circle cx="242" cy="200" r="13" fill="#2a1a10"/>
  <rect x="235" y="118" width="13" height="52" fill="#8b5a2b" stroke="#0a0e14" stroke-width="3"/>
  <line x1="238" y1="122" x2="238" y2="200" stroke="#f4efe4" stroke-width="1.5"/>
  <line x1="246" y1="122" x2="246" y2="200" stroke="#f4efe4" stroke-width="1.5"/>

  <!-- comic frame -->
  <rect x="10" y="10" width="300" height="340" fill="none" stroke="#0a0e14" stroke-width="10"/>
  <rect x="18" y="18" width="284" height="324" fill="none" stroke="#e85d4c" stroke-width="3.5"/>
  <rect x="16" y="16" width="18" height="18" fill="#f4efe4" stroke="#0a0e14" stroke-width="2"/>
  <rect x="286" y="16" width="18" height="18" fill="#f4efe4" stroke="#0a0e14" stroke-width="2"/>
  <rect x="16" y="326" width="18" height="18" fill="#e85d4c" stroke="#0a0e14" stroke-width="2"/>
  <rect x="286" y="326" width="18" height="18" fill="#e85d4c" stroke="#0a0e14" stroke-width="2"/>
  <text x="160" y="340" text-anchor="middle" font-family="Impact, Arial Black, sans-serif" font-size="20"
    fill="#f4efe4" stroke="#0a0e14" stroke-width="4" paint-order="stroke">BARD</text>
</svg>
