<?xml version="1.0" encoding="UTF-8"?>
<svg xmlns="http://www.w3.org/2000/svg" width="240" height="280" viewBox="0 0 240 280" fill="none">
  <defs>
    <linearGradient id="bg" x1="0" y1="0" x2="0" y2="1">
      <stop offset="0%" stop-color="#142418"/>
      <stop offset="100%" stop-color="#0a1010"/>
    </linearGradient>
  </defs>
  <rect width="240" height="280" fill="url(#bg)"/>
  <ellipse cx="120" cy="232" rx="68" ry="16" fill="#0a1410" opacity="0.45"/>

  <path d="M88 118 L120 98 L152 118 L148 198 L92 198Z" fill="#3d6b45" stroke="#0a0e14" stroke-width="3"/>
  <path d="M100 128 L120 112 L140 128 L136 175 L104 175Z" fill="#5a8a55"/>
  <circle cx="120" cy="80" r="26" fill="#d4a574" stroke="#0a0e14" stroke-width="3"/>
  <path d="M95 68 Q120 48 145 68 L140 78 Q120 70 100 78Z" fill="#2a4a30" stroke="#0a0e14" stroke-width="2"/>
  <circle cx="110" cy="80" r="3.5" fill="#0a0e14"/>
  <circle cx="130" cy="80" r="3.5" fill="#0a0e14"/>
  <!-- bow -->
  <path d="M175 60 Q210 130 175 200" fill="none" stroke="#8b5a2b" stroke-width="6" stroke-linecap="round"/>
  <path d="M175 60 L175 200" stroke="#c8b090" stroke-width="2"/>
  <line x1="175" y1="130" x2="55" y2="130" stroke="#c0c8d0" stroke-width="2"/>
  <path d="M55 130 L70 124 L70 136Z" fill="#c0c8d0"/>

  <rect x="8" y="8" width="224" height="264" fill="none" stroke="#0a0e14" stroke-width="8"/>
  <rect x="14" y="14" width="212" height="252" fill="none" stroke="#5a8a55" stroke-width="3"/>
  <text x="120" y="258" text-anchor="middle" font-family="Impact, Arial Black, sans-serif" font-size="15"
    fill="#f4efe4" stroke="#0a0e14" stroke-width="3" paint-order="stroke">RANGER</text>
</svg>
