<?xml version="1.0" encoding="UTF-8"?>
<svg xmlns="http://www.w3.org/2000/svg" width="320" height="360" viewBox="0 0 320 360" fill="none">
  <defs>
    <linearGradient id="bg" x1="0" y1="0" x2="0" y2="1">
      <stop offset="0%" stop-color="#241820"/>
      <stop offset="100%" stop-color="#100c10"/>
    </linearGradient>
    <filter id="ink" x="-20%" y="-20%" width="140%" height="140%">
      <feDropShadow dx="0" dy="2" stdDeviation="0" flood-color="#0a0e14" flood-opacity="0.9"/>
    </filter>
  </defs>
  <rect width="320" height="360" fill="url(#bg)"/>
  <ellipse cx="160" cy="300" rx="90" ry="22" fill="#000" opacity="0.35"/>
  <g filter="url(#ink)">

  <path d="M118 155 L160 132 L202 155 L195 275 L125 275 Z" fill="#6b3a5a" stroke="#0a0e14" stroke-width="4"/>
  <path d="M132 170 L160 150 L188 170 L182 235 L138 235 Z" fill="#8a5070"/>
  <circle cx="160" cy="105" r="40" fill="#d4a574" stroke="#0a0e14" stroke-width="4"/>
  <path d="M122 95 Q160 58 198 95 L192 115 Q160 102 128 115Z" fill="#f5d547" stroke="#0a0e14" stroke-width="3"/>
  <circle cx="146" cy="105" r="5" fill="#0a0e14"/>
  <circle cx="174" cy="105" r="5" fill="#0a0e14"/>
  <ellipse cx="245" cy="210" rx="38" ry="46" fill="#c47a3d" stroke="#0a0e14" stroke-width="4"/>
  <circle cx="245" cy="205" r="14" fill="#2a1a10"/>
  <rect x="238" y="120" width="14" height="55" fill="#8b5a2b" stroke="#0a0e14" stroke-width="3"/>
  <line x1="241" y1="125" x2="241" y2="205" stroke="#f4efe4" stroke-width="1.5"/>
  <line x1="249" y1="125" x2="249" y2="205" stroke="#f4efe4" stroke-width="1.5"/>

  </g>
  <rect x="10" y="10" width="300" height="340" fill="none" stroke="#0a0e14" stroke-width="10"/>
  <rect x="18" y="18" width="284" height="324" fill="none" stroke="#e85d4c" stroke-width="4"/>
  <rect x="26" y="26" width="268" height="308" fill="none" stroke="#f4efe4" stroke-width="1.5" opacity="0.55"/>
  <text x="160" y="338" text-anchor="middle" font-family="Impact, Arial Black, sans-serif" font-size="22"
    fill="#f4efe4" stroke="#0a0e14" stroke-width="4" paint-order="stroke">BARD</text>
</svg>
