<?xml version="1.0" encoding="UTF-8"?>
<svg xmlns="http://www.w3.org/2000/svg" width="320" height="360" viewBox="0 0 320 360" fill="none">
  <defs>
    <linearGradient id="mag-bg" x1="0" y1="0" x2="0" y2="1">
      <stop offset="0%" stop-color="#141828"/>
      <stop offset="100%" stop-color="#080c18"/>
    </linearGradient>
  </defs>
  <rect width="320" height="360" fill="url(#mag-bg)"/>
  <ellipse cx="160" cy="292" rx="88" ry="20" fill="#121820"/>

  <ellipse cx="130" cy="278" rx="15" ry="7" fill="#1a2030"/>
  <ellipse cx="190" cy="278" rx="15" ry="7" fill="#1a2030"/>
  <path d="M120 235 L124 275 L140 275 L136 235Z" fill="#2a3568" stroke="#0a0e14" stroke-width="3"/>
  <path d="M184 235 L180 275 L200 275 L196 235Z" fill="#2a3568" stroke="#0a0e14" stroke-width="3"/>
  <path d="M118 152 L160 128 L202 152 L210 245 L110 245Z" fill="#3d4a8a" stroke="#0a0e14" stroke-width="4"/>
  <path d="M132 168 L160 148 L188 168 L184 225 L136 225Z" fill="#5a6ab0"/>
  <circle cx="160" cy="100" r="38" fill="#d4a574" stroke="#0a0e14" stroke-width="4"/>
  <path d="M112 96 L160 32 L208 96Z" fill="#2a3568" stroke="#0a0e14" stroke-width="4"/>
  <ellipse cx="160" cy="96" rx="50" ry="13" fill="#3d4a8a" stroke="#0a0e14" stroke-width="3"/>
  <circle cx="160" cy="52" r="8" fill="#f5d547" stroke="#0a0e14" stroke-width="2"/>
  <circle cx="146" cy="100" r="5" fill="#0a0e14"/>
  <circle cx="174" cy="100" r="5" fill="#0a0e14"/>
  <circle cx="132" cy="114" r="4.5" fill="#e85d4c" opacity="0.35"/>
  <circle cx="188" cy="114" r="4.5" fill="#e85d4c" opacity="0.35"/>
  <rect x="238" y="72" width="11" height="185" rx="3" fill="#8b5a2b" stroke="#0a0e14" stroke-width="3"/>
  <circle cx="243" cy="58" r="18" fill="#7ec8ff" stroke="#0a0e14" stroke-width="3"/>
  <circle cx="243" cy="58" r="7" fill="#f4efe4" opacity="0.9"/>

  <!-- comic frame -->
  <rect x="10" y="10" width="300" height="340" fill="none" stroke="#0a0e14" stroke-width="10"/>
  <rect x="18" y="18" width="284" height="324" fill="none" stroke="#7ec8ff" stroke-width="3.5"/>
  <rect x="16" y="16" width="18" height="18" fill="#f4efe4" stroke="#0a0e14" stroke-width="2"/>
  <rect x="286" y="16" width="18" height="18" fill="#f4efe4" stroke="#0a0e14" stroke-width="2"/>
  <rect x="16" y="326" width="18" height="18" fill="#7ec8ff" stroke="#0a0e14" stroke-width="2"/>
  <rect x="286" y="326" width="18" height="18" fill="#7ec8ff" stroke="#0a0e14" stroke-width="2"/>
  <text x="160" y="340" text-anchor="middle" font-family="Impact, Arial Black, sans-serif" font-size="20"
    fill="#f4efe4" stroke="#0a0e14" stroke-width="4" paint-order="stroke">MAGE</text>
</svg>
