<?xml version="1.0" encoding="UTF-8"?>
<svg xmlns="http://www.w3.org/2000/svg" width="320" height="360" viewBox="0 0 320 360" fill="none">
  <defs>
    <linearGradient id="rog-bg" x1="0" y1="0" x2="0" y2="1">
      <stop offset="0%" stop-color="#181420"/>
      <stop offset="100%" stop-color="#0a0810"/>
    </linearGradient>
  </defs>
  <rect width="320" height="360" fill="url(#rog-bg)"/>
  <ellipse cx="160" cy="292" rx="88" ry="20" fill="#141018"/>

  <ellipse cx="130" cy="278" rx="15" ry="7" fill="#141018"/>
  <ellipse cx="190" cy="278" rx="15" ry="7" fill="#141018"/>
  <path d="M120 235 L124 275 L140 275 L136 235Z" fill="#2a2538" stroke="#0a0e14" stroke-width="3"/>
  <path d="M184 235 L180 275 L200 275 L196 235Z" fill="#2a2538" stroke="#0a0e14" stroke-width="3"/>
  <path d="M120 152 L160 128 L200 152 L194 245 L126 245Z" fill="#3a3548" stroke="#0a0e14" stroke-width="4"/>
  <path d="M134 168 L160 148 L186 168 L180 222 L140 222Z" fill="#55506a"/>
  <circle cx="160" cy="100" r="36" fill="#d4a574" stroke="#0a0e14" stroke-width="4"/>
  <path d="M118 108 Q160 38 202 108 L192 128 Q160 110 128 128Z" fill="#2a2538" stroke="#0a0e14" stroke-width="4"/>
  <path d="M132 98 Q160 86 188 98" stroke="#0a0e14" stroke-width="10" stroke-linecap="round"/>
  <circle cx="146" cy="104" r="4" fill="#f4efe4"/>
  <circle cx="174" cy="104" r="4" fill="#f4efe4"/>
  <path d="M72 172 L115 192 L72 212 L84 192Z" fill="#c0c8d0" stroke="#0a0e14" stroke-width="3"/>
  <path d="M248 172 L205 192 L248 212 L236 192Z" fill="#c0c8d0" stroke="#0a0e14" stroke-width="3"/>

  <!-- comic frame -->
  <rect x="10" y="10" width="300" height="340" fill="none" stroke="#0a0e14" stroke-width="10"/>
  <rect x="18" y="18" width="284" height="324" fill="none" stroke="#a78bfa" stroke-width="3.5"/>
  <rect x="16" y="16" width="18" height="18" fill="#f4efe4" stroke="#0a0e14" stroke-width="2"/>
  <rect x="286" y="16" width="18" height="18" fill="#f4efe4" stroke="#0a0e14" stroke-width="2"/>
  <rect x="16" y="326" width="18" height="18" fill="#a78bfa" stroke="#0a0e14" stroke-width="2"/>
  <rect x="286" y="326" width="18" height="18" fill="#a78bfa" stroke="#0a0e14" stroke-width="2"/>
  <text x="160" y="340" text-anchor="middle" font-family="Impact, Arial Black, sans-serif" font-size="20"
    fill="#f4efe4" stroke="#0a0e14" stroke-width="4" paint-order="stroke">ROGUE</text>
</svg>
