<?xml version="1.0" encoding="UTF-8"?>
<svg xmlns="http://www.w3.org/2000/svg" width="256" height="256" viewBox="0 0 256 256" fill="none" role="img" aria-label="blade plate dusk canyon">
  <defs>
    <linearGradient id="sky-b0" x1="0" y1="0" x2="0" y2="1">
      <stop offset="0%" stop-color="#5a3418"/>
      <stop offset="40%" stop-color="#2a1810"/>
      <stop offset="100%" stop-color="#0a0604"/>
    </linearGradient>
    <radialGradient id="moon-b0" cx="72%" cy="22%" r="28%">
      <stop offset="0%" stop-color="#e8dcc8" stop-opacity="0.55"/>
      <stop offset="100%" stop-color="#e8dcc8" stop-opacity="0"/>
    </radialGradient>
    <linearGradient id="blade-b0" x1="0" y1="0" x2="1" y2="1">
      <stop offset="0%" stop-color="#d0d8e0"/>
      <stop offset="100%" stop-color="#6a7480"/>
    </linearGradient>
  </defs>
  <rect width="256" height="256" fill="url(#sky-b0)"/>
  <circle cx="188" cy="56" r="36" fill="url(#moon-b0)"/>
  <circle cx="188" cy="56" r="18" fill="#f0e2c4" opacity="0.7"/>
  <!-- mesa ridges -->
  <path d="M0 150 L48 120 L90 145 L140 110 L180 140 L220 118 L256 135 V256 H0 Z" fill="#1a1008" opacity="0.7"/>
  <path d="M0 175 Q70 155 130 172 Q190 190 256 160 V256 H0 Z" fill="#14100c"/>
  <path d="M0 210 Q80 195 160 215 Q210 225 256 200 V256 H0 Z" fill="#0a0704"/>
  <!-- upright saber -->
  <g transform="translate(18,8)">
    <path d="M118 24 L138 42 L96 198 L62 186 Z" fill="url(#blade-b0)" stroke="#0a0704" stroke-width="3.5"/>
    <path d="M120 36 L132 46 L100 170" fill="none" stroke="#fff8ec" stroke-width="2.5" opacity="0.5"/>
    <rect x="54" y="186" width="48" height="24" rx="2" fill="#5a3820" stroke="#0a0704" stroke-width="3"/>
    <path d="M50 184 H108" stroke="#c9a227" stroke-width="4" stroke-linecap="round"/>
  </g>
  <rect width="256" height="256" fill="none" stroke="#0a0704" stroke-width="18" opacity="0.4"/>
  <!-- pulp corner marks -->
  <path d="M10 10 H42 M10 10 V42" stroke="#c9a227" stroke-width="2" opacity="0.4"/>
  <path d="M246 10 H214 M246 10 V42" stroke="#c9a227" stroke-width="2" opacity="0.4"/>
  <path d="M10 246 H42 M10 246 V214" stroke="#c9a227" stroke-width="2" opacity="0.4"/>
  <path d="M246 246 H214 M246 246 V214" stroke="#c9a227" stroke-width="2" opacity="0.4"/>
</svg>
