<?xml version="1.0" encoding="UTF-8"?>
<svg xmlns="http://www.w3.org/2000/svg" width="256" height="256" viewBox="0 0 256 256" fill="none" role="img" aria-label="bow plate moonlit hunt">
  <defs>
    <linearGradient id="sky-bw1" x1="0" y1="0" x2="0" y2="1">
      <stop offset="0%" stop-color="#1a2030"/>
      <stop offset="50%" stop-color="#0e141c"/>
      <stop offset="100%" stop-color="#06080c"/>
    </linearGradient>
    <radialGradient id="moon-bw1" cx="75%" cy="20%" r="35%">
      <stop offset="0%" stop-color="#e8eef2" stop-opacity="0.5"/>
      <stop offset="100%" stop-color="#e8eef2" stop-opacity="0"/>
    </radialGradient>
  </defs>
  <rect width="256" height="256" fill="url(#sky-bw1)"/>
  <circle cx="190" cy="50" r="55" fill="url(#moon-bw1)"/>
  <circle cx="190" cy="50" r="22" fill="#e8eef2" opacity="0.55"/>
  <!-- ridge -->
  <path d="M0 160 Q60 130 120 155 Q180 180 256 140 V256 H0 Z" fill="#1a1c20" opacity="0.9"/>
  <path d="M0 190 Q100 175 200 195 Q230 200 256 185 V256 H0 Z" fill="#0e1014"/>
  <!-- drawn bow silhouette -->
  <g transform="translate(10,5)">
    <path d="M70 28 Q20 128 70 228" fill="none" stroke="#5a4030" stroke-width="11" stroke-linecap="round"/>
    <path d="M70 32 L150 128 L70 224" fill="none" stroke="#c4a882" stroke-width="2.5"/>
    <path d="M40 128 H175" stroke="#8a9aaa" stroke-width="3.5"/>
    <path d="M175 128 L162 120 L162 136 Z" fill="#c9a227"/>
  </g>
  <rect width="256" height="256" fill="none" stroke="#0a0704" stroke-width="18" opacity="0.45"/>
  <!-- pulp corner marks -->
  <path d="M10 10 H42 M10 10 V42" stroke="#c9a227" stroke-width="2" opacity="0.4"/>
  <path d="M246 10 H214 M246 10 V42" stroke="#c9a227" stroke-width="2" opacity="0.4"/>
  <path d="M10 246 H42 M10 246 V214" stroke="#c9a227" stroke-width="2" opacity="0.4"/>
  <path d="M246 246 H214 M246 246 V214" stroke="#c9a227" stroke-width="2" opacity="0.4"/>
</svg>
