<?xml version="1.0" encoding="UTF-8"?>
<svg xmlns="http://www.w3.org/2000/svg" width="256" height="256" viewBox="0 0 256 256" fill="none" role="img" aria-label="trinket plate pocketwatch moon">
  <defs>
    <linearGradient id="sky-t1" x1="0" y1="0" x2="0" y2="1">
      <stop offset="0%" stop-color="#1a2030"/>
      <stop offset="50%" stop-color="#10141c"/>
      <stop offset="100%" stop-color="#06080c"/>
    </linearGradient>
    <radialGradient id="moon-t1" cx="75%" cy="22%" r="30%">
      <stop offset="0%" stop-color="#e8eef2" stop-opacity="0.45"/>
      <stop offset="100%" stop-color="#e8eef2" stop-opacity="0"/>
    </radialGradient>
  </defs>
  <rect width="256" height="256" fill="url(#sky-t1)"/>
  <circle cx="190" cy="55" r="50" fill="url(#moon-t1)"/>
  <circle cx="190" cy="55" r="18" fill="#e8eef2" opacity="0.5"/>
  <path d="M0 185 Q128 165 256 190 V256 H0 Z" fill="#12141a"/>
  <!-- pocketwatch -->
  <g>
    <circle cx="128" cy="120" r="58" fill="#5a4e42" stroke="#0a0704" stroke-width="4"/>
    <circle cx="128" cy="120" r="48" fill="#e8dcc8" stroke="#c9a227" stroke-width="3"/>
    <circle cx="128" cy="120" r="4" fill="#2a1f14"/>
    <path d="M128 120 L128 85" stroke="#2a1f14" stroke-width="3" stroke-linecap="round"/>
    <path d="M128 120 L155 135" stroke="#2a1f14" stroke-width="2.5" stroke-linecap="round"/>
    <path d="M128 55 V70" stroke="#c9a227" stroke-width="4"/>
    <circle cx="128" cy="50" r="8" fill="#c9a227" stroke="#0a0704" stroke-width="2"/>
  </g>
  <rect width="256" height="256" fill="none" stroke="#0a0704" stroke-width="18" opacity="0.45"/>
  <!-- pulp corner marks -->
  <path d="M10 10 H42 M10 10 V42" stroke="#c9a227" stroke-width="2" opacity="0.4"/>
  <path d="M246 10 H214 M246 10 V42" stroke="#c9a227" stroke-width="2" opacity="0.4"/>
  <path d="M10 246 H42 M10 246 V214" stroke="#c9a227" stroke-width="2" opacity="0.4"/>
  <path d="M246 246 H214 M246 246 V214" stroke="#c9a227" stroke-width="2" opacity="0.4"/>
</svg>
