<?xml version="1.0" encoding="UTF-8"?>
<svg xmlns="http://www.w3.org/2000/svg" width="256" height="256" viewBox="0 0 256 256" fill="none" role="img" aria-label="food plate campfire stew">
  <defs>
    <linearGradient id="sky-f0" x1="0" y1="0" x2="0" y2="1">
      <stop offset="0%" stop-color="#2a2018"/>
      <stop offset="40%" stop-color="#1a1410"/>
      <stop offset="100%" stop-color="#080604"/>
    </linearGradient>
    <radialGradient id="fire-f0" cx="50%" cy="70%" r="50%">
      <stop offset="0%" stop-color="#c44a1f" stop-opacity="0.6"/>
      <stop offset="50%" stop-color="#8a2e12" stop-opacity="0.25"/>
      <stop offset="100%" stop-color="#0a0704" stop-opacity="0"/>
    </radialGradient>
  </defs>
  <rect width="256" height="256" fill="url(#sky-f0)"/>
  <ellipse cx="128" cy="190" rx="120" ry="70" fill="url(#fire-f0)"/>
  <!-- night pines -->
  <g fill="#12180e" opacity="0.8">
    <path d="M10 160 L35 90 L60 160 Z"/><path d="M200 155 L230 85 L256 155 Z"/>
  </g>
  <path d="M0 200 H256 V256 H0 Z" fill="#100c08"/>
  <!-- pot over fire -->
  <g>
    <path d="M70 100 H186 Q195 100 195 120 L185 170 Q128 195 71 170 L61 120 Q61 100 70 100 Z" fill="#3a3838" stroke="#0a0704" stroke-width="4"/>
    <ellipse cx="128" cy="105" rx="55" ry="12" fill="#2a2218" stroke="#c9a227" stroke-width="2"/>
    <path d="M85 130 H170" stroke="#c4893a" stroke-width="6" opacity="0.6"/>
    <path d="M90 80 V105 M166 80 V105" stroke="#5a4030" stroke-width="5"/>
    <path d="M90 80 H166" stroke="#5a4030" stroke-width="4"/>
  </g>
  <path d="M110 210 Q128 175 146 210" fill="#e8c547"/>
  <path d="M118 215 Q128 195 138 215" fill="#c44a1f"/>
  <rect width="256" height="256" fill="none" stroke="#0a0704" stroke-width="16" opacity="0.4"/>
  <!-- pulp corner marks -->
  <path d="M10 10 H42 M10 10 V42" stroke="#c9a227" stroke-width="2" opacity="0.4"/>
  <path d="M246 10 H214 M246 10 V42" stroke="#c9a227" stroke-width="2" opacity="0.4"/>
  <path d="M10 246 H42 M10 246 V214" stroke="#c9a227" stroke-width="2" opacity="0.4"/>
  <path d="M246 246 H214 M246 246 V214" stroke="#c9a227" stroke-width="2" opacity="0.4"/>
</svg>
