<?xml version="1.0" encoding="UTF-8"?>
<svg xmlns="http://www.w3.org/2000/svg" width="256" height="256" viewBox="0 0 256 256" fill="none" role="img" aria-label="vial plate apothecary amber">
  <defs>
    <linearGradient id="sky-v0" x1="0" y1="0" x2="0" y2="1">
      <stop offset="0%" stop-color="#2a2218"/>
      <stop offset="50%" stop-color="#181410"/>
      <stop offset="100%" stop-color="#080604"/>
    </linearGradient>
    <radialGradient id="amber-v0" cx="50%" cy="45%" r="40%">
      <stop offset="0%" stop-color="#c4893a" stop-opacity="0.55"/>
      <stop offset="100%" stop-color="#c4893a" stop-opacity="0"/>
    </radialGradient>
    <linearGradient id="liq-v0" x1="0" y1="0" x2="0" y2="1">
      <stop offset="0%" stop-color="#e8c547"/>
      <stop offset="100%" stop-color="#8a4a18"/>
    </linearGradient>
  </defs>
  <rect width="256" height="256" fill="url(#sky-v0)"/>
  <ellipse cx="128" cy="110" rx="80" ry="70" fill="url(#amber-v0)"/>
  <!-- shelves -->
  <path d="M20 70 H236" stroke="#5a4030" stroke-width="5"/>
  <path d="M20 200 H236" stroke="#5a4030" stroke-width="5"/>
  <path d="M0 210 H256 V256 H0 Z" fill="#100c08"/>
  <!-- small bottles bg -->
  <g opacity="0.45">
    <rect x="40" y="40" width="18" height="28" rx="2" fill="#3a2818" stroke="#c9a227" stroke-width="1"/>
    <rect x="200" y="38" width="16" height="30" rx="2" fill="#3a2818" stroke="#c9a227" stroke-width="1"/>
  </g>
  <!-- hero vial -->
  <g>
    <rect x="108" y="55" width="40" height="18" rx="2" fill="#5a4030" stroke="#0a0704" stroke-width="3"/>
    <path d="M100 75 H156 L165 180 Q128 200 91 180 Z" fill="#3a5040" stroke="#0a0704" stroke-width="3.5" opacity="0.85"/>
    <path d="M108 110 H148 L152 170 Q128 182 104 170 Z" fill="url(#liq-v0)" opacity="0.85"/>
    <path d="M118 90 V150" stroke="#fff8ec" stroke-width="2" opacity="0.35"/>
  </g>
  <rect width="256" height="256" fill="none" stroke="#0a0704" stroke-width="16" opacity="0.4"/>
  <!-- pulp corner marks -->
  <path d="M10 10 H42 M10 10 V42" stroke="#c9a227" stroke-width="2" opacity="0.4"/>
  <path d="M246 10 H214 M246 10 V42" stroke="#c9a227" stroke-width="2" opacity="0.4"/>
  <path d="M10 246 H42 M10 246 V214" stroke="#c9a227" stroke-width="2" opacity="0.4"/>
  <path d="M246 246 H214 M246 246 V214" stroke="#c9a227" stroke-width="2" opacity="0.4"/>
</svg>
