<?xml version="1.0" encoding="UTF-8"?>
<svg xmlns="http://www.w3.org/2000/svg" width="256" height="256" viewBox="0 0 256 256" fill="none" role="img" aria-label="armor plate armory warm">
  <defs>
    <linearGradient id="sky-ar0" x1="0" y1="0" x2="0" y2="1">
      <stop offset="0%" stop-color="#3a2818"/>
      <stop offset="50%" stop-color="#1e1410"/>
      <stop offset="100%" stop-color="#0a0604"/>
    </linearGradient>
    <radialGradient id="lamp-ar0" cx="30%" cy="25%" r="40%">
      <stop offset="0%" stop-color="#c4893a" stop-opacity="0.5"/>
      <stop offset="100%" stop-color="#c4893a" stop-opacity="0"/>
    </radialGradient>
  </defs>
  <rect width="256" height="256" fill="url(#sky-ar0)"/>
  <ellipse cx="70" cy="60" rx="80" ry="60" fill="url(#lamp-ar0)"/>
  <!-- rack beams -->
  <path d="M20 40 H236" stroke="#5a4030" stroke-width="8"/>
  <path d="M30 40 V200" stroke="#3a2818" stroke-width="6"/>
  <path d="M226 40 V200" stroke="#3a2818" stroke-width="6"/>
  <path d="M0 205 H256 V256 H0 Z" fill="#14100c"/>
  <!-- breastplate -->
  <g>
    <path d="M78 70 L128 55 L178 70 L188 160 L128 195 L68 160 Z" fill="#6a7080" stroke="#0a0704" stroke-width="4"/>
    <path d="M90 85 L128 72 L166 85 L172 145 L128 170 L84 145 Z" fill="#8a9aaa" stroke="#0a0704" stroke-width="2.5"/>
    <path d="M128 72 V170" stroke="#c9a227" stroke-width="3"/>
    <path d="M100 100 H156" stroke="#c9a227" stroke-width="2" opacity="0.6"/>
  </g>
  <rect width="256" height="256" fill="none" stroke="#0a0704" stroke-width="16" opacity="0.4"/>
  <!-- pulp corner marks -->
  <path d="M10 10 H42 M10 10 V42" stroke="#c9a227" stroke-width="2" opacity="0.4"/>
  <path d="M246 10 H214 M246 10 V42" stroke="#c9a227" stroke-width="2" opacity="0.4"/>
  <path d="M10 246 H42 M10 246 V214" stroke="#c9a227" stroke-width="2" opacity="0.4"/>
  <path d="M246 246 H214 M246 246 V214" stroke="#c9a227" stroke-width="2" opacity="0.4"/>
</svg>
