<?xml version="1.0" encoding="UTF-8"?>
<svg xmlns="http://www.w3.org/2000/svg" width="256" height="256" viewBox="0 0 256 256" fill="none" role="img" aria-label="staff plate storm ridge">
  <defs>
    <linearGradient id="sky-s1" x1="0" y1="0" x2="0" y2="1">
      <stop offset="0%" stop-color="#2a3038"/>
      <stop offset="40%" stop-color="#1a1e24"/>
      <stop offset="100%" stop-color="#080a0c"/>
    </linearGradient>
    <radialGradient id="bolt-s1" cx="55%" cy="20%" r="40%">
      <stop offset="0%" stop-color="#e8eef2" stop-opacity="0.4"/>
      <stop offset="100%" stop-color="#e8eef2" stop-opacity="0"/>
    </radialGradient>
  </defs>
  <rect width="256" height="256" fill="url(#sky-s1)"/>
  <ellipse cx="140" cy="50" rx="80" ry="50" fill="url(#bolt-s1)"/>
  <!-- clouds -->
  <path d="M20 60 Q60 40 100 55 Q140 35 180 50 Q220 40 250 60" fill="#1a1e24" opacity="0.7"/>
  <!-- lightning -->
  <path d="M150 20 L135 70 L155 70 L130 130" fill="none" stroke="#e8c547" stroke-width="3" opacity="0.7"/>
  <path d="M0 170 Q80 145 160 165 Q210 175 256 150 V256 H0 Z" fill="#14161a"/>
  <path d="M0 200 H256 V256 H0 Z" fill="#0a0c10"/>
  <!-- storm staff -->
  <g>
    <path d="M100 40 V205" stroke="#4a4038" stroke-width="11" stroke-linecap="round"/>
    <path d="M88 45 L112 45 L120 70 L80 70 Z" fill="#8a9aaa" stroke="#0a0704" stroke-width="3"/>
    <path d="M100 70 L100 100" stroke="#c9a227" stroke-width="4"/>
    <circle cx="100" cy="48" r="4" fill="#e8c547"/>
  </g>
  <rect width="256" height="256" fill="none" stroke="#0a0704" stroke-width="18" opacity="0.45"/>
  <!-- pulp corner marks -->
  <path d="M10 10 H42 M10 10 V42" stroke="#c9a227" stroke-width="2" opacity="0.4"/>
  <path d="M246 10 H214 M246 10 V42" stroke="#c9a227" stroke-width="2" opacity="0.4"/>
  <path d="M10 246 H42 M10 246 V214" stroke="#c9a227" stroke-width="2" opacity="0.4"/>
  <path d="M246 246 H214 M246 246 V214" stroke="#c9a227" stroke-width="2" opacity="0.4"/>
</svg>
