<?xml version="1.0" encoding="UTF-8"?>
<svg xmlns="http://www.w3.org/2000/svg" width="256" height="256" viewBox="0 0 256 256" fill="none" role="img" aria-label="unarmed plate grit ring">
  <defs>
    <linearGradient id="sky-u0" x1="0" y1="0" x2="0" y2="1">
      <stop offset="0%" stop-color="#4a3420"/>
      <stop offset="40%" stop-color="#2a1c10"/>
      <stop offset="100%" stop-color="#0a0604"/>
    </linearGradient>
    <radialGradient id="dust-u0" cx="50%" cy="50%" r="50%">
      <stop offset="0%" stop-color="#c4a882" stop-opacity="0.3"/>
      <stop offset="100%" stop-color="#c4a882" stop-opacity="0"/>
    </radialGradient>
  </defs>
  <rect width="256" height="256" fill="url(#sky-u0)"/>
  <ellipse cx="128" cy="128" rx="110" ry="90" fill="url(#dust-u0)"/>
  <!-- boxing ring ropes -->
  <path d="M30 80 H226" stroke="#8a2424" stroke-width="5"/>
  <path d="M30 110 H226" stroke="#c4a882" stroke-width="4"/>
  <path d="M30 140 H226" stroke="#8a2424" stroke-width="5"/>
  <path d="M30 60 V180" stroke="#5a4030" stroke-width="8"/>
  <path d="M226 60 V180" stroke="#5a4030" stroke-width="8"/>
  <path d="M0 185 H256 V256 H0 Z" fill="#14100c"/>
  <!-- fists -->
  <g>
    <path d="M55 120 L95 100 L120 130 L110 170 L70 175 L45 150 Z" fill="#8a6a4a" stroke="#0a0704" stroke-width="3.5"/>
    <path d="M136 115 L180 95 L210 130 L200 170 L155 178 L130 145 Z" fill="#6a5040" stroke="#0a0704" stroke-width="3.5"/>
    <path d="M70 135 H100 M165 130 H195" stroke="#c9a227" stroke-width="2.5"/>
  </g>
  <rect width="256" height="256" fill="none" stroke="#0a0704" stroke-width="16" opacity="0.4"/>
  <!-- pulp corner marks -->
  <path d="M10 10 H42 M10 10 V42" stroke="#c9a227" stroke-width="2" opacity="0.4"/>
  <path d="M246 10 H214 M246 10 V42" stroke="#c9a227" stroke-width="2" opacity="0.4"/>
  <path d="M10 246 H42 M10 246 V214" stroke="#c9a227" stroke-width="2" opacity="0.4"/>
  <path d="M246 246 H214 M246 246 V214" stroke="#c9a227" stroke-width="2" opacity="0.4"/>
</svg>
