<?xml version="1.0" encoding="UTF-8"?>
<svg xmlns="http://www.w3.org/2000/svg" width="256" height="256" viewBox="0 0 256 256" fill="none" role="img" aria-label="cyber plate neon wilderland">
  <defs>
    <linearGradient id="sky-c0" x1="0" y1="0" x2="0" y2="1">
      <stop offset="0%" stop-color="#1a2228"/>
      <stop offset="45%" stop-color="#0e1418"/>
      <stop offset="100%" stop-color="#06080a"/>
    </linearGradient>
    <radialGradient id="chrome-c0" cx="55%" cy="40%" r="45%">
      <stop offset="0%" stop-color="#8a9aaa" stop-opacity="0.45"/>
      <stop offset="40%" stop-color="#c9a227" stop-opacity="0.15"/>
      <stop offset="100%" stop-color="#8a9aaa" stop-opacity="0"/>
    </radialGradient>
  </defs>
  <rect width="256" height="256" fill="url(#sky-c0)"/>
  <ellipse cx="140" cy="100" rx="100" ry="80" fill="url(#chrome-c0)"/>
  <!-- skyline blocks -->
  <g fill="#12161a" opacity="0.85">
    <rect x="10" y="100" width="40" height="90"/><rect x="55" y="80" width="30" height="110"/>
    <rect x="180" y="90" width="50" height="100"/><rect x="220" y="70" width="30" height="120"/>
  </g>
  <g stroke="#c9a227" stroke-width="1.5" opacity="0.4">
    <path d="M20 120 H40 M20 140 H40 M65 100 H75 M190 110 H220 M230 90 H245"/>
  </g>
  <path d="M0 185 H256 V256 H0 Z" fill="#0a0c10"/>
  <!-- chrome gauntlet / implant -->
  <g>
    <path d="M70 90 L130 70 L190 100 L175 170 L100 185 L60 140 Z" fill="#4a5258" stroke="#0a0704" stroke-width="4"/>
    <path d="M90 100 L150 85 L165 130 L110 150 Z" fill="#8a9aaa" stroke="#0a0704" stroke-width="2.5"/>
    <rect x="105" y="115" width="40" height="12" rx="2" fill="#0a0704" stroke="#c9a227" stroke-width="2"/>
    <circle cx="125" cy="121" r="3" fill="#e8c547"/>
  </g>
  <rect width="256" height="256" fill="none" stroke="#0a0704" stroke-width="18" opacity="0.45"/>
  <!-- pulp corner marks -->
  <path d="M10 10 H42 M10 10 V42" stroke="#c9a227" stroke-width="2" opacity="0.4"/>
  <path d="M246 10 H214 M246 10 V42" stroke="#c9a227" stroke-width="2" opacity="0.4"/>
  <path d="M10 246 H42 M10 246 V214" stroke="#c9a227" stroke-width="2" opacity="0.4"/>
  <path d="M246 246 H214 M246 246 V214" stroke="#c9a227" stroke-width="2" opacity="0.4"/>
</svg>
