<?xml version="1.0" encoding="UTF-8"?>
<svg xmlns="http://www.w3.org/2000/svg" width="256" height="256" viewBox="0 0 256 256" fill="none" role="img" aria-label="gun plate mesa dusk">
  <defs>
    <linearGradient id="sky-g0" x1="0" y1="0" x2="0" y2="1">
      <stop offset="0%" stop-color="#c4893a"/>
      <stop offset="28%" stop-color="#8a4a28"/>
      <stop offset="55%" stop-color="#3a2014"/>
      <stop offset="100%" stop-color="#0c0804"/>
    </linearGradient>
    <radialGradient id="sun-g0" cx="80%" cy="18%" r="30%">
      <stop offset="0%" stop-color="#fff8ec" stop-opacity="0.7"/>
      <stop offset="40%" stop-color="#c44a1f" stop-opacity="0.35"/>
      <stop offset="100%" stop-color="#c44a1f" stop-opacity="0"/>
    </radialGradient>
  </defs>
  <rect width="256" height="256" fill="url(#sky-g0)"/>
  <circle cx="200" cy="48" r="50" fill="url(#sun-g0)"/>
  <circle cx="200" cy="48" r="16" fill="#f0e2c4" opacity="0.85"/>
  <!-- mesa -->
  <path d="M0 140 L40 140 L50 100 L90 100 L100 140 L160 140 L170 85 L210 85 L220 140 L256 140 V256 H0 Z" fill="#2a1c10" opacity="0.85"/>
  <path d="M0 165 Q90 150 180 170 Q220 178 256 160 V256 H0 Z" fill="#1a120c"/>
  <path d="M0 200 H256 V256 H0 Z" fill="#0a0704"/>
  <!-- revolver silhouette large -->
  <g transform="translate(8,20) scale(1.05)">
    <path d="M40 100 H165 L182 82 H210 V112 H182 L165 128 H115 V172 H88 V128 H40 Z" fill="#3a3838" stroke="#0a0704" stroke-width="3.5"/>
    <rect x="28" y="90" width="30" height="42" rx="3" fill="#2a2218" stroke="#0a0704" stroke-width="3"/>
    <circle cx="62" cy="112" r="7" fill="#c9a227"/>
    <path d="M170 90 L200 72" stroke="#e8c547" stroke-width="3"/>
  </g>
  <rect width="256" height="256" fill="none" stroke="#0a0704" stroke-width="16" opacity="0.35"/>
  <!-- pulp corner marks -->
  <path d="M10 10 H42 M10 10 V42" stroke="#c9a227" stroke-width="2" opacity="0.4"/>
  <path d="M246 10 H214 M246 10 V42" stroke="#c9a227" stroke-width="2" opacity="0.4"/>
  <path d="M10 246 H42 M10 246 V214" stroke="#c9a227" stroke-width="2" opacity="0.4"/>
  <path d="M246 246 H214 M246 246 V214" stroke="#c9a227" stroke-width="2" opacity="0.4"/>
</svg>
