<?xml version="1.0" encoding="UTF-8"?>
<svg xmlns="http://www.w3.org/2000/svg" width="256" height="256" viewBox="0 0 256 256" fill="none" role="img" aria-label="armor plate battlefield dusk">
  <defs>
    <linearGradient id="sky-ar1" x1="0" y1="0" x2="0" y2="1">
      <stop offset="0%" stop-color="#4a2818"/>
      <stop offset="35%" stop-color="#2a1810"/>
      <stop offset="100%" stop-color="#0a0604"/>
    </linearGradient>
    <radialGradient id="smoke-ar1" cx="60%" cy="30%" r="45%">
      <stop offset="0%" stop-color="#8a6a4a" stop-opacity="0.3"/>
      <stop offset="100%" stop-color="#8a6a4a" stop-opacity="0"/>
    </radialGradient>
  </defs>
  <rect width="256" height="256" fill="url(#sky-ar1)"/>
  <ellipse cx="160" cy="70" rx="100" ry="70" fill="url(#smoke-ar1)"/>
  <!-- distant banners -->
  <path d="M40 90 V170" stroke="#3a2414" stroke-width="4"/>
  <path d="M40 90 H70 L60 110 H40 Z" fill="#8a2424"/>
  <path d="M210 80 V165" stroke="#3a2414" stroke-width="4"/>
  <path d="M210 80 H235 L228 100 H210 Z" fill="#8a2424" opacity="0.8"/>
  <path d="M0 180 Q128 160 256 185 V256 H0 Z" fill="#1a120c"/>
  <!-- cuirass three-quarter -->
  <g transform="translate(0,10)">
    <path d="M85 55 L128 40 L171 55 L185 140 L128 175 L71 140 Z" fill="#4a4e52" stroke="#0a0704" stroke-width="4"/>
    <path d="M100 75 Q128 95 156 75" fill="none" stroke="#c9a227" stroke-width="3"/>
    <path d="M110 55 L110 90 M146 55 L146 90" stroke="#2a2218" stroke-width="6"/>
  </g>
  <rect width="256" height="256" fill="none" stroke="#0a0704" stroke-width="18" opacity="0.4"/>
  <!-- pulp corner marks -->
  <path d="M10 10 H42 M10 10 V42" stroke="#c9a227" stroke-width="2" opacity="0.4"/>
  <path d="M246 10 H214 M246 10 V42" stroke="#c9a227" stroke-width="2" opacity="0.4"/>
  <path d="M10 246 H42 M10 246 V214" stroke="#c9a227" stroke-width="2" opacity="0.4"/>
  <path d="M246 246 H214 M246 246 V214" stroke="#c9a227" stroke-width="2" opacity="0.4"/>
</svg>
