<?xml version="1.0" encoding="UTF-8"?>
<svg xmlns="http://www.w3.org/2000/svg" width="256" height="256" viewBox="0 0 256 256" fill="none" role="img" aria-label="bow plate pine dawn">
  <defs>
    <linearGradient id="sky-bw0" x1="0" y1="0" x2="0" y2="1">
      <stop offset="0%" stop-color="#3a4a38"/>
      <stop offset="35%" stop-color="#2a3428"/>
      <stop offset="100%" stop-color="#0a1008"/>
    </linearGradient>
    <radialGradient id="dawn-bw0" cx="20%" cy="25%" r="40%">
      <stop offset="0%" stop-color="#c4893a" stop-opacity="0.45"/>
      <stop offset="100%" stop-color="#c4893a" stop-opacity="0"/>
    </radialGradient>
  </defs>
  <rect width="256" height="256" fill="url(#sky-bw0)"/>
  <ellipse cx="50" cy="60" rx="80" ry="60" fill="url(#dawn-bw0)"/>
  <!-- pines -->
  <g fill="#1a2818" opacity="0.85">
    <path d="M20 180 L45 90 L70 180 Z"/><path d="M55 190 L85 100 L115 190 Z"/>
    <path d="M160 185 L195 80 L230 185 Z"/><path d="M200 195 L235 110 L256 195 L256 210 H200 Z"/>
  </g>
  <path d="M0 195 Q128 175 256 200 V256 H0 Z" fill="#14180e"/>
  <path d="M0 220 H256 V256 H0 Z" fill="#0a0e08"/>
  <!-- longbow -->
  <g>
    <path d="M90 30 Q40 128 90 225" fill="none" stroke="#6a4420" stroke-width="10" stroke-linecap="round"/>
    <path d="M90 30 Q40 128 90 225" fill="none" stroke="#c9a227" stroke-width="3" opacity="0.5"/>
    <path d="M90 35 L90 220" stroke="#e8dcc8" stroke-width="2" opacity="0.7"/>
    <path d="M90 118 H195" stroke="#8a9aaa" stroke-width="4"/>
    <path d="M195 118 L185 112 L185 124 Z" fill="#c9a227"/>
  </g>
  <rect width="256" height="256" fill="none" stroke="#0a0704" stroke-width="16" opacity="0.4"/>
  <!-- pulp corner marks -->
  <path d="M10 10 H42 M10 10 V42" stroke="#c9a227" stroke-width="2" opacity="0.4"/>
  <path d="M246 10 H214 M246 10 V42" stroke="#c9a227" stroke-width="2" opacity="0.4"/>
  <path d="M10 246 H42 M10 246 V214" stroke="#c9a227" stroke-width="2" opacity="0.4"/>
  <path d="M246 246 H214 M246 246 V214" stroke="#c9a227" stroke-width="2" opacity="0.4"/>
</svg>
