<?xml version="1.0" encoding="UTF-8"?>
<svg xmlns="http://www.w3.org/2000/svg" width="256" height="256" viewBox="0 0 256 256" fill="none" role="img" aria-label="vial plate alchemy night">
  <defs>
    <linearGradient id="sky-v1" x1="0" y1="0" x2="0" y2="1">
      <stop offset="0%" stop-color="#1a2418"/>
      <stop offset="50%" stop-color="#0e140e"/>
      <stop offset="100%" stop-color="#060806"/>
    </linearGradient>
    <radialGradient id="glow-v1" cx="50%" cy="50%" r="45%">
      <stop offset="0%" stop-color="#4a6b42" stop-opacity="0.55"/>
      <stop offset="50%" stop-color="#2f5e3a" stop-opacity="0.2"/>
      <stop offset="100%" stop-color="#2f5e3a" stop-opacity="0"/>
    </radialGradient>
    <linearGradient id="liq-v1" x1="0" y1="0" x2="0" y2="1">
      <stop offset="0%" stop-color="#6a7d52"/>
      <stop offset="100%" stop-color="#2f5e3a"/>
    </linearGradient>
  </defs>
  <rect width="256" height="256" fill="url(#sky-v1)"/>
  <ellipse cx="128" cy="128" rx="100" ry="90" fill="url(#glow-v1)"/>
  <!-- runic circle -->
  <circle cx="128" cy="140" r="70" fill="none" stroke="#c9a227" stroke-width="2" opacity="0.35"/>
  <circle cx="128" cy="140" r="50" fill="none" stroke="#6a7d52" stroke-width="1.5" opacity="0.4"/>
  <path d="M0 200 H256 V256 H0 Z" fill="#0a0e08"/>
  <!-- round flask -->
  <g>
    <rect x="114" y="45" width="28" height="30" rx="2" fill="#3a4030" stroke="#0a0704" stroke-width="3"/>
    <circle cx="128" cy="130" r="55" fill="#1a2820" stroke="#0a0704" stroke-width="4" opacity="0.9"/>
    <circle cx="128" cy="135" r="40" fill="url(#liq-v1)" opacity="0.75"/>
    <path d="M105 110 Q128 100 151 110" fill="none" stroke="#fff8ec" stroke-width="2" opacity="0.3"/>
    <circle cx="115" cy="145" r="4" fill="#c9a227" opacity="0.7"/>
    <circle cx="140" cy="155" r="3" fill="#e8c547" opacity="0.6"/>
  </g>
  <rect width="256" height="256" fill="none" stroke="#0a0704" stroke-width="18" opacity="0.45"/>
  <!-- pulp corner marks -->
  <path d="M10 10 H42 M10 10 V42" stroke="#c9a227" stroke-width="2" opacity="0.4"/>
  <path d="M246 10 H214 M246 10 V42" stroke="#c9a227" stroke-width="2" opacity="0.4"/>
  <path d="M10 246 H42 M10 246 V214" stroke="#c9a227" stroke-width="2" opacity="0.4"/>
  <path d="M246 246 H214 M246 246 V214" stroke="#c9a227" stroke-width="2" opacity="0.4"/>
</svg>
