<?xml version="1.0" encoding="UTF-8"?>
<svg xmlns="http://www.w3.org/2000/svg" width="256" height="256" viewBox="0 0 256 256" fill="none" role="img" aria-label="trinket plate relic shrine">
  <defs>
    <linearGradient id="sky-t0" x1="0" y1="0" x2="0" y2="1">
      <stop offset="0%" stop-color="#2a241c"/>
      <stop offset="50%" stop-color="#181410"/>
      <stop offset="100%" stop-color="#080604"/>
    </linearGradient>
    <radialGradient id="halo-t0" cx="50%" cy="40%" r="40%">
      <stop offset="0%" stop-color="#c9a227" stop-opacity="0.5"/>
      <stop offset="100%" stop-color="#c9a227" stop-opacity="0"/>
    </radialGradient>
  </defs>
  <rect width="256" height="256" fill="url(#sky-t0)"/>
  <ellipse cx="128" cy="100" rx="85" ry="70" fill="url(#halo-t0)"/>
  <!-- stone niche -->
  <path d="M50 220 V90 Q50 40 128 40 Q206 40 206 90 V220" fill="#1a1610" stroke="#3a3028" stroke-width="4"/>
  <path d="M0 210 H256 V256 H0 Z" fill="#100c08"/>
  <!-- amulet -->
  <g>
    <path d="M128 55 Q100 80 128 100 Q156 80 128 55" fill="none" stroke="#c9a227" stroke-width="4"/>
    <circle cx="128" cy="130" r="40" fill="#5a4030" stroke="#0a0704" stroke-width="4"/>
    <circle cx="128" cy="130" r="28" fill="#2a1f14" stroke="#c9a227" stroke-width="3"/>
    <path d="M128 110 L138 130 L128 150 L118 130 Z" fill="#e8c547"/>
  </g>
  <rect width="256" height="256" fill="none" stroke="#0a0704" stroke-width="16" opacity="0.4"/>
  <!-- pulp corner marks -->
  <path d="M10 10 H42 M10 10 V42" stroke="#c9a227" stroke-width="2" opacity="0.4"/>
  <path d="M246 10 H214 M246 10 V42" stroke="#c9a227" stroke-width="2" opacity="0.4"/>
  <path d="M10 246 H42 M10 246 V214" stroke="#c9a227" stroke-width="2" opacity="0.4"/>
  <path d="M246 246 H214 M246 246 V214" stroke="#c9a227" stroke-width="2" opacity="0.4"/>
</svg>
