<?xml version="1.0" encoding="UTF-8"?>
<svg xmlns="http://www.w3.org/2000/svg" width="256" height="256" viewBox="0 0 256 256" fill="none" role="img" aria-label="helm plate trophy rack">
  <defs>
    <linearGradient id="sky-h0" x1="0" y1="0" x2="0" y2="1">
      <stop offset="0%" stop-color="#2a241c"/>
      <stop offset="50%" stop-color="#181410"/>
      <stop offset="100%" stop-color="#080604"/>
    </linearGradient>
    <radialGradient id="spot-h0" cx="50%" cy="35%" r="40%">
      <stop offset="0%" stop-color="#c9a227" stop-opacity="0.4"/>
      <stop offset="100%" stop-color="#c9a227" stop-opacity="0"/>
    </radialGradient>
  </defs>
  <rect width="256" height="256" fill="url(#sky-h0)"/>
  <ellipse cx="128" cy="90" rx="85" ry="65" fill="url(#spot-h0)"/>
  <!-- wood panel -->
  <rect x="30" y="40" width="196" height="160" fill="#1a1410" stroke="#3a2818" stroke-width="4" opacity="0.5"/>
  <path d="M0 200 H256 V256 H0 Z" fill="#100c08"/>
  <!-- great helm -->
  <g>
    <path d="M78 70 Q78 45 128 40 Q178 45 178 70 L185 140 Q128 175 71 140 Z" fill="#6a7080" stroke="#0a0704" stroke-width="4"/>
    <rect x="95" y="85" width="66" height="12" fill="#0a0704"/>
    <rect x="95" y="105" width="66" height="8" fill="#0a0704"/>
    <path d="M100 55 Q128 48 156 55" fill="none" stroke="#c9a227" stroke-width="3"/>
    <circle cx="128" cy="130" r="8" fill="#c9a227"/>
  </g>
  <rect width="256" height="256" fill="none" stroke="#0a0704" stroke-width="16" opacity="0.4"/>
  <!-- pulp corner marks -->
  <path d="M10 10 H42 M10 10 V42" stroke="#c9a227" stroke-width="2" opacity="0.4"/>
  <path d="M246 10 H214 M246 10 V42" stroke="#c9a227" stroke-width="2" opacity="0.4"/>
  <path d="M10 246 H42 M10 246 V214" stroke="#c9a227" stroke-width="2" opacity="0.4"/>
  <path d="M246 246 H214 M246 246 V214" stroke="#c9a227" stroke-width="2" opacity="0.4"/>
</svg>
