<?xml version="1.0" encoding="UTF-8"?>
<svg xmlns="http://www.w3.org/2000/svg" width="256" height="256" viewBox="0 0 256 256" fill="none" role="img" aria-label="polearm plate fort dawn">
  <defs>
    <linearGradient id="sky-p0" x1="0" y1="0" x2="0" y2="1">
      <stop offset="0%" stop-color="#6a4830"/>
      <stop offset="35%" stop-color="#3a2818"/>
      <stop offset="100%" stop-color="#0a0604"/>
    </linearGradient>
    <radialGradient id="dawn-p0" cx="15%" cy="20%" r="35%">
      <stop offset="0%" stop-color="#e8c547" stop-opacity="0.4"/>
      <stop offset="100%" stop-color="#e8c547" stop-opacity="0"/>
    </radialGradient>
  </defs>
  <rect width="256" height="256" fill="url(#sky-p0)"/>
  <ellipse cx="40" cy="50" rx="70" ry="50" fill="url(#dawn-p0)"/>
  <!-- fort wall -->
  <path d="M0 130 H256 V256 H0 Z" fill="#2a2218"/>
  <g fill="#1a1410">
    <rect x="20" y="110" width="28" height="30"/><rect x="60" y="110" width="28" height="30"/>
    <rect x="100" y="110" width="28" height="30"/><rect x="168" y="110" width="28" height="30"/>
    <rect x="208" y="110" width="28" height="30"/>
  </g>
  <path d="M0 160 H256" stroke="#c9a227" stroke-width="2" opacity="0.3"/>
  <!-- spear upright -->
  <g>
    <path d="M128 20 V200" stroke="#5a4030" stroke-width="8" stroke-linecap="round"/>
    <path d="M128 20 L145 55 L128 48 L111 55 Z" fill="#8a9aaa" stroke="#0a0704" stroke-width="3"/>
    <path d="M118 200 H138" stroke="#c9a227" stroke-width="4"/>
  </g>
  <rect width="256" height="256" fill="none" stroke="#0a0704" stroke-width="16" opacity="0.4"/>
  <!-- pulp corner marks -->
  <path d="M10 10 H42 M10 10 V42" stroke="#c9a227" stroke-width="2" opacity="0.4"/>
  <path d="M246 10 H214 M246 10 V42" stroke="#c9a227" stroke-width="2" opacity="0.4"/>
  <path d="M10 246 H42 M10 246 V214" stroke="#c9a227" stroke-width="2" opacity="0.4"/>
  <path d="M246 246 H214 M246 246 V214" stroke="#c9a227" stroke-width="2" opacity="0.4"/>
</svg>
