<?xml version="1.0" encoding="UTF-8"?>
<svg xmlns="http://www.w3.org/2000/svg" width="256" height="256" viewBox="0 0 256 256" fill="none" role="img" aria-label="gloves plate leather bench">
  <defs>
    <linearGradient id="sky-gl0" x1="0" y1="0" x2="0" y2="1">
      <stop offset="0%" stop-color="#3a2c20"/>
      <stop offset="45%" stop-color="#221810"/>
      <stop offset="100%" stop-color="#0a0604"/>
    </linearGradient>
    <radialGradient id="lamp-gl0" cx="70%" cy="25%" r="35%">
      <stop offset="0%" stop-color="#c4893a" stop-opacity="0.45"/>
      <stop offset="100%" stop-color="#c4893a" stop-opacity="0"/>
    </radialGradient>
  </defs>
  <rect width="256" height="256" fill="url(#sky-gl0)"/>
  <ellipse cx="180" cy="60" rx="70" ry="50" fill="url(#lamp-gl0)"/>
  <!-- workbench -->
  <path d="M0 170 H256 V256 H0 Z" fill="#1a120c"/>
  <path d="M0 170 H256" stroke="#5a4030" stroke-width="6"/>
  <path d="M0 170 H256" stroke="#c9a227" stroke-width="1.5" opacity="0.3"/>
  <!-- leather gloves -->
  <g>
    <path d="M70 90 L95 70 L120 85 L125 150 L95 165 L65 145 Z" fill="#6a4420" stroke="#0a0704" stroke-width="3.5"/>
    <path d="M136 85 L165 65 L195 90 L200 150 L165 168 L130 145 Z" fill="#5a3820" stroke="#0a0704" stroke-width="3.5"/>
    <path d="M85 100 L85 140 M105 95 L105 145" stroke="#3a2414" stroke-width="3"/>
    <path d="M155 95 L155 145 M175 100 L175 140" stroke="#3a2414" stroke-width="3"/>
    <circle cx="100" cy="155" r="4" fill="#c9a227"/>
    <circle cx="165" cy="158" r="4" fill="#c9a227"/>
  </g>
  <rect width="256" height="256" fill="none" stroke="#0a0704" stroke-width="16" opacity="0.4"/>
  <!-- pulp corner marks -->
  <path d="M10 10 H42 M10 10 V42" stroke="#c9a227" stroke-width="2" opacity="0.4"/>
  <path d="M246 10 H214 M246 10 V42" stroke="#c9a227" stroke-width="2" opacity="0.4"/>
  <path d="M10 246 H42 M10 246 V214" stroke="#c9a227" stroke-width="2" opacity="0.4"/>
  <path d="M246 246 H214 M246 246 V214" stroke="#c9a227" stroke-width="2" opacity="0.4"/>
</svg>
