<?xml version="1.0" encoding="UTF-8"?>
<svg xmlns="http://www.w3.org/2000/svg" width="256" height="256" viewBox="0 0 256 256" fill="none" role="img" aria-label="tool plate trail kit dawn">
  <defs>
    <linearGradient id="sky-to1" x1="0" y1="0" x2="0" y2="1">
      <stop offset="0%" stop-color="#5a4830"/>
      <stop offset="35%" stop-color="#3a2818"/>
      <stop offset="100%" stop-color="#0c0804"/>
    </linearGradient>
    <radialGradient id="sun-to1" cx="85%" cy="15%" r="30%">
      <stop offset="0%" stop-color="#e8c547" stop-opacity="0.5"/>
      <stop offset="100%" stop-color="#e8c547" stop-opacity="0"/>
    </radialGradient>
  </defs>
  <rect width="256" height="256" fill="url(#sky-to1)"/>
  <circle cx="210" cy="40" r="45" fill="url(#sun-to1)"/>
  <path d="M0 150 Q90 130 180 155 Q220 165 256 145 V256 H0 Z" fill="#2a1c10"/>
  <path d="M0 185 Q128 170 256 190 V256 H0 Z" fill="#14100c"/>
  <!-- bedroll + kit -->
  <g>
    <ellipse cx="90" cy="165" rx="50" ry="22" fill="#5a4030" stroke="#0a0704" stroke-width="3"/>
    <rect x="55" y="150" width="70" height="28" rx="4" fill="#3a2818" stroke="#c9a227" stroke-width="2"/>
    <rect x="140" y="100" width="70" height="55" rx="4" fill="#4a3828" stroke="#0a0704" stroke-width="3"/>
    <path d="M150 115 H200 M150 130 H190" stroke="#c9a227" stroke-width="2" opacity="0.5"/>
    <circle cx="175" cy="145" r="6" fill="#c9a227"/>
  </g>
  <rect width="256" height="256" fill="none" stroke="#0a0704" stroke-width="16" opacity="0.4"/>
  <!-- pulp corner marks -->
  <path d="M10 10 H42 M10 10 V42" stroke="#c9a227" stroke-width="2" opacity="0.4"/>
  <path d="M246 10 H214 M246 10 V42" stroke="#c9a227" stroke-width="2" opacity="0.4"/>
  <path d="M10 246 H42 M10 246 V214" stroke="#c9a227" stroke-width="2" opacity="0.4"/>
  <path d="M246 246 H214 M246 246 V214" stroke="#c9a227" stroke-width="2" opacity="0.4"/>
</svg>
