<?xml version="1.0" encoding="UTF-8"?>
<svg xmlns="http://www.w3.org/2000/svg" width="256" height="256" viewBox="0 0 256 256" fill="none" role="img" aria-label="boots plate muddy trail">
  <defs>
    <linearGradient id="sky-bt0" x1="0" y1="0" x2="0" y2="1">
      <stop offset="0%" stop-color="#3a4030"/>
      <stop offset="40%" stop-color="#242820"/>
      <stop offset="100%" stop-color="#0c1008"/>
    </linearGradient>
    <radialGradient id="fog-bt0" cx="40%" cy="30%" r="45%">
      <stop offset="0%" stop-color="#c4a882" stop-opacity="0.22"/>
      <stop offset="100%" stop-color="#c4a882" stop-opacity="0"/>
    </radialGradient>
  </defs>
  <rect width="256" height="256" fill="url(#sky-bt0)"/>
  <ellipse cx="100" cy="70" rx="90" ry="60" fill="url(#fog-bt0)"/>
  <!-- trail ruts -->
  <path d="M0 160 Q80 145 160 165 Q210 175 256 155 V256 H0 Z" fill="#2a2218"/>
  <path d="M0 190 Q100 175 200 195 Q230 200 256 185 V256 H0 Z" fill="#1a1410"/>
  <path d="M40 175 Q70 185 90 175" fill="none" stroke="#0a0704" stroke-width="4" opacity="0.5"/>
  <path d="M140 185 Q170 195 200 180" fill="none" stroke="#0a0704" stroke-width="4" opacity="0.4"/>
  <!-- boots -->
  <g>
    <path d="M60 100 L95 90 L110 140 L130 175 L90 185 L55 150 Z" fill="#5a3820" stroke="#0a0704" stroke-width="3.5"/>
    <path d="M130 95 L170 85 L185 140 L205 170 L160 185 L125 145 Z" fill="#4a3020" stroke="#0a0704" stroke-width="3.5"/>
    <path d="M70 130 H105 M145 125 H180" stroke="#c9a227" stroke-width="3"/>
  </g>
  <rect width="256" height="256" fill="none" stroke="#0a0704" stroke-width="16" opacity="0.4"/>
  <!-- pulp corner marks -->
  <path d="M10 10 H42 M10 10 V42" stroke="#c9a227" stroke-width="2" opacity="0.4"/>
  <path d="M246 10 H214 M246 10 V42" stroke="#c9a227" stroke-width="2" opacity="0.4"/>
  <path d="M10 246 H42 M10 246 V214" stroke="#c9a227" stroke-width="2" opacity="0.4"/>
  <path d="M246 246 H214 M246 246 V214" stroke="#c9a227" stroke-width="2" opacity="0.4"/>
</svg>
