<?xml version="1.0" encoding="UTF-8"?>
<svg xmlns="http://www.w3.org/2000/svg" width="256" height="256" viewBox="0 0 256 256" fill="none" role="img" aria-label="shield plate citadel gate">
  <defs>
    <linearGradient id="sky-sh0" x1="0" y1="0" x2="0" y2="1">
      <stop offset="0%" stop-color="#3a3028"/>
      <stop offset="40%" stop-color="#221c16"/>
      <stop offset="100%" stop-color="#0a0806"/>
    </linearGradient>
    <radialGradient id="brass-sh0" cx="50%" cy="40%" r="40%">
      <stop offset="0%" stop-color="#c9a227" stop-opacity="0.35"/>
      <stop offset="100%" stop-color="#c9a227" stop-opacity="0"/>
    </radialGradient>
  </defs>
  <rect width="256" height="256" fill="url(#sky-sh0)"/>
  <ellipse cx="128" cy="100" rx="90" ry="70" fill="url(#brass-sh0)"/>
  <!-- gate arch -->
  <path d="M40 256 V120 Q40 50 128 50 Q216 50 216 120 V256" fill="none" stroke="#1a1410" stroke-width="28"/>
  <path d="M40 256 V120 Q40 50 128 50 Q216 50 216 120 V256" fill="none" stroke="#c9a227" stroke-width="3" opacity="0.35"/>
  <path d="M0 210 H256 V256 H0 Z" fill="#12100c"/>
  <!-- kite shield -->
  <g>
    <path d="M128 45 L190 75 L175 160 L128 210 L81 160 L66 75 Z" fill="#5a4e42" stroke="#0a0704" stroke-width="4"/>
    <path d="M128 55 L175 80 L165 150 L128 190 L91 150 L81 80 Z" fill="#3a342c" stroke="#c9a227" stroke-width="2.5"/>
    <circle cx="128" cy="110" r="18" fill="#2a1f14" stroke="#c9a227" stroke-width="3"/>
    <path d="M128 98 V122 M116 110 H140" stroke="#c9a227" stroke-width="3"/>
  </g>
  <rect width="256" height="256" fill="none" stroke="#0a0704" stroke-width="16" opacity="0.4"/>
  <!-- pulp corner marks -->
  <path d="M10 10 H42 M10 10 V42" stroke="#c9a227" stroke-width="2" opacity="0.4"/>
  <path d="M246 10 H214 M246 10 V42" stroke="#c9a227" stroke-width="2" opacity="0.4"/>
  <path d="M10 246 H42 M10 246 V214" stroke="#c9a227" stroke-width="2" opacity="0.4"/>
  <path d="M246 246 H214 M246 246 V214" stroke="#c9a227" stroke-width="2" opacity="0.4"/>
</svg>
