<?xml version="1.0" encoding="UTF-8"?>
<svg xmlns="http://www.w3.org/2000/svg" width="256" height="256" viewBox="0 0 256 256" fill="none" role="img" aria-label="cyber plate scrapyard sparks">
  <defs>
    <linearGradient id="sky-c1" x1="0" y1="0" x2="0" y2="1">
      <stop offset="0%" stop-color="#2a2018"/>
      <stop offset="50%" stop-color="#16120e"/>
      <stop offset="100%" stop-color="#080604"/>
    </linearGradient>
    <radialGradient id="spark-c1" cx="40%" cy="55%" r="45%">
      <stop offset="0%" stop-color="#e8c547" stop-opacity="0.45"/>
      <stop offset="40%" stop-color="#c44a1f" stop-opacity="0.2"/>
      <stop offset="100%" stop-color="#0a0704" stop-opacity="0"/>
    </radialGradient>
  </defs>
  <rect width="256" height="256" fill="url(#sky-c1)"/>
  <ellipse cx="100" cy="140" rx="100" ry="80" fill="url(#spark-c1)"/>
  <!-- scrap piles -->
  <path d="M0 160 L40 130 L70 155 L100 125 L140 160 L180 135 L220 160 L256 140 V256 H0 Z" fill="#2a2218" opacity="0.9"/>
  <path d="M0 190 H256 V256 H0 Z" fill="#12100c"/>
  <!-- optic / chip -->
  <g>
    <rect x="80" y="70" width="100" height="70" rx="6" fill="#3a4048" stroke="#0a0704" stroke-width="4"/>
    <circle cx="130" cy="105" r="28" fill="#1a1e24" stroke="#c9a227" stroke-width="3"/>
    <circle cx="130" cy="105" r="14" fill="#8a9aaa"/>
    <circle cx="130" cy="105" r="6" fill="#e8c547"/>
    <path d="M90 150 H170" stroke="#c44a1f" stroke-width="3" opacity="0.7"/>
  </g>
  <circle cx="60" cy="170" r="2" fill="#e8c547"/><circle cx="75" cy="160" r="1.5" fill="#fff8ec"/>
  <circle cx="50" cy="155" r="2" fill="#c44a1f"/>
  <rect width="256" height="256" fill="none" stroke="#0a0704" stroke-width="16" opacity="0.4"/>
  <!-- pulp corner marks -->
  <path d="M10 10 H42 M10 10 V42" stroke="#c9a227" stroke-width="2" opacity="0.4"/>
  <path d="M246 10 H214 M246 10 V42" stroke="#c9a227" stroke-width="2" opacity="0.4"/>
  <path d="M10 246 H42 M10 246 V214" stroke="#c9a227" stroke-width="2" opacity="0.4"/>
  <path d="M246 246 H214 M246 246 V214" stroke="#c9a227" stroke-width="2" opacity="0.4"/>
</svg>
