<?xml version="1.0" encoding="UTF-8"?>
<svg xmlns="http://www.w3.org/2000/svg" width="128" height="128" viewBox="0 0 128 128" fill="none" role="img" aria-label="Ash-Veil Revolver">
  <defs>
    <radialGradient id="gdtashveilrevolver" cx="50%" cy="45%" r="55%">
      <stop offset="0%" stop-color="#fff8ec"/>
      <stop offset="100%" stop-color="#e8dcc4"/>
    </radialGradient>
  </defs>
  <circle cx="64" cy="64" r="58" fill="url(#gdtashveilrevolver)" stroke="#1a120c" stroke-width="3"/>
  <circle cx="64" cy="64" r="52" fill="none" stroke="#c45a3a" stroke-width="1.5" opacity="0.55"/>

  <path d="M26 68 L52 68 L58 58 L80 58 L86 66 L98 66 L98 80 L86 80 L80 90 L52 90 L46 80 L26 80 Z" fill="#6a7078" stroke="#1a120c" stroke-width="2.5" stroke-linejoin="round"/>
  <rect x="14" y="64" width="18" height="22" rx="3" fill="#3a3028" stroke="#1a120c" stroke-width="2.5"/>
  <circle cx="68" cy="72" r="12" fill="#6a7078" stroke="#1a120c" stroke-width="2.5"/>
  <circle cx="68" cy="72" r="4.5" fill="#1a120c"/>
  <rect x="90" y="62" width="20" height="10" rx="1" fill="#6a7078" stroke="#1a120c" stroke-width="2"/>
  <path d="M100 56 Q110 44 120 50 Q112 60 104 62" fill="#c8c0b0" opacity="0.75" stroke="#1a120c" stroke-width="1.5"/>
  <circle cx="24" cy="72" r="3" fill="#c45a3a" stroke="#1a120c" stroke-width="1"/>
</svg>
