<?xml version="1.0" encoding="UTF-8"?>
<svg xmlns="http://www.w3.org/2000/svg" width="128" height="128" viewBox="0 0 128 128" fill="none" role="img" aria-label="Ash-Veil Revolver">
  <defs>
    <radialGradient id="g" cx="50%" cy="45%" r="55%">
      <stop offset="0%" stop-color="#fff8ec"/>
      <stop offset="100%" stop-color="#e8dcc4"/>
    </radialGradient>
  </defs>
  <circle cx="64" cy="64" r="58" fill="url(#g)" stroke="#1a120c" stroke-width="3"/>
  <circle cx="64" cy="64" r="52" fill="none" stroke="#c45a3a" stroke-width="1.5" opacity="0.55"/>

  <!-- ash-veil revolver -->
  <path d="M28 70 L52 70 L58 62 L78 62 L82 68 L96 68 L96 78 L82 78 L78 84 L52 84 L48 78 L28 78 Z" fill="#6a7078" stroke="#1a120c" stroke-width="2.5"/>
  <rect x="18" y="66" width="16" height="18" rx="2" fill="#3a3028" stroke="#1a120c" stroke-width="2"/>
  <circle cx="66" cy="72" r="10" fill="#6a7078" stroke="#1a120c" stroke-width="2.5"/>
  <circle cx="66" cy="72" r="4" fill="#1a120c"/>
  <rect x="88" y="64" width="18" height="8" rx="1" fill="#6a7078" stroke="#1a120c" stroke-width="2"/>
  <path d="M100 58 Q108 48 118 52 Q110 60 104 62" fill="#c8c0b0" opacity="0.7" stroke="#1a120c" stroke-width="1"/>
  <path d="M104 54 Q112 44 120 48" fill="none" stroke="#e8e0d0" stroke-width="2" opacity="0.8"/>
  <circle cx="26" cy="72" r="2" fill="#c45a3a"/>

</svg>
