<?xml version="1.0" encoding="UTF-8"?>
<svg xmlns="http://www.w3.org/2000/svg" width="128" height="128" viewBox="0 0 128 128" fill="none" role="img" aria-label="Liberation Gauntlets">
  <defs>
    <radialGradient id="gdtliberationgauntlets" cx="50%" cy="45%" r="55%">
      <stop offset="0%" stop-color="#fff8ec"/>
      <stop offset="100%" stop-color="#e8dcc4"/>
    </radialGradient>
  </defs>
  <circle cx="64" cy="64" r="58" fill="url(#gdtliberationgauntlets)" stroke="#1a120c" stroke-width="3"/>
  <circle cx="64" cy="64" r="52" fill="none" stroke="#c9a227" stroke-width="1.5" opacity="0.55"/>

  <path d="
    M34 78
    Q28 68 34 58
    L44 48
    L48 56
    L52 40
    Q52 28 60 28
    L66 28
    Q74 28 74 38
    L74 52
    L80 36
    Q80 26 88 26
    L92 26
    Q100 26 100 36
    L100 88
    Q100 102 86 102
    L52 102
    Q40 102 40 90
    L40 84
    Z" fill="#8a9aaa" stroke="#1a120c" stroke-width="2.5" stroke-linejoin="round"/>
  <rect x="48" y="68" width="48" height="12" rx="2" fill="#c9a227" stroke="#1a120c" stroke-width="2"/>
  <path d="M60 40 L60 56 M74 38 L74 56 M88 36 L88 56" stroke="#1a120c" stroke-width="2" opacity="0.4"/>
</svg>
