<?xml version="1.0" encoding="UTF-8"?>
<svg xmlns="http://www.w3.org/2000/svg" width="128" height="128" viewBox="0 0 128 128" fill="none" role="img" aria-label="Stock Whip">
  <defs>
    <radialGradient id="gdtstockwhip" cx="50%" cy="45%" r="55%">
      <stop offset="0%" stop-color="#fff8ec"/>
      <stop offset="100%" stop-color="#e8dcc4"/>
    </radialGradient>
  </defs>
  <circle cx="64" cy="64" r="58" fill="url(#gdtstockwhip)" stroke="#1a120c" stroke-width="3"/>
  <circle cx="64" cy="64" r="52" fill="none" stroke="#c45a3a" stroke-width="1.5" opacity="0.55"/>

  <rect x="20" y="52" width="20" height="32" rx="4" fill="#5a3a22" stroke="#1a120c" stroke-width="2.5"/>
  <path d="M40 62 Q60 38 82 50 Q100 62 90 84 Q78 100 60 90 Q50 84 58 72 Q70 60 80 68" fill="none" stroke="#5a3a22" stroke-width="6" stroke-linecap="round"/>
  <path d="M40 62 Q60 38 82 50 Q100 62 90 84 Q78 100 60 90 Q50 84 58 72 Q70 60 80 68" fill="none" stroke="#1a120c" stroke-width="2.5" stroke-linecap="round"/>
  <circle cx="30" cy="68" r="4" fill="#c9a227" stroke="#1a120c" stroke-width="1.5"/>
</svg>
