<?xml version="1.0" encoding="UTF-8"?>
<svg xmlns="http://www.w3.org/2000/svg" width="128" height="128" viewBox="0 0 128 128" fill="none" role="img" aria-label="Stock Whip">
  <defs>
    <radialGradient id="g" cx="50%" cy="45%" r="55%">
      <stop offset="0%" stop-color="#fff8ec"/>
      <stop offset="100%" stop-color="#e8dcc4"/>
    </radialGradient>
  </defs>
  <circle cx="64" cy="64" r="58" fill="url(#g)" stroke="#1a120c" stroke-width="3"/>
  <circle cx="64" cy="64" r="52" fill="none" stroke="#c45a3a" stroke-width="1.5" opacity="0.55"/>

  <!-- whip -->
  <rect x="22" y="54" width="18" height="28" rx="3" fill="#5a3a22" stroke="#1a120c" stroke-width="2.5"/>
  <path d="M40 62 Q58 40 78 52 Q96 64 88 82 Q78 96 62 88 Q52 82 58 72 Q68 62 76 68" fill="none" stroke="#5a3a22" stroke-width="5" stroke-linecap="round"/>
  <path d="M40 62 Q58 40 78 52 Q96 64 88 82 Q78 96 62 88 Q52 82 58 72 Q68 62 76 68" fill="none" stroke="#1a120c" stroke-width="2" stroke-linecap="round"/>
  <circle cx="31" cy="68" r="3" fill="#c9a227" stroke="#1a120c" stroke-width="1.5"/>

</svg>
