<?xml version="1.0" encoding="UTF-8"?>
<svg xmlns="http://www.w3.org/2000/svg" width="320" height="360" viewBox="0 0 320 360" fill="none">
  <defs>
    <linearGradient id="ebg-cloak" x1="0" y1="0" x2="0" y2="1">
      <stop offset="0%" stop-color="#2a1c14"/>
      <stop offset="100%" stop-color="#0c1210"/>
    </linearGradient>
  </defs>
  <rect width="320" height="360" fill="url(#ebg-cloak)"/>
  <ellipse cx="160" cy="300" rx="90" ry="18" fill="#1a2818" opacity="0.7"/>
  <path d="M100 280 L160 120 L220 280Z" fill="#2a2830" stroke="#0a0e14" stroke-width="4"/>
  <ellipse cx="160" cy="110" rx="28" ry="32" fill="#1a1820" stroke="#0a0e14" stroke-width="3"/>
  <path d="M140 100 L160 70 L180 100Z" fill="#1a1820"/>
  <ellipse cx="160" cy="115" rx="10" ry="4" fill="#e85d4c" opacity="0.6"/>
  <path d="M180 180 Q240 160 260 140" fill="none" stroke="#3a3840" stroke-width="8"/>
  <ellipse cx="250" cy="290" rx="40" ry="16" fill="#3a3830" opacity="0.5"/>
  <path d="M220 280 Q250 240 280 270 Q250 250 220 280" fill="#4a4840"/>
  
  <rect x="8" y="8" width="304" height="344" fill="none" stroke="#1a120c" stroke-width="10"/>
  <rect x="16" y="16" width="288" height="328" fill="none" stroke="#c45a3a" stroke-width="3"/>
  <rect x="12" y="12" width="14" height="14" fill="#c45a3a"/>
  <rect x="294" y="12" width="14" height="14" fill="#c45a3a"/>
  <rect x="12" y="334" width="14" height="14" fill="#8b3a2a"/>
  <rect x="294" y="334" width="14" height="14" fill="#8b3a2a"/>
  <text x="160" y="342" text-anchor="middle" font-family="Impact, Arial Black, sans-serif" font-size="16"
    fill="#f4efe4" stroke="#1a120c" stroke-width="4" paint-order="stroke">ASH-CLOAK</text>
</svg>
