<?xml version="1.0" encoding="UTF-8"?>
<svg xmlns="http://www.w3.org/2000/svg" width="320" height="360" viewBox="0 0 320 360" fill="none">
  <defs>
    <linearGradient id="ebg-guard" x1="0" y1="0" x2="0" y2="1">
      <stop offset="0%" stop-color="#2a1c14"/>
      <stop offset="100%" stop-color="#0c1210"/>
    </linearGradient>
  </defs>
  <rect width="320" height="360" fill="url(#ebg-guard)"/>
  <ellipse cx="160" cy="300" rx="90" ry="18" fill="#1a2818" opacity="0.7"/>
  <ellipse cx="160" cy="220" rx="42" ry="52" fill="#4a4a58" stroke="#0a0e14" stroke-width="4"/>
  <circle cx="160" cy="128" r="34" fill="#c4a882" stroke="#0a0e14" stroke-width="3"/>
  <rect x="130" y="160" width="60" height="40" fill="#5a5850" stroke="#0a0e14" stroke-width="2"/>
  <ellipse cx="148" cy="126" rx="5" ry="6" fill="#1a120c"/><ellipse cx="172" cy="126" rx="5" ry="6" fill="#1a120c"/>
  <path d="M200 175 L250 155" stroke="#8a8a8a" stroke-width="5"/>
  <circle cx="250" cy="150" r="8" fill="#8a8a8a" stroke="#0a0e14" stroke-width="2"/>
  <rect x="230" y="190" width="14" height="70" fill="#6a4420" stroke="#0a0e14" stroke-width="2"/>
  
  <rect x="8" y="8" width="304" height="344" fill="none" stroke="#1a120c" stroke-width="10"/>
  <rect x="16" y="16" width="288" height="328" fill="none" stroke="#c45a3a" stroke-width="3"/>
  <rect x="12" y="12" width="14" height="14" fill="#c45a3a"/>
  <rect x="294" y="12" width="14" height="14" fill="#c45a3a"/>
  <rect x="12" y="334" width="14" height="14" fill="#8b3a2a"/>
  <rect x="294" y="334" width="14" height="14" fill="#8b3a2a"/>
  <text x="160" y="342" text-anchor="middle" font-family="Impact, Arial Black, sans-serif" font-size="16"
    fill="#f4efe4" stroke="#1a120c" stroke-width="4" paint-order="stroke">COFFLE GUARD</text>
</svg>
