<?xml version="1.0" encoding="UTF-8"?>
<svg xmlns="http://www.w3.org/2000/svg" width="320" height="360" viewBox="0 0 320 360" fill="none">
  <defs>
    <linearGradient id="ebg-nest" x1="0" y1="0" x2="0" y2="1">
      <stop offset="0%" stop-color="#2a1c14"/>
      <stop offset="100%" stop-color="#0c1210"/>
    </linearGradient>
  </defs>
  <rect width="320" height="360" fill="url(#ebg-nest)"/>
  <ellipse cx="160" cy="300" rx="90" ry="18" fill="#1a2818" opacity="0.7"/>
  <ellipse cx="160" cy="220" rx="65" ry="48" fill="#1a1020" stroke="#0a0e14" stroke-width="4"/>
  <circle cx="160" cy="140" r="42" fill="#2a1838" stroke="#0a0e14" stroke-width="4"/>
  <circle cx="145" cy="130" r="7" fill="#f5d547"/><circle cx="175" cy="130" r="7" fill="#f5d547"/>
  <circle cx="160" cy="145" r="5" fill="#e85d4c"/>
  <path d="M100 180 Q40 140 30 90" fill="none" stroke="#1a1020" stroke-width="10"/>
  <path d="M220 180 Q280 140 290 90" fill="none" stroke="#1a1020" stroke-width="10"/>
  <path d="M95 230 Q30 260 20 300" fill="none" stroke="#1a1020" stroke-width="10"/>
  <path d="M225 230 Q290 260 300 300" fill="none" stroke="#1a1020" stroke-width="10"/>
  
  <rect x="8" y="8" width="304" height="344" fill="none" stroke="#1a120c" stroke-width="10"/>
  <rect x="16" y="16" width="288" height="328" fill="none" stroke="#c45a3a" stroke-width="3"/>
  <rect x="12" y="12" width="14" height="14" fill="#c45a3a"/>
  <rect x="294" y="12" width="14" height="14" fill="#c45a3a"/>
  <rect x="12" y="334" width="14" height="14" fill="#8b3a2a"/>
  <rect x="294" y="334" width="14" height="14" fill="#8b3a2a"/>
  <text x="160" y="342" text-anchor="middle" font-family="Impact, Arial Black, sans-serif" font-size="16"
    fill="#f4efe4" stroke="#1a120c" stroke-width="4" paint-order="stroke">NEST MOTHER</text>
</svg>
