<?xml version="1.0" encoding="UTF-8"?>
<svg xmlns="http://www.w3.org/2000/svg" width="320" height="360" viewBox="0 0 320 360" fill="none">
  <defs>
    <linearGradient id="ebg-nhowl" x1="0" y1="0" x2="0" y2="1">
      <stop offset="0%" stop-color="#2a1c14"/>
      <stop offset="100%" stop-color="#0c1210"/>
    </linearGradient>
  </defs>
  <rect width="320" height="360" fill="url(#ebg-nhowl)"/>
  <ellipse cx="160" cy="300" rx="90" ry="18" fill="#1a2818" opacity="0.7"/>
  <ellipse cx="170" cy="220" rx="72" ry="36" fill="#2a3038" stroke="#0a0e14" stroke-width="4"/>
  <ellipse cx="100" cy="200" rx="34" ry="28" fill="#2a3038" stroke="#0a0e14" stroke-width="3"/>
  <path d="M78 182 L65 140 L98 172Z" fill="#1a2028"/><path d="M112 178 L130 138 L122 182Z" fill="#1a2028"/>
  <ellipse cx="90" cy="196" rx="7" ry="8" fill="#e85d4c"/><circle cx="91" cy="198" r="3" fill="#0a0e14"/>
  <path d="M230 210 Q250 180 255 160" fill="none" stroke="#2a3038" stroke-width="10"/>
  
  <rect x="8" y="8" width="304" height="344" fill="none" stroke="#1a120c" stroke-width="10"/>
  <rect x="16" y="16" width="288" height="328" fill="none" stroke="#c45a3a" stroke-width="3"/>
  <rect x="12" y="12" width="14" height="14" fill="#c45a3a"/>
  <rect x="294" y="12" width="14" height="14" fill="#c45a3a"/>
  <rect x="12" y="334" width="14" height="14" fill="#8b3a2a"/>
  <rect x="294" y="334" width="14" height="14" fill="#8b3a2a"/>
  <text x="160" y="342" text-anchor="middle" font-family="Impact, Arial Black, sans-serif" font-size="16"
    fill="#f4efe4" stroke="#1a120c" stroke-width="4" paint-order="stroke">NIGHT-HOWL</text>
</svg>
