<?xml version="1.0" encoding="UTF-8"?>
<svg xmlns="http://www.w3.org/2000/svg" width="320" height="360" viewBox="0 0 320 360" fill="none">
  <defs>
    <linearGradient id="ebg-rider" x1="0" y1="0" x2="0" y2="1">
      <stop offset="0%" stop-color="#2a1c14"/>
      <stop offset="100%" stop-color="#0c1210"/>
    </linearGradient>
  </defs>
  <rect width="320" height="360" fill="url(#ebg-rider)"/>
  <ellipse cx="160" cy="300" rx="90" ry="18" fill="#1a2818" opacity="0.7"/>
  <ellipse cx="180" cy="260" rx="70" ry="30" fill="#5a4a38" stroke="#0a0e14" stroke-width="3"/>
  <ellipse cx="110" cy="245" rx="28" ry="22" fill="#5a4a38" stroke="#0a0e14" stroke-width="2"/>
  <ellipse cx="160" cy="180" rx="35" ry="40" fill="#4a8a3a" stroke="#0a0e14" stroke-width="3"/>
  <circle cx="160" cy="120" r="30" fill="#4a8a3a" stroke="#0a0e14" stroke-width="3"/>
  <ellipse cx="150" cy="118" rx="6" ry="7" fill="#f5d547"/><ellipse cx="170" cy="118" rx="6" ry="7" fill="#f5d547"/>
  <path d="M200 160 Q240 140 250 120" fill="none" stroke="#6a4420" stroke-width="6"/>
  
  <rect x="8" y="8" width="304" height="344" fill="none" stroke="#1a120c" stroke-width="10"/>
  <rect x="16" y="16" width="288" height="328" fill="none" stroke="#c45a3a" stroke-width="3"/>
  <rect x="12" y="12" width="14" height="14" fill="#c45a3a"/>
  <rect x="294" y="12" width="14" height="14" fill="#c45a3a"/>
  <rect x="12" y="334" width="14" height="14" fill="#8b3a2a"/>
  <rect x="294" y="334" width="14" height="14" fill="#8b3a2a"/>
  <text x="160" y="342" text-anchor="middle" font-family="Impact, Arial Black, sans-serif" font-size="16"
    fill="#f4efe4" stroke="#1a120c" stroke-width="4" paint-order="stroke">ORC RIDER</text>
</svg>
