<?xml version="1.0" encoding="UTF-8"?>
<svg xmlns="http://www.w3.org/2000/svg" width="320" height="360" viewBox="0 0 320 360" fill="none">
  <defs>
    <linearGradient id="ebg-widow" x1="0" y1="0" x2="0" y2="1">
      <stop offset="0%" stop-color="#2a1c14"/>
      <stop offset="100%" stop-color="#0c1210"/>
    </linearGradient>
  </defs>
  <rect width="320" height="360" fill="url(#ebg-widow)"/>
  <ellipse cx="160" cy="300" rx="90" ry="18" fill="#1a2818" opacity="0.7"/>
  <ellipse cx="160" cy="210" rx="55" ry="42" fill="#2a1a30" stroke="#0a0e14" stroke-width="4"/>
  <circle cx="160" cy="145" r="36" fill="#3a2848" stroke="#0a0e14" stroke-width="4"/>
  <circle cx="148" cy="140" r="6" fill="#e85d4c"/><circle cx="172" cy="140" r="6" fill="#e85d4c"/>
  <circle cx="160" cy="150" r="4" fill="#f5d547"/>
  <path d="M110 190 Q70 150 50 120" fill="none" stroke="#2a1a30" stroke-width="8"/>
  <path d="M110 230 Q60 250 40 280" fill="none" stroke="#2a1a30" stroke-width="8"/>
  <path d="M210 190 Q260 150 280 120" fill="none" stroke="#2a1a30" stroke-width="8"/>
  <path d="M210 230 Q270 250 290 280" fill="none" stroke="#2a1a30" stroke-width="8"/>
  
  <rect x="8" y="8" width="304" height="344" fill="none" stroke="#1a120c" stroke-width="10"/>
  <rect x="16" y="16" width="288" height="328" fill="none" stroke="#c45a3a" stroke-width="3"/>
  <rect x="12" y="12" width="14" height="14" fill="#c45a3a"/>
  <rect x="294" y="12" width="14" height="14" fill="#c45a3a"/>
  <rect x="12" y="334" width="14" height="14" fill="#8b3a2a"/>
  <rect x="294" y="334" width="14" height="14" fill="#8b3a2a"/>
  <text x="160" y="342" text-anchor="middle" font-family="Impact, Arial Black, sans-serif" font-size="16"
    fill="#f4efe4" stroke="#1a120c" stroke-width="4" paint-order="stroke">SILK WIDOW</text>
</svg>
