<?xml version="1.0" encoding="UTF-8"?>
<svg xmlns="http://www.w3.org/2000/svg" width="320" height="360" viewBox="0 0 320 360" fill="none">
  <defs>
    <linearGradient id="ebg-whip" x1="0" y1="0" x2="0" y2="1">
      <stop offset="0%" stop-color="#2a1c14"/>
      <stop offset="100%" stop-color="#0c1210"/>
    </linearGradient>
  </defs>
  <rect width="320" height="360" fill="url(#ebg-whip)"/>
  <ellipse cx="160" cy="300" rx="90" ry="18" fill="#1a2818" opacity="0.7"/>
  <ellipse cx="160" cy="220" rx="40" ry="50" fill="#5a4030" stroke="#0a0e14" stroke-width="4"/>
  <circle cx="160" cy="130" r="36" fill="#c4a882" stroke="#0a0e14" stroke-width="3"/>
  <ellipse cx="148" cy="128" rx="5" ry="6" fill="#1a120c"/><ellipse cx="172" cy="128" rx="5" ry="6" fill="#1a120c"/>
  <path d="M145 148 Q160 156 175 148" fill="none" stroke="#8a6040" stroke-width="2"/>
  <rect x="145" y="95" width="30" height="12" fill="#3a2818"/>
  <path d="M200 180 Q260 200 270 260" fill="none" stroke="#8a5a3a" stroke-width="4"/>
  <path d="M120 250 L140 300 L155 300 L145 250Z" fill="#3a2818"/>
  <path d="M175 250 L165 300 L180 300 L200 250Z" fill="#3a2818"/>
  
  <rect x="8" y="8" width="304" height="344" fill="none" stroke="#1a120c" stroke-width="10"/>
  <rect x="16" y="16" width="288" height="328" fill="none" stroke="#c45a3a" stroke-width="3"/>
  <rect x="12" y="12" width="14" height="14" fill="#c45a3a"/>
  <rect x="294" y="12" width="14" height="14" fill="#c45a3a"/>
  <rect x="12" y="334" width="14" height="14" fill="#8b3a2a"/>
  <rect x="294" y="334" width="14" height="14" fill="#8b3a2a"/>
  <text x="160" y="342" text-anchor="middle" font-family="Impact, Arial Black, sans-serif" font-size="16"
    fill="#f4efe4" stroke="#1a120c" stroke-width="4" paint-order="stroke">WHIP-HAND</text>
</svg>
