<svg xmlns="http://www.w3.org/2000/svg" width="120" height="120" viewBox="0 0 120 120" fill="none">
  <!-- TL -->
  <g>
    <path d="M8 48 V10 H46" stroke="#d4b45a" stroke-width="2"/>
    <path d="M8 36 V18 H26" stroke="#8a7348" stroke-width="1"/>
    <rect x="4" y="4" width="10" height="10" fill="#1a120c" stroke="#f0d78a" stroke-width="1.25"/>
  </g>
  <!-- TR -->
  <g transform="translate(120,0) scale(-1,1)">
    <path d="M8 48 V10 H46" stroke="#d4b45a" stroke-width="2"/>
    <path d="M8 36 V18 H26" stroke="#8a7348" stroke-width="1"/>
    <rect x="4" y="4" width="10" height="10" fill="#1a120c" stroke="#f0d78a" stroke-width="1.25"/>
  </g>
  <!-- BL -->
  <g transform="translate(0,120) scale(1,-1)">
    <path d="M8 48 V10 H46" stroke="#d4b45a" stroke-width="2"/>
    <path d="M8 36 V18 H26" stroke="#8a7348" stroke-width="1"/>
    <rect x="4" y="4" width="10" height="10" fill="#1a120c" stroke="#f0d78a" stroke-width="1.25"/>
  </g>
  <!-- BR -->
  <g transform="translate(120,120) scale(-1,-1)">
    <path d="M8 48 V10 H46" stroke="#d4b45a" stroke-width="2"/>
    <path d="M8 36 V18 H26" stroke="#8a7348" stroke-width="1"/>
    <rect x="4" y="4" width="10" height="10" fill="#1a120c" stroke="#f0d78a" stroke-width="1.25"/>
  </g>
</svg>
