<?xml version="1.0" encoding="UTF-8"?>
<svg xmlns="http://www.w3.org/2000/svg" width="720" height="200" viewBox="0 0 720 200" fill="none">
  <defs>
    <linearGradient id="bg-ch05" x1="0" y1="0" x2="0" y2="1">
      <stop offset="0%" stop-color="#1a1428"/>
      <stop offset="50%" stop-color="#120c1c"/>
      <stop offset="100%" stop-color="#08060e"/>
    </linearGradient>
    <linearGradient id="keep-ch05" x1="0" y1="0" x2="0" y2="1">
      <stop offset="0%" stop-color="#3a3648"/>
      <stop offset="100%" stop-color="#1a1824"/>
    </linearGradient>
    <linearGradient id="neon-ch05" x1="0" y1="0" x2="0" y2="1">
      <stop offset="0%" stop-color="#ff4d8a"/>
      <stop offset="100%" stop-color="#6a2aff"/>
    </linearGradient>
    <radialGradient id="glow-ch05" cx="50%" cy="40%" r="50%">
      <stop offset="0%" stop-color="#ff4d8a" stop-opacity="0.35"/>
      <stop offset="100%" stop-color="#ff4d8a" stop-opacity="0"/>
    </radialGradient>
  </defs>

  <rect width="720" height="200" fill="url(#bg-ch05)"/>
  <ellipse cx="360" cy="70" rx="160" ry="50" fill="url(#glow-ch05)"/>
  <ellipse cx="120" cy="40" rx="50" ry="14" fill="#6a2aff" opacity="0.12"/>
  <ellipse cx="600" cy="36" rx="60" ry="16" fill="#ff4d8a" opacity="0.1"/>

  <!-- smoke / ash canopy -->
  <path d="M0 0 Q80 40 160 10 T320 8 T480 20 T640 6 T720 18 L720 0Z" fill="#0a0810" opacity="0.7"/>
  <path d="M40 8 Q100 36 180 12" fill="none" stroke="#4a3848" stroke-width="6" opacity="0.4" stroke-linecap="round"/>
  <path d="M280 4 Q360 32 440 10" fill="none" stroke="#3a2838" stroke-width="8" opacity="0.35" stroke-linecap="round"/>
  <path d="M520 6 Q600 34 700 12" fill="none" stroke="#4a3848" stroke-width="6" opacity="0.4" stroke-linecap="round"/>

  <!-- distant mire hills -->
  <path d="M0 95 L60 70 L120 88 L180 62 L240 85 L300 68 L360 90 L420 64 L500 82 L580 60 L660 86 L720 72 L720 200 L0 200Z" fill="#14101c"/>
  <path d="M0 110 Q180 95 360 112 T720 105 L720 200 L0 200Z" fill="#1a1424" opacity="0.9"/>

  <!-- border keep towers -->
  <g>
    <!-- left tower -->
    <rect x="200" y="48" width="48" height="90" fill="url(#keep-ch05)" stroke="#1a120c" stroke-width="3"/>
    <path d="M195 48 L224 28 L253 48Z" fill="#4a4058" stroke="#1a120c" stroke-width="2"/>
    <rect x="212" y="70" width="12" height="14" fill="#ff4d8a" opacity="0.55"/>
    <rect x="228" y="70" width="12" height="14" fill="#6a2aff" opacity="0.45"/>
    <rect x="214" y="105" width="20" height="28" fill="#0a0810" stroke="#1a120c" stroke-width="2"/>
    <!-- battlements -->
    <rect x="200" y="44" width="10" height="10" fill="#3a3648"/><rect x="219" y="44" width="10" height="10" fill="#3a3648"/><rect x="238" y="44" width="10" height="10" fill="#3a3648"/>
  </g>
  <g>
    <!-- right tower -->
    <rect x="472" y="48" width="48" height="90" fill="url(#keep-ch05)" stroke="#1a120c" stroke-width="3"/>
    <path d="M467 48 L496 28 L525 48Z" fill="#4a4058" stroke="#1a120c" stroke-width="2"/>
    <rect x="484" y="70" width="12" height="14" fill="#6a2aff" opacity="0.5"/>
    <rect x="500" y="70" width="12" height="14" fill="#ff4d8a" opacity="0.5"/>
    <rect x="486" y="105" width="20" height="28" fill="#0a0810" stroke="#1a120c" stroke-width="2"/>
    <rect x="472" y="44" width="10" height="10" fill="#3a3648"/><rect x="491" y="44" width="10" height="10" fill="#3a3648"/><rect x="510" y="44" width="10" height="10" fill="#3a3648"/>
  </g>

  <!-- gate arch / corp smile -->
  <path d="M248 138 L248 78 Q360 48 472 78 L472 138" fill="#221c30" stroke="#1a120c" stroke-width="3"/>
  <path d="M268 138 L268 90 Q360 62 452 90 L452 138" fill="#0e0a14"/>
  <!-- neon smile over gate -->
  <path d="M290 100 Q360 128 430 100" fill="none" stroke="#ff4d8a" stroke-width="3" opacity="0.75"/>
  <circle cx="310" cy="92" r="4" fill="#ff4d8a" opacity="0.8"/>
  <circle cx="410" cy="92" r="4" fill="#ff4d8a" opacity="0.8"/>
  <!-- portcullis teeth -->
  <g stroke="#4a4058" stroke-width="3">
    <line x1="290" y1="95" x2="290" y2="138"/><line x1="320" y1="95" x2="320" y2="138"/>
    <line x1="350" y1="95" x2="350" y2="138"/><line x1="380" y1="95" x2="380" y2="138"/>
    <line x1="410" y1="95" x2="410" y2="138"/><line x1="440" y1="95" x2="440" y2="138"/>
  </g>

  <!-- helix sigils on towers -->
  <g fill="none" stroke="#ff4d8a" stroke-width="1.8" opacity="0.85">
    <path d="M218 88 Q224 80 230 88 Q236 96 230 104 Q224 112 218 104 Q212 96 218 88"/>
    <path d="M490 88 Q496 80 502 88 Q508 96 502 104 Q496 112 490 104 Q484 96 490 88"/>
  </g>
  <g fill="none" stroke="#6a2aff" stroke-width="1.4" opacity="0.7">
    <path d="M222 90 Q228 84 234 90 Q238 96 234 102 Q228 108 222 102 Q218 96 222 90"/>
    <path d="M494 90 Q500 84 506 90 Q510 96 506 102 Q500 108 494 102 Q490 96 494 90"/>
  </g>
  <!-- floating helix marks -->
  <g fill="none" stroke="#c4a35a" stroke-width="1.2" opacity="0.45">
    <path d="M80 55 Q88 48 96 55 Q102 62 96 70 Q88 78 80 70 Q74 62 80 55"/>
    <path d="M640 50 Q648 42 656 50 Q662 58 656 66 Q648 74 640 66 Q634 58 640 50"/>
  </g>

  <!-- drone / war-mastiff silhouettes -->
  <g fill="#1a120c" opacity="0.75">
    <ellipse cx="140" cy="42" rx="14" ry="5"/>
    <circle cx="140" cy="38" r="4"/>
    <line x1="128" y1="42" x2="118" y2="48" stroke="#1a120c" stroke-width="2"/>
    <line x1="152" y1="42" x2="162" y2="48" stroke="#1a120c" stroke-width="2"/>
    <ellipse cx="580" cy="38" rx="16" ry="5"/>
    <circle cx="580" cy="34" r="4"/>
    <line x1="566" y1="38" x2="556" y2="44" stroke="#1a120c" stroke-width="2"/>
    <line x1="594" y1="38" x2="604" y2="44" stroke="#1a120c" stroke-width="2"/>
  </g>
  <circle cx="140" cy="38" r="1.5" fill="#ff4d8a"/>
  <circle cx="580" cy="34" r="1.5" fill="#6a2aff"/>

  <!-- wall / rampart base -->
  <rect x="180" y="130" width="360" height="22" fill="#2a2438" stroke="#1a120c" stroke-width="2"/>
  <path d="M180 130 H540" stroke="#ff4d8a" stroke-width="1.5" opacity="0.4"/>
  <!-- wall glyphs / numbers -->
  <text x="260" y="146" font-family="Impact, Arial Black, sans-serif" font-size="10" fill="#6a2aff" opacity="0.5">SCAN</text>
  <text x="400" y="146" font-family="Impact, Arial Black, sans-serif" font-size="10" fill="#ff4d8a" opacity="0.5">TOLL</text>

  <!-- ground approach -->
  <path d="M0 155 Q180 145 360 158 T720 152 L720 200 L0 200Z" fill="#16101a"/>
  <path d="M0 170 L720 165 L720 200 L0 200Z" fill="#0e0a12" opacity="0.9"/>
  <path d="M0 178 Q200 172 400 182 T720 176" fill="none" stroke="#1a1008" stroke-width="4" opacity="0.45"/>
  <!-- spike / wickernetic posts -->
  <g stroke="#3a3040" stroke-width="3">
    <line x1="60" y1="155" x2="60" y2="130"/><line x1="100" y1="158" x2="100" y2="128"/>
    <line x1="620" y1="155" x2="620" y2="128"/><line x1="660" y1="158" x2="660" y2="132"/>
  </g>
  <circle cx="60" cy="128" r="3" fill="#ff4d8a" opacity="0.6"/>
  <circle cx="100" cy="126" r="3" fill="#6a2aff" opacity="0.55"/>
  <circle cx="620" cy="126" r="3" fill="#ff4d8a" opacity="0.55"/>
  <circle cx="660" cy="130" r="3" fill="#6a2aff" opacity="0.55"/>

  <!-- trail band (YOU overlay ~42% height, L→R) — approaches through gate -->
  <path d="M28 96 Q150 76 280 98 T500 86 T692 100" fill="none" stroke="#1a120c" stroke-width="14" stroke-linecap="round" opacity="0.55"/>
  <path d="M28 96 Q150 76 280 98 T500 86 T692 100" fill="none" stroke="#c4a35a" stroke-width="9" stroke-linecap="round" opacity="0.9"/>
  <path d="M28 96 Q150 76 280 98 T500 86 T692 100" fill="none" stroke="#1a120c" stroke-width="2.5" stroke-linecap="round" opacity="0.65"/>
  <g fill="#f4efe4" stroke="#1a120c" stroke-width="2">
    <circle cx="50" cy="93" r="5"/>
    <circle cx="140" cy="80" r="5"/>
    <circle cx="250" cy="95" r="5"/>
    <circle cx="360" cy="94" r="5"/>
    <circle cx="470" cy="88" r="5"/>
    <circle cx="570" cy="90" r="5"/>
    <circle cx="660" cy="98" r="5"/>
  </g>

  <!-- comic ink + gold frame -->
  <rect x="6" y="6" width="708" height="188" fill="none" stroke="#1a120c" stroke-width="8"/>
  <rect x="12" y="12" width="696" height="176" fill="none" stroke="#c4a35a" stroke-width="2.5"/>
  <rect x="10" y="10" width="12" height="12" fill="#c4a35a"/>
  <rect x="698" y="10" width="12" height="12" fill="#c4a35a"/>
  <rect x="10" y="178" width="12" height="12" fill="#8b3a2a"/>
  <rect x="698" y="178" width="12" height="12" fill="#8b3a2a"/>

  <text x="24" y="38" font-family="Impact, Arial Black, sans-serif" font-size="22"
    fill="#f4efe4" stroke="#1a120c" stroke-width="4" paint-order="stroke">HELIX GATE</text>
  <text x="24" y="182" font-family="Courier New, monospace" font-size="11" fill="#d48ab0" opacity="0.75">LOCAL MARCH — CORP BORDER</text>
</svg>
