<?xml version="1.0" encoding="UTF-8"?>
<svg xmlns="http://www.w3.org/2000/svg" width="960" height="260" viewBox="0 0 960 260" fill="none">
  <defs>
    <linearGradient id="sky1" x1="0" y1="0" x2="0" y2="1">
      <stop offset="0%" stop-color="#061510"/>
      <stop offset="40%" stop-color="#0e2418"/>
      <stop offset="100%" stop-color="#08140e"/>
    </linearGradient>
    <radialGradient id="glow1a" cx="68%" cy="28%" r="42%">
      <stop offset="0%" stop-color="#3dff9a" stop-opacity="0.38"/>
      <stop offset="100%" stop-color="#3dff9a" stop-opacity="0"/>
    </radialGradient>
    <radialGradient id="glow1b" cx="22%" cy="55%" r="30%">
      <stop offset="0%" stop-color="#20c878" stop-opacity="0.18"/>
      <stop offset="100%" stop-color="#20c878" stop-opacity="0"/>
    </radialGradient>
    <linearGradient id="mist1" x1="0" y1="0" x2="1" y2="0">
      <stop offset="0%" stop-color="#7affc4" stop-opacity="0"/>
      <stop offset="45%" stop-color="#7affc4" stop-opacity="0.1"/>
      <stop offset="100%" stop-color="#7affc4" stop-opacity="0"/>
    </linearGradient>
    <linearGradient id="trail1" x1="0" y1="0" x2="1" y2="0">
      <stop offset="0%" stop-color="#8a6a3a"/>
      <stop offset="50%" stop-color="#d4b070"/>
      <stop offset="100%" stop-color="#9a7848"/>
    </linearGradient>
    <filter id="blur1" x="-20%" y="-20%" width="140%" height="140%">
      <feGaussianBlur stdDeviation="2.5"/>
    </filter>
  </defs>

  <rect width="960" height="260" fill="url(#sky1)"/>
  <ellipse cx="650" cy="70" rx="240" ry="95" fill="url(#glow1a)"/>
  <ellipse cx="180" cy="140" rx="160" ry="70" fill="url(#glow1b)"/>

  <!-- distant dragon foreshadow -->
  <path d="M700 42 C740 32 780 52 810 44 C795 62 755 58 730 70 C718 58 708 48 700 42Z" fill="#04100c" opacity="0.55"/>
  <path d="M760 48 L798 38 L790 56Z" fill="#04100c" opacity="0.4"/>

  <!-- ridge / mountain hints -->
  <path d="M0 98 L70 58 L130 88 L210 42 L290 82 L390 48 L470 90 L560 44 L640 86 L740 52 L840 88 L960 58 L960 0 L0 0Z" fill="#04140e" opacity="0.95"/>
  <path d="M0 112 L95 78 L175 105 L270 62 L355 98 L460 72 L540 108 L640 68 L750 102 L870 72 L960 98 L960 0 L0 0Z" fill="#0a1f16" opacity="0.5"/>

  <!-- canopy silhouettes -->
  <g fill="#030c08" opacity="0.94">
    <ellipse cx="55" cy="38" rx="72" ry="52"/><ellipse cx="145" cy="28" rx="58" ry="42"/>
    <ellipse cx="245" cy="44" rx="68" ry="50"/><ellipse cx="350" cy="24" rx="52" ry="40"/>
    <ellipse cx="455" cy="40" rx="74" ry="54"/><ellipse cx="575" cy="26" rx="58" ry="44"/>
    <ellipse cx="690" cy="36" rx="84" ry="56"/><ellipse cx="820" cy="28" rx="62" ry="46"/>
    <ellipse cx="925" cy="40" rx="58" ry="42"/>
  </g>

  <!-- trunks -->
  <g stroke="#071812" stroke-width="9" stroke-linecap="round" opacity="0.88">
    <path d="M88 72 L82 205"/><path d="M198 58 L208 212"/><path d="M318 62 L308 208"/>
    <path d="M478 52 L490 204"/><path d="M618 56 L612 214"/><path d="M758 50 L770 208"/>
    <path d="M878 56 L868 202"/>
  </g>

  <!-- biolume veins on bark -->
  <g stroke="#3dff9a" stroke-width="1.6" opacity="0.55" filter="url(#blur1)">
    <path d="M92 95 Q118 135 98 175"/><path d="M202 85 Q238 128 218 182"/>
    <path d="M482 75 Q522 118 498 178"/><path d="M762 72 Q802 124 778 172"/>
    <path d="M622 80 Q648 130 628 180"/>
  </g>
  <g fill="#5effb0" opacity="0.42">
    <circle cx="108" cy="118" r="3"/><circle cx="228" cy="138" r="2.5"/><circle cx="505" cy="98" r="3.2"/>
    <circle cx="638" cy="128" r="2"/><circle cx="792" cy="108" r="3.5"/><circle cx="348" cy="148" r="2"/>
    <circle cx="870" cy="130" r="2.2"/><circle cx="160" cy="160" r="1.8"/>
  </g>

  <!-- roots / forest floor -->
  <path d="M0 198 C130 182 250 212 380 196 S620 184 740 208 S880 188 960 202 L960 260 L0 260Z" fill="#0e1c14"/>
  <path d="M0 218 C170 208 330 232 500 216 S800 208 960 228 L960 260 L0 260Z" fill="#07140e"/>
  <g stroke="#1a3a28" stroke-width="2.2" opacity="0.55">
    <path d="M36 208 Q82 192 124 218"/><path d="M198 204 Q262 188 308 222"/>
    <path d="M398 208 Q482 192 548 220"/><path d="M618 206 Q702 190 768 222"/>
    <path d="M818 208 Q888 196 948 216"/>
  </g>

  <!-- chrome scrap / knife glints -->
  <path d="M158 172 L176 164 L178 180Z" fill="#9ad4c0" opacity="0.55"/>
  <path d="M538 182 L556 174 L552 192Z" fill="#b8ffe0" opacity="0.42"/>
  <path d="M720 176 L738 170 L734 188Z" fill="#80c0a8" opacity="0.4"/>

  <!-- spirit wisps -->
  <ellipse cx="400" cy="78" rx="48" ry="14" fill="#a8ffe0" opacity="0.09" filter="url(#blur1)"/>
  <ellipse cx="710" cy="92" rx="56" ry="16" fill="#7affc4" opacity="0.11" filter="url(#blur1)"/>
  <rect width="960" height="260" fill="url(#mist1)"/>

  <!-- trail band (~42% vertical / 12–88% horizontal for YOU overlay) -->
  <path d="M80 117 C180 91 280 123 380 103 S580 125 680 105 S860 119 900 109"
    fill="none" stroke="#3dff9a" stroke-width="22" stroke-linecap="round" opacity="0.28"/>
  <path d="M80 117 C180 91 280 123 380 103 S580 125 680 105 S860 119 900 109"
    fill="none" stroke="url(#trail1)" stroke-width="14" stroke-linecap="round" opacity="0.92"/>
  <path d="M80 117 C180 91 280 123 380 103 S580 125 680 105 S860 119 900 109"
    fill="none" stroke="#0a1810" stroke-width="3.5" stroke-linecap="round" stroke-dasharray="10 8" opacity="0.55"/>
  <g>
    <circle cx="100" cy="115" r="4" fill="#0a1810" opacity="0.7"/><circle cx="100" cy="115" r="2" fill="#d4b070"/>
    <circle cx="220" cy="98" r="4" fill="#0a1810" opacity="0.7"/><circle cx="220" cy="98" r="2" fill="#d4b070"/>
    <circle cx="340" cy="112" r="4" fill="#0a1810" opacity="0.7"/><circle cx="340" cy="112" r="2" fill="#d4b070"/>
    <circle cx="460" cy="108" r="4" fill="#0a1810" opacity="0.7"/><circle cx="460" cy="108" r="2" fill="#d4b070"/>
    <circle cx="580" cy="118" r="4" fill="#0a1810" opacity="0.7"/><circle cx="580" cy="118" r="2" fill="#d4b070"/>
    <circle cx="700" cy="106" r="4" fill="#0a1810" opacity="0.7"/><circle cx="700" cy="106" r="2" fill="#d4b070"/>
    <circle cx="820" cy="114" r="4" fill="#0a1810" opacity="0.7"/><circle cx="820" cy="114" r="2" fill="#d4b070"/>
  </g>

  <!-- woodcut frame -->
  <rect x="6" y="6" width="948" height="248" fill="none" stroke="#0d0a08" stroke-width="10"/>
  <rect x="14" y="14" width="932" height="232" fill="none" stroke="#c4a35a" stroke-width="2.5"/>
  <rect x="10" y="10" width="12" height="12" fill="#c4a35a"/>
  <rect x="938" y="10" width="12" height="12" fill="#c4a35a"/>
  <rect x="10" y="238" width="12" height="12" fill="#8b3a2a"/>
  <rect x="938" y="238" width="12" height="12" fill="#8b3a2a"/>
  <text x="28" y="42" font-family="Impact, Arial Black, sans-serif" font-size="22"
    fill="#f4efe4" stroke="#0d0a08" stroke-width="5" paint-order="stroke">WOODS WITHOUT NAMES</text>
  <text x="28" y="238" font-family="Courier New, monospace" font-size="11" fill="#e8dcc8" opacity="0.75">LOCAL MARCH — BIOLUME PINES · NO FOG</text>
</svg>
