<?xml version="1.0" encoding="UTF-8"?>
<svg xmlns="http://www.w3.org/2000/svg" width="960" height="260" viewBox="0 0 960 260" fill="none">
  <defs>
    <linearGradient id="sky3" x1="0" y1="0" x2="0" y2="1">
      <stop offset="0%" stop-color="#0e1218"/>
      <stop offset="45%" stop-color="#1a2438"/>
      <stop offset="100%" stop-color="#080a10"/>
    </linearGradient>
    <linearGradient id="scan3" x1="0" y1="0" x2="1" y2="0">
      <stop offset="0%" stop-color="#00e8ff" stop-opacity="0"/>
      <stop offset="38%" stop-color="#00e8ff" stop-opacity="0.16"/>
      <stop offset="62%" stop-color="#ff2a6a" stop-opacity="0.12"/>
      <stop offset="100%" stop-color="#00e8ff" stop-opacity="0"/>
    </linearGradient>
    <linearGradient id="trail3" x1="0" y1="0" x2="1" y2="0">
      <stop offset="0%" stop-color="#3a5068"/>
      <stop offset="50%" stop-color="#80a8c8"/>
      <stop offset="100%" stop-color="#4a6880"/>
    </linearGradient>
    <filter id="blur3" x="-20%" y="-20%" width="140%" height="140%">
      <feGaussianBlur stdDeviation="1.6"/>
    </filter>
  </defs>

  <rect width="960" height="260" fill="url(#sky3)"/>

  <!-- barcode forest — thick ink bars -->
  <g stroke="#06080c" stroke-width="7" opacity="0.92">
    <line x1="40" y1="18" x2="40" y2="200"/><line x1="68" y1="22" x2="68" y2="198"/>
    <line x1="96" y1="16" x2="96" y2="202"/><line x1="124" y1="24" x2="124" y2="196"/>
    <line x1="152" y1="18" x2="152" y2="200"/><line x1="180" y1="20" x2="180" y2="198"/>
    <line x1="208" y1="14" x2="208" y2="204"/><line x1="236" y1="22" x2="236" y2="196"/>
    <line x1="264" y1="18" x2="264" y2="200"/><line x1="292" y1="26" x2="292" y2="194"/>
    <line x1="320" y1="16" x2="320" y2="202"/><line x1="348" y1="20" x2="348" y2="198"/>
    <line x1="376" y1="18" x2="376" y2="200"/><line x1="404" y1="24" x2="404" y2="196"/>
    <line x1="432" y1="16" x2="432" y2="202"/><line x1="460" y1="22" x2="460" y2="198"/>
    <line x1="488" y1="18" x2="488" y2="200"/><line x1="516" y1="26" x2="516" y2="194"/>
    <line x1="544" y1="16" x2="544" y2="202"/><line x1="572" y1="20" x2="572" y2="198"/>
    <line x1="600" y1="18" x2="600" y2="200"/><line x1="628" y1="24" x2="628" y2="196"/>
    <line x1="656" y1="16" x2="656" y2="202"/><line x1="684" y1="22" x2="684" y2="198"/>
    <line x1="712" y1="18" x2="712" y2="200"/><line x1="740" y1="26" x2="740" y2="194"/>
    <line x1="768" y1="16" x2="768" y2="202"/><line x1="796" y1="20" x2="796" y2="198"/>
    <line x1="824" y1="18" x2="824" y2="200"/><line x1="852" y1="24" x2="852" y2="196"/>
    <line x1="880" y1="16" x2="880" y2="202"/><line x1="908" y1="22" x2="908" y2="198"/>
    <line x1="936" y1="18" x2="936" y2="200"/>
  </g>
  <g stroke="#1e2838" stroke-width="3" opacity="0.72">
    <line x1="54" y1="28" x2="54" y2="190"/><line x1="110" y1="32" x2="110" y2="188"/>
    <line x1="166" y1="26" x2="166" y2="192"/><line x1="222" y1="30" x2="222" y2="186"/>
    <line x1="278" y1="28" x2="278" y2="190"/><line x1="334" y1="34" x2="334" y2="184"/>
    <line x1="390" y1="26" x2="390" y2="192"/><line x1="446" y1="30" x2="446" y2="186"/>
    <line x1="502" y1="28" x2="502" y2="190"/><line x1="558" y1="34" x2="558" y2="184"/>
    <line x1="614" y1="26" x2="614" y2="192"/><line x1="670" y1="30" x2="670" y2="186"/>
    <line x1="726" y1="28" x2="726" y2="190"/><line x1="782" y1="34" x2="782" y2="184"/>
    <line x1="838" y1="26" x2="838" y2="192"/><line x1="894" y1="30" x2="894" y2="186"/>
  </g>

  <!-- neon scan bars -->
  <g stroke="#00e8ff" stroke-width="1.3" opacity="0.38" filter="url(#blur3)">
    <line x1="80" y1="48" x2="80" y2="172"/><line x1="164" y1="52" x2="164" y2="168"/>
    <line x1="276" y1="46" x2="276" y2="174"/><line x1="388" y1="50" x2="388" y2="170"/>
    <line x1="500" y1="48" x2="500" y2="172"/><line x1="640" y1="52" x2="640" y2="168"/>
    <line x1="780" y1="46" x2="780" y2="174"/><line x1="880" y1="50" x2="880" y2="170"/>
  </g>
  <g stroke="#ff2a6a" stroke-width="1" opacity="0.28">
    <line x1="120" y1="58" x2="120" y2="162"/><line x1="220" y1="62" x2="220" y2="158"/>
    <line x1="340" y1="56" x2="340" y2="164"/><line x1="460" y1="60" x2="460" y2="160"/>
    <line x1="580" y1="58" x2="580" y2="162"/><line x1="720" y1="62" x2="720" y2="158"/>
    <line x1="840" y1="56" x2="840" y2="164"/>
  </g>

  <!-- hunter silhouettes -->
  <g fill="#04060a" opacity="0.78">
    <ellipse cx="198" cy="168" rx="15" ry="8"/><path d="M186 168 L192 128 L210 128 L216 168Z"/>
    <ellipse cx="248" cy="170" rx="13" ry="7"/><path d="M238 170 L242 132 L258 132 L262 170Z"/>
    <ellipse cx="702" cy="164" rx="14" ry="7"/><path d="M690 164 L696 126 L712 126 L718 164Z"/>
    <ellipse cx="752" cy="168" rx="12" ry="6"/><path d="M742 168 L746 134 L760 134 L764 168Z"/>
  </g>

  <!-- blank SKU plates -->
  <g fill="#2a3040" stroke="#00e8ff" stroke-width="1.1" opacity="0.6">
    <rect x="178" y="92" width="40" height="24" rx="2"/>
    <rect x="678" y="86" width="40" height="24" rx="2"/>
  </g>
  <g font-family="Courier New, monospace" font-size="9" fill="#00e8ff" opacity="0.65">
    <text x="184" y="108">SKU?</text><text x="686" y="102">NULL</text>
  </g>

  <!-- scan fog -->
  <rect x="0" y="58" width="960" height="105" fill="url(#scan3)"/>
  <ellipse cx="480" cy="128" rx="420" ry="52" fill="#8aa0b8" opacity="0.08" filter="url(#blur3)"/>

  <!-- ground -->
  <path d="M0 194 C200 178 400 208 600 188 S860 184 960 202 L960 260 L0 260Z" fill="#141820"/>
  <path d="M0 220 C180 212 400 232 640 216 S900 214 960 228 L960 260 L0 260Z" fill="#080a10"/>
  <g stroke="#00e8ff" stroke-width="1" opacity="0.22">
    <line x1="60" y1="212" x2="68" y2="212"/><line x1="100" y1="212" x2="108" y2="212"/>
    <line x1="140" y1="212" x2="148" y2="212"/><line x1="220" y1="212" x2="228" y2="212"/>
    <line x1="300" y1="212" x2="308" y2="212"/><line x1="420" y1="212" x2="428" y2="212"/>
    <line x1="540" y1="212" x2="548" y2="212"/><line x1="660" y1="212" x2="668" y2="212"/>
    <line x1="780" y1="212" x2="788" y2="212"/><line x1="860" y1="212" x2="868" y2="212"/>
  </g>

  <!-- dragon barcode foreshadow (abstract wing in scan) -->
  <path d="M520 55 C560 48 600 62 640 52 C615 72 575 68 545 78 C532 68 524 58 520 55Z" fill="#00e8ff" opacity="0.08"/>

  <!-- trail band -->
  <path d="M80 117 C180 91 280 123 380 103 S580 125 680 105 S860 119 900 109"
    fill="none" stroke="#00e8ff" stroke-width="22" stroke-linecap="round" opacity="0.28"/>
  <path d="M80 117 C180 91 280 123 380 103 S580 125 680 105 S860 119 900 109"
    fill="none" stroke="url(#trail3)" stroke-width="14" stroke-linecap="round" opacity="0.92"/>
  <path d="M80 117 C180 91 280 123 380 103 S580 125 680 105 S860 119 900 109"
    fill="none" stroke="#080a10" stroke-width="3.5" stroke-linecap="round" stroke-dasharray="10 8" opacity="0.55"/>
  <g>
    <circle cx="100" cy="115" r="4" fill="#080a10" opacity="0.7"/><circle cx="100" cy="115" r="2" fill="#80a8c8"/>
    <circle cx="220" cy="98" r="4" fill="#080a10" opacity="0.7"/><circle cx="220" cy="98" r="2" fill="#80a8c8"/>
    <circle cx="340" cy="112" r="4" fill="#080a10" opacity="0.7"/><circle cx="340" cy="112" r="2" fill="#80a8c8"/>
    <circle cx="460" cy="108" r="4" fill="#080a10" opacity="0.7"/><circle cx="460" cy="108" r="2" fill="#80a8c8"/>
    <circle cx="580" cy="118" r="4" fill="#080a10" opacity="0.7"/><circle cx="580" cy="118" r="2" fill="#80a8c8"/>
    <circle cx="700" cy="106" r="4" fill="#080a10" opacity="0.7"/><circle cx="700" cy="106" r="2" fill="#80a8c8"/>
    <circle cx="820" cy="114" r="4" fill="#080a10" opacity="0.7"/><circle cx="820" cy="114" r="2" fill="#80a8c8"/>
  </g>

  <!-- woodcut frame -->
  <rect x="6" y="6" width="948" height="248" fill="none" stroke="#0d0a08" stroke-width="10"/>
  <rect x="14" y="14" width="932" height="232" fill="none" stroke="#c4a35a" stroke-width="2.5"/>
  <rect x="10" y="10" width="12" height="12" fill="#c4a35a"/>
  <rect x="938" y="10" width="12" height="12" fill="#c4a35a"/>
  <rect x="10" y="238" width="12" height="12" fill="#8b3a2a"/>
  <rect x="938" y="238" width="12" height="12" fill="#8b3a2a"/>
  <text x="28" y="42" font-family="Impact, Arial Black, sans-serif" font-size="22"
    fill="#f4efe4" stroke="#0d0a08" stroke-width="5" paint-order="stroke">SKU TRACE</text>
  <text x="28" y="238" font-family="Courier New, monospace" font-size="11" fill="#e8dcc8" opacity="0.75">LOCAL MARCH — BLANK FACES · NO FOG</text>
</svg>
