<?xml version="1.0" encoding="UTF-8"?>
<svg xmlns="http://www.w3.org/2000/svg" width="720" height="200" viewBox="0 0 720 200" fill="none">
  <defs>
    <linearGradient id="bg-ch04" x1="0" y1="0" x2="0" y2="1">
      <stop offset="0%" stop-color="#0a1824"/>
      <stop offset="45%" stop-color="#122830"/>
      <stop offset="100%" stop-color="#061018"/>
    </linearGradient>
    <linearGradient id="neon-ch04" x1="0" y1="0" x2="1" y2="0">
      <stop offset="0%" stop-color="#1affc8"/>
      <stop offset="50%" stop-color="#4de8ff"/>
      <stop offset="100%" stop-color="#c45aff"/>
    </linearGradient>
    <linearGradient id="chrome-ch04" x1="0" y1="0" x2="0" y2="1">
      <stop offset="0%" stop-color="#8a9aaa"/>
      <stop offset="40%" stop-color="#d0d8e0"/>
      <stop offset="100%" stop-color="#3a4858"/>
    </linearGradient>
    <linearGradient id="water-ch04" x1="0" y1="0" x2="0" y2="1">
      <stop offset="0%" stop-color="#0e3a48"/>
      <stop offset="50%" stop-color="#1a6070"/>
      <stop offset="100%" stop-color="#061820"/>
    </linearGradient>
  </defs>

  <!-- sky / grit -->
  <rect width="720" height="200" fill="url(#bg-ch04)"/>
  <ellipse cx="580" cy="36" rx="90" ry="22" fill="#1affc8" opacity="0.08"/>
  <ellipse cx="140" cy="28" rx="70" ry="16" fill="#c45aff" opacity="0.07"/>
  <path d="M0 0 L40 28 L70 8 L110 36 L150 12 L200 40 L250 6 L300 32 L360 10 L420 38 L480 4 L540 30 L600 8 L660 34 L720 0 Z" fill="#061018" opacity="0.55"/>

  <!-- distant chrome cliffs / ruins -->
  <path d="M0 78 L50 48 L90 70 L130 40 L180 66 L220 44 L280 72 L320 50 L380 74 L440 42 L500 68 L560 46 L620 70 L680 48 L720 76 L720 200 L0 200Z" fill="#142028" opacity="0.9"/>
  <path d="M40 70 L70 42 L95 62" fill="none" stroke="#3a5060" stroke-width="2"/>
  <path d="M200 68 L240 38 L270 60" fill="none" stroke="#3a5060" stroke-width="2"/>
  <path d="M480 66 L520 36 L555 58" fill="none" stroke="#3a5060" stroke-width="2"/>
  <path d="M620 68 L655 40 L690 62" fill="none" stroke="#4a6878" stroke-width="2"/>

  <!-- neon canopy streaks -->
  <path d="M20 20 Q80 55 140 18" fill="none" stroke="#1affc8" stroke-width="1.5" opacity="0.45"/>
  <path d="M160 12 Q230 50 300 16" fill="none" stroke="#4de8ff" stroke-width="1.2" opacity="0.35"/>
  <path d="M420 8 Q500 48 580 14" fill="none" stroke="#c45aff" stroke-width="1.5" opacity="0.4"/>
  <path d="M600 18 Q660 52 710 22" fill="none" stroke="#1affc8" stroke-width="1.2" opacity="0.35"/>
  <!-- dead cyber-trees -->
  <g stroke="#1a120c" stroke-width="2" fill="#1a2830">
    <path d="M55 85 L55 55 M55 60 L40 48 M55 60 L70 46"/>
    <path d="M175 88 L175 50 M175 58 L158 42 M175 58 L192 40"/>
    <path d="M510 86 L510 52 M510 60 L492 44 M510 60 L528 42"/>
    <path d="M670 84 L670 48 M670 56 L652 40 M670 56 L688 38"/>
  </g>
  <circle cx="40" cy="48" r="2" fill="#1affc8" opacity="0.7"/>
  <circle cx="192" cy="40" r="2" fill="#c45aff" opacity="0.7"/>
  <circle cx="528" cy="42" r="2" fill="#4de8ff" opacity="0.7"/>

  <!-- chrome river body -->
  <path d="M0 128 Q120 118 240 132 T480 126 T720 134 L720 200 L0 200Z" fill="url(#water-ch04)"/>
  <path d="M0 140 Q180 128 360 142 T720 138" fill="none" stroke="url(#neon-ch04)" stroke-width="3" opacity="0.55"/>
  <path d="M0 152 Q200 145 400 155 T720 150" fill="none" stroke="#4de8ff" stroke-width="1.5" opacity="0.35"/>
  <path d="M0 165 Q160 158 320 168 T720 162" fill="none" stroke="#1affc8" stroke-width="1" opacity="0.25"/>
  <!-- chrome sheen bands -->
  <path d="M60 145 H140 M220 150 H300 M380 146 H470 M540 152 H640" stroke="url(#chrome-ch04)" stroke-width="2" opacity="0.35"/>

  <!-- barges -->
  <g>
    <path d="M95 138 L155 134 L168 148 L90 152Z" fill="url(#chrome-ch04)" stroke="#1a120c" stroke-width="2"/>
    <rect x="108" y="126" width="18" height="14" fill="#2a3848" stroke="#1a120c" stroke-width="1.5"/>
    <rect x="132" y="128" width="14" height="10" fill="#1a2838" stroke="#1a120c" stroke-width="1.5"/>
    <circle cx="117" cy="132" r="2" fill="#1affc8"/>
    <circle cx="139" cy="133" r="2" fill="#c45aff"/>
    <!-- spirit jars -->
    <ellipse cx="120" cy="122" rx="4" ry="5" fill="#4de8ff" opacity="0.45" stroke="#1a120c" stroke-width="1"/>
    <ellipse cx="145" cy="124" rx="3.5" ry="4.5" fill="#c45aff" opacity="0.4" stroke="#1a120c" stroke-width="1"/>
  </g>
  <g>
    <path d="M310 142 L390 136 L405 152 L300 156Z" fill="#5a6878" stroke="#1a120c" stroke-width="2"/>
    <rect x="330" y="128" width="40" height="16" fill="#243040" stroke="#1a120c" stroke-width="1.5"/>
    <path d="M340 128 V118 M360 128 V116" stroke="#8a9aaa" stroke-width="2"/>
    <circle cx="340" cy="116" r="3" fill="#e85d4c" opacity="0.8"/>
    <circle cx="360" cy="114" r="3" fill="#1affc8" opacity="0.7"/>
  </g>
  <g>
    <path d="M540 140 L610 135 L622 150 L530 154Z" fill="url(#chrome-ch04)" stroke="#1a120c" stroke-width="2"/>
    <rect x="555" y="126" width="28" height="14" fill="#1e2a38" stroke="#1a120c" stroke-width="1.5"/>
    <path d="M560 126 L568 112 L576 126" fill="#3a4858" stroke="#1a120c" stroke-width="1"/>
    <circle cx="568" cy="112" r="2.5" fill="#c45aff"/>
  </g>

  <!-- shore grit / muck -->
  <path d="M0 170 Q100 162 200 172 T400 168 T720 175 L720 200 L0 200Z" fill="#1a1410" opacity="0.85"/>
  <path d="M0 182 Q160 176 320 186 T720 180" fill="none" stroke="#0a0808" stroke-width="4" opacity="0.4"/>
  <ellipse cx="80" cy="178" rx="28" ry="6" fill="#2a3838" opacity="0.5"/>
  <ellipse cx="420" cy="180" rx="36" ry="7" fill="#2a3838" opacity="0.45"/>
  <ellipse cx="640" cy="178" rx="30" ry="6" fill="#2a3838" opacity="0.5"/>

  <!-- trail band (YOU overlay ~42% height, L→R) -->
  <path d="M30 92 Q140 72 260 96 T480 84 T690 100" fill="none" stroke="#1a120c" stroke-width="14" stroke-linecap="round" opacity="0.55"/>
  <path d="M30 92 Q140 72 260 96 T480 84 T690 100" fill="none" stroke="#c4a35a" stroke-width="9" stroke-linecap="round" opacity="0.9"/>
  <path d="M30 92 Q140 72 260 96 T480 84 T690 100" fill="none" stroke="#1a120c" stroke-width="2.5" stroke-linecap="round" opacity="0.65"/>
  <!-- waypoint pips -->
  <g fill="#f4efe4" stroke="#1a120c" stroke-width="2">
    <circle cx="55" cy="89" r="5"/>
    <circle cx="150" cy="77" r="5"/>
    <circle cx="250" cy="94" r="5"/>
    <circle cx="360" cy="92" r="5"/>
    <circle cx="470" cy="84" r="5"/>
    <circle cx="570" cy="90" r="5"/>
    <circle cx="660" cy="98" r="5"/>
  </g>

  <!-- neon brand marks along shore -->
  <text x="200" y="168" font-family="Impact, Arial Black, sans-serif" font-size="9" fill="#1affc8" opacity="0.35">BRAND</text>
  <text x="480" y="170" font-family="Impact, Arial Black, sans-serif" font-size="9" fill="#c45aff" opacity="0.3">CARGO</text>

  <!-- comic ink + gold frame -->
  <rect x="6" y="6" width="708" height="188" fill="none" stroke="#1a120c" stroke-width="8"/>
  <rect x="12" y="12" width="696" height="176" fill="none" stroke="#c4a35a" stroke-width="2.5"/>
  <rect x="10" y="10" width="12" height="12" fill="#c4a35a"/>
  <rect x="698" y="10" width="12" height="12" fill="#c4a35a"/>
  <rect x="10" y="178" width="12" height="12" fill="#8b3a2a"/>
  <rect x="698" y="178" width="12" height="12" fill="#8b3a2a"/>

  <text x="24" y="38" font-family="Impact, Arial Black, sans-serif" font-size="22"
    fill="#f4efe4" stroke="#1a120c" stroke-width="4" paint-order="stroke">CHROMEVEIL</text>
  <text x="24" y="182" font-family="Courier New, monospace" font-size="11" fill="#7ad4e8" opacity="0.75">LOCAL MARCH — NEON WATER</text>
</svg>
