<?xml version="1.0" encoding="UTF-8"?>
<svg xmlns="http://www.w3.org/2000/svg" width="960" height="260" viewBox="0 0 960 260" fill="none">
  <defs>
    <linearGradient id="sky8" x1="0" y1="0" x2="0" y2="1">
      <stop offset="0%" stop-color="#2a1010"/>
      <stop offset="40%" stop-color="#4a2018"/>
      <stop offset="100%" stop-color="#120808"/>
    </linearGradient>
    <linearGradient id="fire8" x1="0" y1="1" x2="0" y2="0">
      <stop offset="0%" stop-color="#ff6020" stop-opacity="0.7"/>
      <stop offset="100%" stop-color="#ff6020" stop-opacity="0"/>
    </linearGradient>
    <radialGradient id="ember8" cx="50%" cy="40%" r="55%">
      <stop offset="0%" stop-color="#ff8040" stop-opacity="0.22"/>
      <stop offset="100%" stop-color="#ff8040" stop-opacity="0"/>
    </radialGradient>
    <linearGradient id="trail8" x1="0" y1="0" x2="1" y2="0">
      <stop offset="0%" stop-color="#8a4830"/>
      <stop offset="50%" stop-color="#e09050"/>
      <stop offset="100%" stop-color="#9a5030"/>
    </linearGradient>
    <filter id="blur8" x="-20%" y="-20%" width="140%" height="140%">
      <feGaussianBlur stdDeviation="3"/>
    </filter>
  </defs>
  <rect width="960" height="260" fill="url(#sky8)"/>
  <ellipse cx="480" cy="90" rx="420" ry="100" fill="url(#ember8)"/>

  <!-- smoke plumes -->
  <g fill="#1a1010" opacity="0.55" filter="url(#blur8)">
    <ellipse cx="160" cy="36" rx="110" ry="32"/>
    <ellipse cx="420" cy="28" rx="150" ry="38"/>
    <ellipse cx="700" cy="34" rx="120" ry="30"/>
    <ellipse cx="880" cy="42" rx="90" ry="26"/>
  </g>

  <!-- burning / falling spires -->
  <g fill="#1a0c0c" stroke="#ff8040" stroke-width="1.6" opacity="0.9">
    <path d="M120 25 L145 185 L95 185Z"/>
    <path d="M260 18 L290 175 L230 175Z"/>
    <path d="M480 12 L520 168 L440 168Z"/>
    <path d="M680 20 L710 172 L650 172Z"/>
    <path d="M840 35 L862 160 L818 160Z"/>
  </g>
  <!-- collapsing tilt -->
  <g transform="rotate(14 340 100)">
    <path d="M320 40 L350 155 L300 150Z" fill="#2a1010" stroke="#ff4060" stroke-width="1.2" opacity="0.75"/>
  </g>
  <g transform="rotate(-10 760 95)">
    <path d="M740 50 L768 150 L720 148Z" fill="#2a1010" stroke="#ff6040" stroke-width="1.2" opacity="0.7"/>
  </g>

  <!-- neon windows in towers -->
  <g fill="#40ffc0" opacity="0.35">
    <rect x="125" y="70" width="6" height="10"/><rect x="132" y="95" width="6" height="10"/>
    <rect x="268" y="60" width="7" height="11"/><rect x="275" y="90" width="6" height="10"/>
    <rect x="488" y="55" width="8" height="12"/><rect x="498" y="85" width="7" height="11"/>
    <rect x="688" y="65" width="6" height="10"/><rect x="695" y="95" width="6" height="10"/>
  </g>
  <g fill="#ff4060" opacity="0.4">
    <rect x="128" y="130" width="8" height="14"/><rect x="490" y="120" width="10" height="16"/>
    <rect x="690" y="125" width="8" height="14"/>
  </g>

  <!-- fire blooms at bases -->
  <ellipse cx="120" cy="178" rx="48" ry="28" fill="url(#fire8)"/>
  <ellipse cx="260" cy="170" rx="55" ry="32" fill="url(#fire8)"/>
  <ellipse cx="480" cy="162" rx="70" ry="36" fill="url(#fire8)"/>
  <ellipse cx="680" cy="168" rx="52" ry="30" fill="url(#fire8)"/>
  <ellipse cx="840" cy="158" rx="40" ry="24" fill="url(#fire8)"/>

  <!-- uprising grid / war field -->
  <g stroke="#40ffc0" stroke-width="1" opacity="0.22">
    <path d="M0 178 L960 178"/><path d="M0 198 L960 198"/><path d="M0 218 L960 218"/>
    <line x1="60" y1="155" x2="60" y2="230"/><line x1="110" y1="155" x2="110" y2="230"/><line x1="160" y1="155" x2="160" y2="230"/><line x1="210" y1="155" x2="210" y2="230"/><line x1="260" y1="155" x2="260" y2="230"/><line x1="310" y1="155" x2="310" y2="230"/><line x1="360" y1="155" x2="360" y2="230"/><line x1="410" y1="155" x2="410" y2="230"/><line x1="460" y1="155" x2="460" y2="230"/><line x1="510" y1="155" x2="510" y2="230"/><line x1="560" y1="155" x2="560" y2="230"/><line x1="610" y1="155" x2="610" y2="230"/><line x1="660" y1="155" x2="660" y2="230"/><line x1="710" y1="155" x2="710" y2="230"/><line x1="760" y1="155" x2="760" y2="230"/><line x1="810" y1="155" x2="810" y2="230"/><line x1="860" y1="155" x2="860" y2="230"/><line x1="910" y1="155" x2="910" y2="230"/>
  </g>

  <!-- broken collar / seal shards -->
  <g fill="#c4a35a" opacity="0.5">
    <path d="M180 188 L198 180 L192 200Z"/>
    <path d="M400 192 L420 183 L414 205Z"/>
    <path d="M560 186 L578 178 L572 198Z"/>
    <path d="M780 190 L798 182 L792 202Z"/>
  </g>
  <g fill="none" stroke="#c4a35a" stroke-width="1.2" opacity="0.35">
    <circle cx="210" cy="195" r="8"/><circle cx="610" cy="192" r="7"/>
  </g>

  <!-- uprising figures + warg cavalry hints -->
  <g fill="#0a0606" opacity="0.72">
    <path d="M70 195 L76 162 L88 162 L92 195Z"/>
    <path d="M200 198 L208 165 L220 165 L224 198Z"/>
    <path d="M360 196 L366 160 L380 160 L384 196Z"/>
    <path d="M540 194 L548 158 L562 158 L566 194Z"/>
    <path d="M720 197 L728 163 L740 163 L744 197Z"/>
    <path d="M900 195 L908 162 L920 162 L924 195Z"/>
  </g>
  <!-- dragon drop foreshadow -->
  <path d="M560 42 C600 32 650 50 700 38 C680 58 630 52 590 64 C570 52 562 42 560 42Z" fill="#0a0608" opacity="0.5"/>
  <path d="M640 40 L670 28 L665 48Z" fill="#0a0608" opacity="0.35"/>

  <!-- ground -->
  <path d="M0 198 C200 186 400 210 600 192 S860 188 960 202 L960 260 L0 260Z" fill="#2a1410"/>
  <path d="M0 222 C200 216 450 235 700 220 S900 218 960 230 L960 260 L0 260Z" fill="#120808"/>
  <g fill="#ff8040" opacity="0.55">
    <circle cx="150" cy="95" r="2"/><circle cx="300" cy="70" r="1.5"/><circle cx="450" cy="85" r="2"/>
    <circle cx="600" cy="60" r="1.5"/><circle cx="750" cy="78" r="2"/><circle cx="880" cy="100" r="1.5"/>
    <circle cx="380" cy="120" r="1"/><circle cx="820" cy="115" r="1.5"/>
  </g>

  <!-- trail band (~42% vertical / 12–88% horizontal for YOU overlay) -->
  <path d="M80 117 C180 91 280 123 380 103 S580 125 680 105 S860 119 900 109"
    fill="none" stroke="#ff6020" stroke-width="22" stroke-linecap="round" opacity="0.28"/>
  <path d="M80 117 C180 91 280 123 380 103 S580 125 680 105 S860 119 900 109"
    fill="none" stroke="url(#trail8)" stroke-width="14" stroke-linecap="round" opacity="0.92"/>
  <path d="M80 117 C180 91 280 123 380 103 S580 125 680 105 S860 119 900 109"
    fill="none" stroke="#120808" stroke-width="3.5" stroke-linecap="round" stroke-dasharray="10 8" opacity="0.55"/>
  <g>
    <circle cx="100" cy="115" r="4" fill="#120808" opacity="0.7"/><circle cx="100" cy="115" r="2" fill="#e09050"/>
    <circle cx="220" cy="98" r="4" fill="#120808" opacity="0.7"/><circle cx="220" cy="98" r="2" fill="#e09050"/>
    <circle cx="340" cy="112" r="4" fill="#120808" opacity="0.7"/><circle cx="340" cy="112" r="2" fill="#e09050"/>
    <circle cx="460" cy="108" r="4" fill="#120808" opacity="0.7"/><circle cx="460" cy="108" r="2" fill="#e09050"/>
    <circle cx="580" cy="118" r="4" fill="#120808" opacity="0.7"/><circle cx="580" cy="118" r="2" fill="#e09050"/>
    <circle cx="700" cy="106" r="4" fill="#120808" opacity="0.7"/><circle cx="700" cy="106" r="2" fill="#e09050"/>
    <circle cx="820" cy="114" r="4" fill="#120808" opacity="0.7"/><circle cx="820" cy="114" r="2" fill="#e09050"/>
  </g>
  <!-- woodcut frame -->
  <rect x="6" y="6" width="948" height="248" fill="none" stroke="#0d0a08" stroke-width="10"/>
  <rect x="14" y="14" width="932" height="232" fill="none" stroke="#c4a35a" stroke-width="2.5"/>
  <rect x="10" y="10" width="12" height="12" fill="#c4a35a"/>
  <rect x="938" y="10" width="12" height="12" fill="#c4a35a"/>
  <rect x="10" y="238" width="12" height="12" fill="#8b3a2a"/>
  <rect x="938" y="238" width="12" height="12" fill="#8b3a2a"/>
  <text x="28" y="42" font-family="Impact, Arial Black, sans-serif" font-size="22"
    fill="#f4efe4" stroke="#0d0a08" stroke-width="5" paint-order="stroke">SPIREFALL</text>
  <text x="28" y="238" font-family="Courier New, monospace" font-size="11" fill="#e8dcc8" opacity="0.75">LOCAL MARCH — COLLARS CRACK · TOWERS BURN · NO FOG</text>
</svg>
