<?xml version="1.0" encoding="UTF-8"?>
<svg xmlns="http://www.w3.org/2000/svg" width="720" height="200" viewBox="0 0 720 200" fill="none">
  <defs>
    <linearGradient id="bg-local-ch-02" x1="0" y1="0" x2="0" y2="1">
      <stop offset="0%" stop-color="#7a5a32"/>
      <stop offset="100%" stop-color="#1c140c"/>
    </linearGradient>
  </defs>
  <rect width="720" height="200" fill="url(#bg-local-ch-02)"/>
  <ellipse cx="120" cy="150" rx="90" ry="28" fill="#a08050" opacity="0.55"/>
  <ellipse cx="360" cy="145" rx="110" ry="32" fill="#a08050" opacity="0.5"/>
  <ellipse cx="600" cy="150" rx="95" ry="30" fill="#a08050" opacity="0.55"/>
  <path d="M40 120 Q180 70 360 110 T680 90" fill="none" stroke="#c4a35a" stroke-width="10" stroke-linecap="round" opacity="0.85"/>
  <path d="M40 120 Q180 70 360 110 T680 90" fill="none" stroke="#1a120c" stroke-width="3" stroke-linecap="round" opacity="0.55"/>
  <circle cx="70" cy="120" r="7" fill="#f4efe4" stroke="#1a120c" stroke-width="2"/><circle cx="150" cy="93.96190475734466" r="7" fill="#f4efe4" stroke="#1a120c" stroke-width="2"/><circle cx="230" cy="92.40740756032312" r="7" fill="#f4efe4" stroke="#1a120c" stroke-width="2"/><circle cx="310" cy="87.83013773383153" r="7" fill="#f4efe4" stroke="#1a120c" stroke-width="2"/><circle cx="390" cy="110.62033179563466" r="7" fill="#f4efe4" stroke="#1a120c" stroke-width="2"/><circle cx="470" cy="121.82193037530936" r="7" fill="#f4efe4" stroke="#1a120c" stroke-width="2"/><circle cx="550" cy="144.40412162758045" r="7" fill="#f4efe4" stroke="#1a120c" stroke-width="2"/><circle cx="630" cy="139.5086731534813" r="7" fill="#f4efe4" stroke="#1a120c" stroke-width="2"/>
  <rect x="6" y="6" width="708" height="188" fill="none" stroke="#1a120c" stroke-width="8"/>
  <rect x="12" y="12" width="696" height="176" fill="none" stroke="#c4a35a" stroke-width="2"/>
  <text x="24" y="40" font-family="Impact, Arial Black, sans-serif" font-size="22"
    fill="#f4efe4" stroke="#1a120c" stroke-width="4" paint-order="stroke">DUST & DEBT</text>
  <text x="24" y="175" font-family="Courier New, monospace" font-size="12" fill="#e8dcc8" opacity="0.8">LOCAL MARCH — NO FOG</text>
</svg>